<mxfile host="app.diagrams.net" modified="2024-03-11T17:37:33.541Z" agent="Mozilla/5.0 (Windows NT 10.0; Win64; x64) AppleWebKit/537.36 (KHTML, like Gecko) Chrome/122.0.0.0 Safari/537.36 Edg/122.0.0.0" etag="gO1JR4kuCjwGfnDix348" version="24.0.4" type="github">
  <diagram id="C5RBs43oDa-KdzZeNtuy" name="Page-1">
    <mxGraphModel dx="1113" dy="712" grid="1" gridSize="10" guides="1" tooltips="1" connect="1" arrows="1" fold="1" page="1" pageScale="1" pageWidth="827" pageHeight="1169" math="0" shadow="0">
      <root>
        <mxCell id="WIyWlLk6GJQsqaUBKTNV-0" />
        <mxCell id="WIyWlLk6GJQsqaUBKTNV-1" parent="WIyWlLk6GJQsqaUBKTNV-0" />
        <mxCell id="_YYQAjemEUzrbPqEmsPf-26" value="" style="shape=image;verticalLabelPosition=bottom;labelBackgroundColor=default;verticalAlign=top;aspect=fixed;imageAspect=0;image=data:image/png,iVBORw0KGgoAAAANSUhEUgAABhoAAAR9CAIAAAAvIworAAAAAXNSR0IArs4c6QAAAARnQU1BAACxjwv8YQUAAAAJcEhZcwAADsMAAA7DAcdvqGQAAP+lSURBVHhe7P1PaONewyf4auHFWbghgtBETRYRZKNFFlrUogwFTwQFbzRkEdFZBN3AE3wDU5iCLkTRUB7qN9SIcKlrsggm9xJEnksNysvUxZkmjWvmhnaeJu+45u0aWk1X06qBgDMQxsVMFhrIQosscs85km3JsRUnFVel8nw/hB9xLOvP0ZF+Pt8650i4AgAAAAAAAAAAGBniJAAAAAAAAAAAuAXESQAAAAAAAAAAcAuIkwAAAAAAAAAA4BYQJwEAAAAAAAAAwC0gTgIAAAAAAAAAgFtAnAQAAAAAAAAAALeAOAkAAAAAAAAAAG4BcRIAAAAAAAAAANwC4iQAAACA2J///Oc/AQAAADwif/nLX+IvOvcKcRIAAABAbIaLv3wBAAAA/OYEQfjjjz/iLzr3CnESAAAAQGxmZmZMX7kAAAAAfr7xfbdBnAQAAAAQQ5wEAAAAjwniJAAAAICxQ5wEAAAAjwniJAAAAICxQ5wEAAAAjwniJAAAAICxG/iV633VvfEnXhQAAADgIUGcBAAAADB2w+Ik7z9+y/hBnAQAAAAPE+IkAAAAgLHLiJP+Ly4IgugXKvodcRIAAAA8WIiTAAAAAMbuxjjpOsRJAAAA8GAhTgIAAAAYu2Fx0r/79//p/2D+z+v//fLvvyJOAgAAgIcJcRIAAADA2A2Lk5r/6P0XQ/xP/+ghTgIAAICHCXESAAAAwNgNi5P++g9f/u7vFgb+/PX4C+IkgEciDNonvv+tFYTxH36dMDj1Pc9vnf/6XQGA3xriJAAAAICxGxYnHTaaX7/+56//6T/3//frf6ZvIU4CuH+HRSknmvv9YUrzlSzkdec8fnlfAs8tr6gSEWITsvai6gXxuz9V2KpvmOp0Z1dyRF6waif3ESp9b1S3G3c4pvaOTojufKe/hrVVkTyx/egNAPgdIE4CAAAAGLthcVL9f/y3X754X/4Xj/03+un8Tt9CnARw7/wNlRCtchq/7GhXnxNBtf3L+PW9aO2ZChFE1Sjv1pue3/Ia7jtDyQvis8r9buhmQdN+LglE1l5V65/91qnf3LeNWSLMFms/mKBdNq1ZIr9qxi9vIWysS2Su7NGiuPTKc0Rar6PHFMBvBHESAAAAwNgNi5P+1b/+N8f/8D//wz/84/X//vf/+t8gTgK4b4G7RIQZq9GX5oT14qQgrd1nnBF+sdW8IK84rfRKW1uamJOud48ap3ZtVRaIUjxox3+IeLZKiPrux7oEnVQKRDT27nA4vv2EiKs19snvDuuntJPePQB42BAnAQAAAIzdsDjp4/7/kPGDOAngnrGuNAJZcvtHZnllNUe07SjOCFv7ZXNelWdk5ale3Gy0e9lT4O2VzeeqMiur86Z90EuK2gdl44Xrf6tZi6rypOietVh3p9li/foYsItG5UWp8olv69Krrpr2Ubu5aRbmFO1dk64wPKnb63phTpYVVV+vNNhYMI4tbJQ+tOKX0UaX7QbbibDxzjA3G94HS3+qyHMF8129u9vhsaXkiPKGrTytXXtdLG3Hfx+6XbryDbryZvCtVl7R2LEvlNxv7EOt3ZLxTCZ05fNGcdfnS5rmltf6ZBtPFXWp6l8OX23gGnmibbLDCT8VJaKUv0RvXLU/O9aKpiqy8kQvvk+U/4lbWi7XTjznBX23YH36JYMGASCGOAkAAABg7IbFSTf+xIsCwL04rWiEqBv9/XGCXZ3kFOsz+z08Kil52dhw64d1NjaN9d/x+FLt+guF5BXjjVP7VHNeaxKRiwdRohHW1yXyzNAVRVsvlV45Ps+nCtc21O+kUsjL+nJBfmqWXpbswyD8bGuTRH5uVT/W63u2OUfInNW46CxMiLHXzVD4RtVosBiLycQZRV0qOx/d6suC1Nt62HghsWmhzvirIbK2e9ksK/QtvTCnl9477k5ZnxHIotO+ump9qpbmRWFKszarNS+MllSXDHW2YL4slba8IGO1x5ZMZOuY/cpGIE6aNf731gdDJqK6arsH9dpWqTBJ1Ndx4BV8MMiUZjxX1MWS9aJc6wVeAPALIE4CAAAAGLvxfeUCgNGF+6aYk4qf+rvpsMBlIo4zmq+VeEIfJqy/UOTnbKqjYN9k+dF+N80JaqsSeV5lvYwuffuJIOQL5eP43damRnK97jZ0PcF5u/2983MehHz94UdTFAR5xW1Fmwub1hwRF1innthXu0CIvstWyxYmBftb9AYVDRbjA/RYTCaIi068HjamTxTiaYnYvpFnlV6npusyt3v1vUpXzmKgeJal5LTZbM4psujEhx0vWapHQU/malkR5Q3eT4yNQCTzfA9PHX2ilx9RbLruTtLUeCkLOUnf9PvPHwD8CoiTAAAAAMYOcRLAQ+C9UYT4UWJJvv2UdAOXYM+UckRetJzjdiK2YIPXyJNy86zd7vw03qhk1mpesjzEyAvKq14IwoIPuqHuLNefLSUXP1GNyRsuf6tJ92ei128o+GiKOaXMO0nFLhulaaK8Yd2j6MJkqtSb9SkaLLbF4iwekyXTqyvvrUomi3UWJzWKUwKJpigaInu7bCRaTjI/xpERLYrKM0KWXbbCsF6cIurbqPdWZ8lO4pa52kQmddmwZuLJvOluC3mt4vUKubVflOMQjW/36T1Plw4Ad4Y4CQAAAGDsECcBPACBs0jiPjtJ546eFxLPJgu83ZI2QwSByM9LjsdzGB4YDRCt7agkk3isXISPL4u63nDnfuOowX4O3dKcIDyJMhHetScxkRMLoWYSgREV1syJaLZsvvACG2IWYxuNB4t5b5Q42OrorYolOIK4WovfSDpvtb6zo8vc7pX/TiWdrlvMBXsrHknHJvMWiwdxVMWWnCp25zPPWm38KLcG++NpdxBfqzpPi/0aUmBP4ou2y+daAoCHAHESAAAAwNghTgL49S69ssom/enGN5Hgg5EaARfFH5ft5q7FQqUpkz1K/7SqsVFabfZu8odrbRaSMQrlbxRITrW/xi97wro5KcRPxOddexL5SFhb4b1v4pfcsSXnRPYYuEu2sNLpB0Txnk2Gy1KetrPQGSwWYQPcumPQeN+rvtUygbsisaMLMrcbj0Sr9lb+2VKIVDpkv7I5p4hWjXtX8SV76VjmahOPcmNdq6L+RyxjYskXGwl4rZCvPpcVku7rBAC/FOIkAAAAgLFDnATwAPDOL3NW6glnF01LZV2WeNee/h5A0egtFp3wrjHdUV1UsF9UZrUKHw1WWxFT/YYoz1ZzgvKy0RddhWzUW+eJ+F9tlcjWEX+DY32aZkr8SW2RtrvE/lK/6MzD/bHz3plrTAnkKY+QWCzV6SfFBZ9KcmLQmfdWEXJK6Si1L+39opwjhfcs7cna7mWj1BmJFmlvayQfj+NrvGS9suJeUXzJ5DTnGatNPsqNda2aKvJOTLz85/l0VJFTx5iVjR12lGy7nUmUAOAhQJwEAAAAMHaIkwAegvYHg82LtGS7x37rxG/uV4pPRCGvWIe95IUQtbjns9dhq/5SJZPRXEts4m1hSrMPW0HQbn5gTxyTV2ss+OCPM4umGUoIGi8VkhML69X6Z7Yt78itvNKVCUEgqs2XDT4YnbmoY+GRpRCx8LreCq+uzj33hSoS2fzI05VvtkpI4W0zuAhaR9XiM1WZEqQXfLAYi6WIOCXr75vti7B9XDFmiLTUnZabrqpenCXCZKG4Vfe+tfzPdeeVJhMir8TLZG33+uPk1jqPk+Ppj6BajdN2QD/IlkxNc56xWjYsbtLk8zmlIrzWji7mZGOr2Q7YYbInwdH185PBHmOX7IEFAL8a4iQAAACAsUOcBPAwhN5ONC9ShEhPzErncWxM6DvrBYnNm0RIThAVvfwpCjqurs6b9pIiRjNq52XtdS3Oa9jjzKJxYX3ajfdmYbo3GRCZUY2Xlfq3eEnWtSd+PlpX6O8WC1NE4FsRVcM+6OYn7dqawtdFpKdF59g1J+NHpLFYimiVI7eoiuz9nKiuO35fL57Term783QV04XiZqPdzZuGb7f/cXJ8GJ24Fg3sC5tvVLZOUqic8CXzfdOcD1ttYgAdH/GXGMTXrr/R5GiaqpyoLNmNaIV8u8lOUgDwyyFOAgAAABg7xEkAD0kYnPjeF88/u54BcRft1lffP2V9bvqE5y3/ayv5yLebhMGp73/1o0mvR3IZtE/81lki5Opgq7q2VyyWiubhvgzb3/zW+fANDT8uZvh2M4Tn7XbGFqk7rJbvZ9aBAMADgDgJAAAAYOwQJwHAeMSP7b9dCAQA8MMQJwEAAACMHeIkABiL5GP7AQB+IsRJAAAAAGOHOAkAxuKi1divNeNH9QMA/DyIkwAAAADGDnESAAAAPCaIkwAAAADGDnESAAAAPCaIkwAAAADGDnESAAAAPCaIkwAAAADGDnESAAAAPCaIkwAAAADGDnESAAAAPCaIkwAAAADGDnESAAAAPCaIkwAAAADGDnESAAAAPCaIkwAAAADG7p/9s3+2srJyAAAAAPAo/NN/+k8RJwEAAACM15/+9CcBAAAA4LGYmJj4F//iX8RfdO4V4iQAAACAGP3WZVnW/w4AAADwKNDvNv/1f/1fx1907hXiJAAAAIDY+L5yAQAAAPx8iJMAAAAAxg5xEgAAADwmiJMAAAAAxg5xEgAAADwmiJMAAAAAxg5xEgAAADwmiJMAAAAAxg5xEgAAADwmiJMAAAAAxg5xEgAAADwmiJMAAAAAxg5xEgAAADwmiJMAAAAAxg5xEgAAADwmiJMAAAAAxg5xEgAAADwmiJMAAAAAxg5xEgAAADwmiJMAAAAAxu53iZPC85bvef63VhDGf/k1LsP2ie999du/eD8AAABgMMRJAAAAAGP34OOksLVvm08lQnc0kpcKK3b9LH7757ls1d8a6mRnR3KiPF+sfgnid+9JfU0kqu1dxi9vL3SXiTBrNe++hmu+2ioRi5/iVwAAAA8c/b804iQAAACA8RrfV677EDY3NDFHpPlSZa/hffX9Lw33fbEwJZDZYv08XuinCJuvVUJk/bVTP/a8L836B9uYI8KkVj2Jl7gX3pZpvnJb8as7QJwEAAB/6xAnAQAAAIzdQ46Tws9lhQjyaq2dDkfCL2U1T9S3Xvz6J7isF6cEab2eGuF2UtXygvy6Gb98EBAnAQDA3zrESQAAAABjd+evXMGnsrFsNy7il1dXLfelYW7FEU/7qFJaLCizsqJqxstq83v0Zyb8VrNXNVWR5bmC8cppdjoZBYdlY63a+FTWVUV9XqqdBrVVSZg03AG9kIL6Rqm850fhTvO9aWzUm5uGqiiFVce/ZAPTGpsl/akiz9JVmfbHeMmrS99ZM0q7fvSKOa4Yy1aN7154aBur1cZnp7SgKrNKYbFUPWrzheh7NXNCkNbScdJVu7lbdQ57fYlanyrFBX7UT/XSZqObgqX28P/23/w3/3fD3ExmYWFjwzRe1+jGvE3TeNntnRS2DuxiVIx0hVvNzt4MLUP6TjJOYmt73/APbHOeFUVhxW58vwq+OKVFdoDqQsn9Gh8QW3Kj7u1ZBi00es7W7PpJ51gRJwEAwG8FcRIAAADA2N35K1d7WyNEd7tzB116LHVYr7Pf6a95UV2rOB9r7nZZnyHkWYWlPFdXoVfRJgXxadHedd2dsjFHiGo1+EraOzqZkOVpubBk6gtWPWiUpgSy1NvCMLVVIszQD6r6iqGtu+2rlrMkCXnFeFt19xx7rSDmRO29x9KRy0ZphiiJ/kThR5OQQoUPWAt2dUIkaUrW3zq1fae8JBOilA6j7Qf1NVnIiepq2TnwWoP2qbVrSDlRWSlXP7jORlGdJKxfFX8rvYf/n4NXMpku9qKpwDUnSWGDhVzJuZP8bZ2uUF2znT23+kane6O+adIPZZRhX5xE1yZMy/KsVnrvVOkuTdBPaYVZ1XxbrW6WtGmBqOVoW2zJSUma1qydWm2vYqp0h003CgERJwEAwG8FcRIAAADA2I0jTmptamTCrHU6LgWHtrle4XlH21kUiVpmoUjkzDEmifqOJSksThKIttXpmvPdoa+T0c/VVRictVqnnZ+z+OFqLKzJqeUv8UrDg6KUk8y9XleexitFmNCdsxHiJLoDm50duGxV5lkQFr8OffelJudpgfF5uJ/oxXdOr9dVUDOnBHm93i2P4KAoE7l0xPaqbw+vvpQVIhUP4pfBB0PMa9VT9nsvTrpgw+vkte4K2VGQmVIjzCpDulh/nES32+kI1XglCzm5eBCvkp9BrconNWdL0pV29/C7S9epvOGfRJwEAAC/FcRJAAAAAGM39CvXZRict9vf+c95EPJ4IikjTgoPS3KOyPNFe6fWPO3GHldXF64xIcjrrtfTsJ8RMl9tRXESKdjf4mWvvlc1kp6ZiAdMPXmzxveKhTWJ2YJYaDKV6PtDeWU1R4y9cITeSbqTGJfX2tJIXneSo+2CVvNj1X5haIrI9mWyUD7mRXBYknKisR0fFfO5ok8IUSLTt4dXV779lIirNf7JtrNAxEUnSr96cdKxJeek4iH/ayT6eGYZDoiTEtttvS+QvOF2xyfumyI9dl7gbLtP7cQgwMBdIuQpj9IQJwEAwG+F/v8ZcRIAAADAeA39yvXZUnIstOFE8yD+c1fWYLerwNspabMi/yyRVMP6wGcvOq0UknlQl8KGXPE4KZHdhKx7Tmqw22XbO2w02E+9uiIn46REFBLWVojQ96x9lkPxfk83xklTxXrig+Gewd7tJlxp7eOKPiMIfLxY8MEYeGRRgaT3kGFBVTQt1GlVy4vGXnyU3Tgp3DdJomNRT2YZXo+TyBM7GmZI8TgpLjTmIB0npccVNl5I8XoQJwEAwG+F/l8RcRIAAADAeA39ynXu1XYdJ/5xG3xIVFIUJ/XSn8umpcTpSUcYfG24W2XzqcTGWH0Ko1in8N4P06J+N/1x0lXgLotsKu5Ed6Gu5mtlSJx0VV9PdclhTioFuurd4HqcFHzggVE3Tpowa4luTfFwsO903wx5So/GoyV5b1WBGG4QpT+KdRwfUUfcpeh6nMSKYkI0dtutzQLLsDo9hrpx0tWnopSTreP470wYtM9vKMPBcRJ/g7ohTlqIe0hxYW2lE0UhTgIAgN8K4iQAAACAsbvzVy4+NCwOYpjvjp6P4yRvy9TXnM4URFdX53ECcnXpleeEVGxx6VdXdXOjEQ6Ik67CY0shgrzsdB7M1nHZdlekYXESX49qJ/r1sFQop5S/8MxrNvWANhZLJeOknGzx2Y44lmfFk1WzvlpEfd2bsIgL2G7MlBp0AZ5YRdNpx87c0qJh7bNjHRAnsc+K4mLZekrkF+zwI7046ayq5XmhdbRZgWvVk6wy/JE4SZgyo9F3zAXL3eIdQ5wEAAC/FcRJAAAAAGN3969cX8pKTlBWneZpu+XV7EVZ7MRJ7T1Dykn6+0YrCMOg1XiniYT13KFvtXZ09py11zX/PAy/e7WXBbEzbfb1OOnqKvS2dCkniHN66b1TO2w0PtWcjZKuiIJAlJU4seoPa4J6aZaQJyX3S5tu3t8va1OCuBgtHPV40soHfvvMb+wU1SmS6p1E1ztnOp/bwXmrvsEerKbvRhtp11bZk92UJau6V28cNxv7TnlFZceyFW05YAvk1eKu174Ig2/18nNJmNCqfM2D4iQ+ZTjdeE6xPsd/oXpxEj2MdTna1eAiaB1VjVkiLbu0pDLK8IfiJEGQlyqN0yA4bVRXZJIvVL7yxRAnAQDAbwVxEgAAAMDY/cBXrqDxTo+fdEYk7U2tstSdO6ndeNt5i745pRZ3+HP6maC5aaqT8VvCpGpueVGfmEFxEtM+qlpLqtSdMIiIyvNS5VOr26PnelgTfnNL851PEKmwVo23QX1zi2o0qZMgzpnVXUvJJ+IkUjBf6nL0Sbpvm83edEKXrfo7Q53qTVwkKlppp7fiqwvfWS9091NUDPso7kI0ME66ChslNvVSapqnRJxEF0isMCcqy5XO3gwtwx+KkxSjtKxEWxMVvfyp0/8JcRIAAPxW6P/IECcBAAAAjNePfuW6aPtf/XYvU0kIg9Y33z9pX38q3NVl0KZvfWsF198aJgzaJ/wj3RjpJuH3lv+11e4+yKwnDE75jsUvYzxO4k92C1rDN8Q/6/mts4HHzAqk9dX3T0ffzZsErIRb36+t7w5lOFwcPF1ehWcDSgYAAOA3gjgJAAAAYOzG95Xrt9OLk/729PVjAgAA+H0hTgIAAAAYO8RJXYiTECcBAMAjgDgJAAAAYOwQJ/WcNmv7zd6cTH9L2l/qtaP+B+gBAAD8jhAnAQAAAIwd4iQAAAB4TBAnAQAAAIwd4iQAAAB4TBAnAQAAAIwd4iQAAAB4TBAnAQAAAIwd4iQAAAB4TBAnAQAAAIwd4iQAAAB4TBAnAQAAAIwd4iQAAAB4TBAnAQAAAIwd4iQAAAB4TBAnAQAAAIwd4iQAAAB4TBAnAQAAAIwd4iQAAAB4TBAnAQAAAIwd4iQAAAB4TBAnAQAAAIwd4iQAAAB4TBAnAQAAAIwd4iQAAAB4TBAnAQAAAIwd4iQAAAB4TBAnAQAAAIwd4iQAAAB4TBAnAQAAAIwd/cr1T/7JP/lnAAAAAI8C4iQAAACAsaNfuf70pz/Rb10AAAAAjwDiJAAAAICxG99XLgAAAICfD3ESAAAAwNghTgIAAIDHBHESAAAAwNghTgIAAIDHBHESAAAAwNghTgIAAIDHBHESAAAAwNghTgIAAIDHBHESAAAAwNghTgIAAIDHBHESAAAAwNghTgIAAIDHBHESAAAAwNghTgIAAIDHBHESAAAAwNghTgIAAIDHBHESAAAAwNghTgIAAIDHBHESAAAAwNghTgIAAIDHBHESAAAAwNghTgIAAIDHBHESAAAAwNghTgIAAIDHBHESAAAAwNghTgIAAIDHBHESAAAAwNghTgIAAIDHBHESAAAAwNghTgIAAIDHBHESAAAAwNghTgIAAIDHBHESAAAAwNghTgIAAIDHBHESAAAAwNghTgIAAIDHBHESAAAAwNghTgIAAIDHBHESAAAAwNj9LcZJl/znR4RB66vnffXbQfyHh+7c907S+xq26SH431pBGP8BHr7gzPc9v3X2wKpddEH9+GUFIwhOPP88/v0ucLLgbwPiJAAAAICxu5+vXF9tlYjFT+zXYFcnRKue8b8P1z523C/x760tjRDV/hq/7Gq8koW8UbvHvOOwJOXoEXcRcVrVXzreyM3zwHOtJVUi8eeFnCjPF6vHP7l5H7rLRJi1mgMbhJceOxnr9fglFXr2M8Xc7+zk90ZltSDl4yMQ8lJhtdL4Hr9JJU9Nv2+VAiHmx8cUQd2yMIdo7+gkp5a9+GVXug4H3p7b6FaWC7+2W2/HL7KF/p6lK2J8ygRBVHTrg3+/p6G9TS9D3R2hLvdfvPFOdeSIOMMvq4t4mQfkFmX+gCQLPNg3lWe2d4dzf9koTcenqItMSMq8aR+OrUjoRmeI8roZvQpPG86+H/0OMFa0eiNOAgAAABiv+/nKlYiTwiPbXCnXs//9/LRKW67dVOLnxkmk8LLq7Dj0p7pVsV9oMhHERacVL5ElOLTUvEBmdWur1vB8/6vX+GCbqijk1fLx/Tbts90uAfE3Nel5NT7AS7/yTBSmCiV6CJ8973OjtllUJwXypBw3UNOnpt/3mrViVo7jV4/Cz4uTwj0jmbQ2Xki01nsjdBIJDopyjijLtvup6X3xmgdOeVEmOcncu88UYNQ46frFm1PMrVr9oM5/arU9x14riDlBWq395Jz1RqOX+QPSf0m2KvOStnn7UIbHSWS+XIvPVL2+X3M3LX2WCPmCfa3q3o9knHTpleeI9LLB3wAYL8RJAAAAAGM3ylcub0NTFipZzZdEnDSSk1Qnl58bJ4nmQfwq4r1VBVKofItfDhXUizMCUa1GX1IWNEoKbaR18pqf4TYJyHnNnJbM/U4hfikrOdH4kGrmtz8YYk4qHvBl0qfmb8DPi5OCD6k4qb4ujhZtBO4SEebKqSVpy5xW26eZV+UtjRonjXTxBrVVScjrTqLX20Mwcpk/JNcuyWDflKbNW2d1UZy0Wotfdn21C0SQX8UdiO5ZKk5qlhXESfCTIE4CAAAAGLtRvnI1Xys3tMGSvZMObWM57p0UntTtNU1VZFlRtRXL+cIbQCduaUFhnRee6sarWnvEOOnCd9+YmirLs4q6ULQ/Jkb6XLab2yXjmcLeel60D1rxW5e+s26U9xvOWkFRCsb7ZjgoTuKj86Ktt9yXhvGuNxqJ8rZN44XbivMCuXTY22xX62O5tFFv8fJpvjeNjXpz01DpJlcdn/7xstXYLOlPo90zk3vefG8Yr1kJxM7r5WXDPmLvs2JcrTY+O6UFVZlVCoul6lF3wf4EpFvOyjOzvF8rJxIQVrbTxXp3k8eWnBON3XSvlgvP3XLq38Lrp6b/cE5r1rIR9U6K9rD5tVZeLiizdNOGtZMcNRg0dyx6UpRZVVu168eutVxyT+L30oYu+dAKM8ONcVJ739KfSEJOUheM4s5/aGwYhRkiTCjaolH5nL2HbWeBCHNWs3uoXOuwWv3Q7C7U+lQpLvAT8VQvbTbancMJDsvGWrXxqayrtMT+y43/yjTWnWQIRXfMWLZppe+Lk8JvNXuVX7xzBeOV04xS1JEv3r6UdvDauESBG+WPXn3DMLd4OdLrd80o7SZ29rhiLFu1TkQ1fJ1xjZJn6Dr14vvo2gz7yrzPgMo2vFSp9lG1tEjfUtRFemdrVFfjyhZ8KrPy7A30Y3eV+Ii4oesceIu7VuBMWC9OE217UIJ92aysGMZGI11ZuGFx0kXNyAviaq+S324PqVN6zZrVxAhZf7tovOBdPrtx0qVXXdUU1ruzoNP/Qdw2CwO4JcRJAAAAAGN373FSb+6ksGEpRJovVT/UanvV0rwkTOoO/ft5031ryDmirlWqeyyAGCFOYp0dyIxe3nZrH93Kmirm5OJB1CJp19cVkpf111V3z6281CQi6du8CXrZtGaJNCtLc7q5rJm09XUtTgq+1UpPiPi8GrVZvbeKMGG43XZp2P2n9YCFDlPFQa20lNoqEWZkeVrVVwxt3W1ftZwlScgrxlu6e9EgIFF7Hw0sC2srhDyr9BqFZ2xUS9R1iBejJE3J+luntu+Ul2RClNJhdMjpBOTMNWgrcc4obzvORrEwRQhtHMYJSKsyT8SVRAevsGnNsRa18bpaO24Ffef02qnpP5zE3ElsD/MybbFrL+3qdsVa4MOvPsZ72Hyr0peFFxVnt1peVsRJke5/ecCUTFlLPrDCzMLjJMU6agfnQeKHVs64DoderbKqCjnFfFd1jtr+QbX0jAjTurVZrZ9k7+FVe9cQc/RSKtofGt7ZgCrY2jVoxVZWytUPLt1tdZLIq3H0wHZsgpahXFgy9QXrv9szpdSJaFWfE7Lg0IWTcVLoVbRJQXxatHddd6dszNEL1GI564gX71mtqAi0VKPrZeja2JKuOS2Iqlmhd4ntkjZNC6FT4MmOLVz40SSkUOFRY8Y6W9u6SCvJO1qSNeedoeTZSuiO9JV5n2uVLatUg08lhRB5qex8rDlvdHlKkjqVrS+V6+vgNnydQ25x1wqco7VdHNwj8rJuTgpk2R1QSwbHSaH3XqO1S9+Ojuz2e0hd653aeMlqGbumeiex1di2NHpy50uV7VriXwMAxgJxEgAAAMDYDf/K1a5vlIrrRfpjqKIwqRr89+KLSv9oL2pgnPSlrBC5dMQXoM5q1mrJif6R/raD3S7rxSmivuv0U7j0nRemtcdfHlts9Favu03Iwq8pPhKExUm0TVvq9RSIpuImHXxabjJjuqfx+1ffbLpj+k68tvBTkU+1Qn/17SeEPE2kFfTd7+3WaSv+OWtHj0hjjdKcWv4SH1p4UJRSc9yEjVeKMMFjtRsTEIFom503L1kw1Fk4lYDQ4xUmDbfbZYMVSKdBHrhGnhTep1udp/XyohIdu5CX1OdmebvR6dDVf2r6Dic5FXe8h90uEhf14rQgRds9c/Q8Ud925wvmQ59yg+KkzCUfVmFmYqkNL9EBOj3sguGD3TL3kAq8bZZtResTZwvGC9vtZgtBzZwS5PVehw821xK79NhW+Y4Rbauzpl5CyrHTLRp77KOJHKTtLNJ9K/f6Q505xmTnArx+8eZE5bluLBn8R9fnVTkvCJOFchyHZa2tv8A/Jwo8K07KWCcbG0ieVzu1JGxuFovv4um3Mwa79Vf1rFL1K88Ima9EHRIp/71GC/nmOCljnRm3uGuD3ajW+wKZMNxbTXbO4yRhpqDHZ8owFrWCItI9l5fj3lh33MOR4iT6Owa7wc9Db5WIkwAAAADGa/hXrra7rmnz7EedIUJeVvnv2vNSd7BJz8A46dw1JtnE1aUNp/6lnWoMpRtI7Zt7J7E+FKxPzauKe+gn18XH1Gj2sdeza0o5qXjIWi/WrCCuJvrm8Km41fVKZZP/vLfLLw11SiCK6caNfN5ZI26L8n+Nj5r0l779pG+qGhYw8dY9l4uDM9YoTYycYocwlRhrRnllNUeMPfqnGzvUpKaeYe32vO6wLC+ZgPj2U0KWeq1XPqtOp/nKzkt/QzQSnjZrO7a1qqk8pCBqqR5t63qclDic/jip01WE8yt0T3hPqPCj0XdCw8NiulNMLHvJh1WYmXjvJNl479Y+1hI/rr0ojRonDd3DjsvAP3Qrb4rGM1nM0Son6Vs8huN97oztuPoznyv6hKC8YTko2zFSsBNTgzVfyWS2FPUb8jcKhBYpTyV6OciFa0wI8robr41p2CxA4d1hBsVJ6oJhrpjGkqZM0sokGxt1v1uIWWu7XuDssro5TsrcQ3pPIDlJXS1XPzZ7u8HdECclq3pGqZ6zDLTQzf6oRGXLipOyztTQW9zAOIkXxYB7ZpZOnGSsmOaKoT+V6ZUvPi05x4mt3W0PESfBw0P/v4Y4CQAAAGC8RvnKdcfBbvT344r5TI47AU0XzLe1uBdMX5xEG2AD5515QZviZpwGndbLy50n9E/I2lr8bPv6usT/1Ic37fhgNzk5xSxvLPXNnRR+tQt5QXoRj2Nr7+oi0ViTlcVhRIvHgPDpkFNZRtj63Ggcsp/6hi4m4iTy1O6kTizjEPqK7rvDCoj1FrkpAaGbS3yQPxcsmowmkYBcNqwZtvPRMlzgLHSar6yvR6qZN8Bl4O2aChHkl7wErsVJicO5HiclE5AW67LB4yQWMaTDEZb7DIqTspd8WIWZicdJd5+KO3MPBwjp5TAvCnmtespXG1f7lGi3eZyUjqVYCfNZwHhYJndrfjcHOaVnOV5JisKnA78eJyVzjfOG9YReKXr1a7xA1tpCHvimijdwFkeIk7L3MPTdV7oyyZdgPadK1c9xupMdJyWrelap8qsgqlqxy3px8uY4KftMDbvFDYyTrj4VxZxiXZsBKguPkxKD3UJ/x2Dx+stEX6S77SHiJHh4aCVFnAQAAAAwXqN85bpznBQJv3uNDxVrSRFzJOox0ddACvdN9mSxT+n2Em9YCjOJ/gLURcs7cOwXupwX2GAT1m7hPVYuwjS+8GhxEmtUzyUezRbUzElSeO+z551N9JIO3gtDvraTHGvaDYyTWPM11eWB4seu79IWHE9Akj2e+Fu9BGSiE6VxvJmqVdn+JBMQtvOpHlhXrep8p0HOn+PWe6wb3eK6LD29firZR+IsJn1q7hYnBSw3SfWIuToqyYPipOwlH1ZhZrqHOGnYHnoVbVoy+Xi0FF6Z6UVHLx82bdNxXPU76OGwpQbESbxPkLRWDz7T1n0vkujlIDyko5dAvKaOaIV9NaQ/TqK+VbVJ9gzEZjQUK2ttfAzpcuq4q8+Hxkm8AHmclL2HkcugdVyrvi1qM6Q7nm70OCmrVKMQszPZEHNRM/OpOKlX4PQupMRxTPaZil27xfUVeITfMwfUtyz9cRIV1F8orJvbbnzzu+MeRvf/xH21viYKiJPgl0KcBAAAADB244uTwiPbWLBqvXYsH9iy6LAm12mFNrmMbgOJtZeEbi+J2Hc2Vk6MBsJ8r1lLepnPBRNp0lb6hFm/ZC1M9q/0ibeCA0tfKrnfWOtlpDjppKqxBxt127RhfV0i82V7SRRXEg/jDurFGYEoxVoiKePC1iZLmgbGSbwxT8sufkmx1mZnbqD6Km109fIRPjdQIgHJyYnjCtxl2hKOnhafHJ8V1tckNj9Ud0E+xjBukF9r9/rvCywUi2cx77holGaFeMbu9Km5W5x0dUqLNDET0FXYfEVbrQPipOwlH1ZhZrpTnCR19iFzDy/qxSnWbu+bvbiX4/C4obDRO0tXZ25p0bD22XkfFCfxz06b5Rf0uo53gOrFSVHAyufnjl361VXdjJ4Xlq4hA+IkWs222OzOKp8AO3NtYeOFLMzEo+0YFuZ2CpwPVpXWej0C2URLUZyUtU7ffaEbm70zwZMX2eKPI0yWeZ/+qp5RqnTr9H63xKbrjoRHJTlZ2aKdjNBrsDube8Y6h9/i+u+WXH9oNYoBcRLdXXbtC1MGn4DsrnvIbws81Y2wca+D4iR61ki69x/AuCBOAgAAABi7kb5yhWF4kWrM9BvYO4nFNERZdZpn9POBv2+p+U5D5dzRaXNjzakfR6PfgtqqLOTEwprtHDQaR43ajm2qopBXrWP+Pm+/kScl12uHl2Hbc4sKEaPG5EXDmiNEMavHrSAMWkcVY0YgT8psUpnBcRIpvKhWt+OfStR5IV+wu1PwRo1DQkheKh6kjjo4LhcmadNLNV5XXbaf9dp2uTjPpyB5Uqrz9lh/ozSol2b5nn9p80Ios2cbLfJHaNOmOMuhJP19o3XW9g8r5pxIko1SQSBzpvO5HZy36hu6lBM7nQiSCcjVlWcXaDmvVJunQXDSqCzK9Jx2GuSs3FLtt4AVl5CX9ZcVegjN40Z91y4+lWhRx5MQp0/NHeMkupmXCskr5oZbP6w7rzU2QGZgnJS55MMqTLr5t/wp+9GSaaPESeEByzWMzXrjK9sr1hqf1Oz9hvc9ew/Zo8qkHK1jZnmn1jhuNg9r1desb4i0EiUa/PLJq8Vdr30RBt/q5eeSMKFVeaIxME5iGccEm4y+8L5Xur04iW5xR2dPzXtd88/D8LtXe1kQu5Ogp2vIwDjp6pJNVi2QuFJlre1bRZsg8lKlQQv8tL/A3WWRFlH5wG+f+Y2dojrFdjlKaoavk0dU/FNBeBWeNatLsjDN5+ZPl3mf/sqWXaofDCknaW/r/nnQ/uywwaKdqbh5l0CB3fdO2y2vZi/KYu/hgMPXmXGL679bUmFjWC526VVWjTj46zMwTqL7dFCUc4K0fFNdytjDsFGka2ZvtdonTfeVJuUHxUnRvyg8tdxDr3skAGOCOAkAAABg7O7nK9eQwW6tj6XCNG1ocXlJe+l2WhEtd5WlMMJkZzaiaLqTiWhRioiqYR/yBg4XfnWKT8T4zRyRF8pRfMOc1KznfG0MkZ9btehJbYPjpHi5CJmSC0tWd2qVGPtXdEGYSfRS6QhP6pV1nc03HCOSqlvbjXanXXetUXoVfnNL8/F8I3Txwlq1+0iuqwuvuqywaZWpqULpQ7U4lerjYL7U4wObVM3NZudz6QSENm4PyvosXy5HlBXbSozP8t4oZC7d7PzeqKwW2LO3IrQwnxUrx919Sp2au8ZJtAxbtTeGOi2SvKgsWO6myTvbRO+lDV/ygRUmG4fFakWyMDtGiZOuzuslldVhsshCm/DYZumkQArvW5l7SIX+nqXPdeo//cykor9OPG39wnfWC51yEUTFsI/ia2dwnHQV1FbiqZe6knESXaC5aardek73Z6tb0qkaMjhOolgwJ9DTx2cLz1jbVXBkJwq8ZCiJ0YXf3CIvMUqcM6u7lpLvdvwZvs6gWenWBPZBo1u9k2Ue/aXremXLKFW6DW/LjO9XLJw11c7ISvpW4x0L+xgiaW9qlaXEEQ1f5/Bb3LW7JbtBdQYO97msmRNCanbzriFxEj3z/HGKkvmR78ld9vCqvW91njxI5CXbfacNmDuJdVvT2Zpzt5z1CeD2aF1EnAQAAAAwXuP7yhW7DNsnvv+1lX60GxMGQdD3oGu+sOf5re/XluaCM7oqv3U+4N3wvMXeGvLB24laa4lJW/pdhsEZ3VyrPWhPBgq/8+UHPdib7fm3VpBeUy+sCQa8O0BUztcP/1ulkB/UeLsM+HkZUpjXT82thG3/WztIxC5BepxXz+hLJvyywgxr5tPBQ6VGF5wHvR2gFek8CC9H3UN+4L5/0qYfGeCi3aLvnt58fKOileSbz/bn2ubuUkOGr42uj71FCzz5HLRYGJzyQ45fpmXtIS+rs2u5SqfMR5VRqiF7q023kJj3PXbRpltnbw00fJ3DbnGpAv9sKXn+uIDxuf0exufixjvwRTD6bRPgzhAnAQAAAIzd2OOk31B7z5TzQx+q9XP08oUfFdTXZHmt9/Cmn4HNF0MK73jHFCr0K8+7cxWljb7kD7inwgy9Da3whs8HdN/u73T/5gbESb+D63HSGPErev3nXtEAvxvESQAAAABjhzgpKTwoypMiEYjysvFrW2v3mS+cOcbMT07HgsYbVcyJ8jPdWNLUGSJMaXZvPF3S6Eve3X0VZnDij6lWIE6KIU660bdKYaYzczYADIE4CQAAAGDsECelnDedDbvyodmdC+mXOW3W9pv3NWFt+7BaOeifLGbc2l9qznu7/Nau7Nb9zEdQjb7kHd1rYY7Fw9/DnyT0D2v1L90pin4TYau5X2v+lIindVCpJiaVA4CBECcBAAAAjB3iJAAAAHhMECcBAAAAjB3iJAAAAHhMECcBAAAAjB3ipPsVfudPphvt0UXBidc3tos9NYl+/PrjqOAhuAxaXz0v/Si6B+iB1iJaaN0fGLdz3zv5gQqAkwW/OcRJAAAAAGP3q+OkwNtzu7Net7Y0QlT7a/zyDuprIl1B/FywC7+2W7/DLCPhR5OQQvwc7stGaVogqzX+Iht78peUoyUqiKv1m/OkE0ef1Z3T6EXo71m6IrIPc6KiWx/8xEpSBdWHT+R8w8P1H4fwtOHs+9Hv93LUt6hyZ7WiQti5IQX7rvOat3d0klPLXvyyq/FKFvJGLT7f6XN9i2p8Yy26B+1tWmK6O0JS0T523C/x76yc453qyBFxRtVfOl73+fcPx11vHb9W8uq4OuW3l+gmdjuhu9x/rgQiSnNacav5AwFVtrC2QsizSjTBW+pAAO6EVlvESQAAAADjNb6vXKMI94xkIvDjcZK3ZZqv3KhN0ngh9aKl27hjnBTWi5OCtFhpfvVb329swrfdJUl9G+cKwUFRzhFl2XY/Nb0vXvPAKS/KJCeZe3GTtq+g+oRHtrlSro9jEusH5dIrzxHpZSN6dS9HPXqVa70v0CVL+57/rXXnRvUocVLfuR69Gt9Yi+7FqHHSKXvYmfkxvhBYOecUc6tWP6jzn1ptz7HXCmJOkFZrYwsp7ujOt45fKX11UN4bVVpyb3/ueZw0Zdj70ZliJ8vdrZTmJSEn6ttjmtE/ESddOxCAO0CcBAAAADB2o3zl8jY0ZaEyjn8sDj7cc5yUVF9P9FS6jTvGSYHLDmZrpOZbeGQpE90HwwfuEhHmyqldpW0qVSBP42LvK6i/UZfNsnLP7czRq1zzjUKmS40fixhGiZP6zvXI1fjmWnQvRo2TTiqFvjhpQDkHtVVJyHcvhIfizreOX+n61XHm6BOKdXxjtN2Hx0mzVrPv8MOmpdC6ZI+n11AyTrr/yxz+BiFOAgAAABi7Ub5yNV8rNzeuLnz3jampijxXMN7UmvtlY7Xa/UjrU6W4UFBmZeWpXtpsRI/hb+9b+hNJyEnqglHcYY2UVJvzrGYtl9wvnvPKKMzJsqqZb1yfjYsJm5umse4kWzV0Vcay3QiuPPrWS7d1FTY2jMIMESYUbdGofOYLXbab2yXjmSLPKurzon2QfCx70Nyx6FuKouovqo1t2p4fGCf5zrpR3vcbWyX9iSIrqrZm16PRascVY0GVcoKk6sayVWPN49Dft4vP1eioi+/rrV4BBu6yKC53m+RtZ4EIc1Yz3e5rHVarH5rt6wUVlcxRrTSvKE/08mEQHtrGctxPh5XARsP/ZJts04q6UKoc9RKu8KRur7GzRHfJ2vXq79nCg5ubgee8pidUlmdVbaXsfu0sNfS8xALPLa+yTbCa8Mrx+EEGh2Vjrdr4VNZVWvilv/9om0tFJzlk7LxeXjbto5Ady2q18dkpLbD9LyyWqtH+X3rVVU3JC2S2oNODDa6SR02x7a50tvuy2uwkFNEKm19r5WVeA58Z1k60U0yyyg1fsuW+NDSFCHm5sGiYWzwN+t6sRiXAysdyvtyYrzA3xknpc/0f+qsxL3znuFGJTmLqWG6oRZHwW81OnJ1mt/TSJ+jDf0vL1qol48sTp7RkVr6EfXHS4BWeuKUFhfU8eqobr2p068NiO++tKtBrrVMThu0eQ+8wb6M7jGZu1L2PlvHC4emD76wZpd3E/YBejPE1yGSss31UKS3yc61qnToz6NaR0FdQNX75D7y/RdpHVb4JRV2klaRRXTVoJWdvnLrWslntDAak/O1ifETc0HXGd1pa8ejVXbQ/8sGM164OLnCXRHFlYOevoPHWSN6iE4bESVft6vPU34cfdXw7lWdoFU3c+rIOuRMnDT4QgFtDnAQAAAAwdvcTJ136leeiMKGa76rOjl18IoqTojBVrPOPtHYNKScqK+XqB9fZKKqTRF5lLczQq1VWVSGnsE/xyCDV5vxWKRBRnpWUJauyXbVfFKScIL9i2Uewb0pEKfeaJS3aziELDl1Fd+4k/6BaekaEad3arNZZMNSuryskL+uvq+6eW3mpSUTSt6MmaNh8o5KcpL2oOLtVa1ER84Q1ca/HSZdNa5ZIs7L0xCxvVqvvTHVSIE9snx7mSb26Yao5QVmxq9s1Lwi995qYE9U129lznbemMiFIS07crDp3jQmibXfb+FftXUPMEWm+aH9oeGfpPOB6QX21VSKxkpk3jAXd/pyaRYiWgDAjyzOF4rtqdatszNGGcWeGpjPXoMeiGOVtx3lf0qZFcUIgS4M6mlw0y08ImdZKm467V7UWZDJRsL/wHRt+Xqjwi12gRzpfqnxw3c2SNiWI8xVaPixGmZDlabmwZOoLVv1/c41JQXnTi1VYSMG7a/FjkaQpWX/r1Pad8pJMiFI6pPvYamxbfIWlynaNtqGTRx0cWWqeb3fXdbcsfZZ+qBgFCmyxPC0QWXtJT02FHUtOMj/GB52scsOXDJq0EJ5LwiQtkKpz2Lr6zuZRIrO6teVG44BIXrWObm778jhJsY7awXmQ+KGVM46T+s51fzVmhU+kKXo12e5+zXmtSTlSeOdFhZ9di6jQq2iTgvi0aNNS2mF1g6hWNElT/wn6Xx09T7TNbrhx5b1TyZRZu0j1Thq6wvOm+9aQc0Rdq1T3WOA1OE5i01EJwqwV1Z6M3aN3mCq9w0wWSltuba9SfCJJ0yK9B7Bog16hM0R53eTLMcnehVnr9Gw1T6/QivOx5m6X9RkWZ9C6eu3WkdJfUBdD729U8KlEq4m8VKabcN7o8pQkEWJ84JtnV7FY/MSX4xov2V0tCmuGr5P15yIzennbrX10K2uqmJOLB6yA+66OCL+sjEFXeOAsEjJVHNTbbnCcFF9inZGJGUfd2tbFvGK8o9dvzXlnKHl2dtgeZR1yt3fS4AMBuC3ESQAAAABjN/wrV7u+USquF+mPodKGnGrw34svKo1klwGO5Ts5ufSp02q5aFhzQhwnBTVzSpDXe//MzGZ4IXKJ/xN9kDHYjbWcBWml2xRKjOUJ0w1INqxGNPbYgsmpuFMjVo4tJScau90EJ2QZGW0e0w99d/QJor7p9upoO4vi8DiJtn5LjU5nnNYmbd1rlSisCVwWb0QhEVunoLzsdfwJPtIiksx9fjSHJdqKslIdHwJvu1iYimfAFWcLxgvb7fWhSRcUa5UJic5N1+Ikdtj8DepzWcnFLdjmK1mYMtxur42vNi3hgXGSv1Egea3bZ4TFhc8IeV5lx5ZxXqKiS3SQYUedV8tfeCNcINpWN54I2SinXpO1RdcfdaNgx0KX7AYZl63K/OBRMImj5rv3xI5jFeq0qk8K8iu2I/EKu3O+XNSL04K0Xo9e9cdJw5dkFWYmHuxGfxcmtGo3awg9+ynbgRvHAfFyGGKUwW5R4S93J8ThSeiE4caXZHYtYmeHqOVe96Uzx5gk6ju219dOEOtA1xslx6ezkV+w+pyIk7JWOGCwW05UnuvGksF/dH1elfOCMFkos6yQylpbeFCkd5hi9w4T1IszgnBznJS1ztamRiZYQBYJDm1zvRIlTRmD3foLKuv+xqvlfKXbLdF/r9HP3hwnZazzsl6c6pQwdek7L0xrj78cOEbss0X/VjqMX42Gx0m8I158shZ17aks5gRRLcYd1rKOmt0Q4nsFEzY3i8V3fF7zkeKkIQcCcEv0Hog4CQAAAGC8hn/larvrmjbPftQZ1rpQ+e/a81J3FElX44UkzFjJf+j23igkipMOS1JONLa9ns8VFrXwninBDXES0Xe7DRaWhvTa8/T32VKU1rDsg26LNwuHxUl8TI1mH8e7wOyyfKd4eBXum2Iu2deJzYUsDo+TxLXEU9sOTLaNaIcTcdL1dUbrkV6wNhJvkPeOuucy8A/dypui8Yw13oScpG/FCUmqoFirjOg7vZLpj5OURM+CcyfeKzaNDhFXo8gi0qrOk0FxEhvVQp5Y9bikmNpLRcjzbg4Z5yWsmZ0z24c1wtMPRAsPS91UkR+RVDxgv/NjSU2mw2pFXnfO+9uZvaP+zo8x0ZWGrt5dFgWVhVx8sc7ZZPzKU0JW4nLoj5OGL5mIk3z7SX+5tdl6Bp3TNFYOOdl479Y+1hI/rr0ojRwnieZ+tEfcF1okYlR0sWG16MI1JgR53Y3PKNOwWd5RpQU34ASxPoCdun1syUSxjtmvvTgpc4UD4yR1wTBXTGNJUyYFgcjGRt3vFmLm2ngSWkw+LrHxku7RTXFS5jpZDcwReb5o79Sap4lV3xgnJQsq4/5GL708KSSr5RmbnvzmOCnrnsl6YgoTivGq4h767eReD0xh+Bb1nU62M5IoTlK0ZZOdrAVVIoIwrZX3vN5wtsy7Or3ZkpykrparH5u980shToKfCHESAAAAwNiN8pXrpsFurPnR1zWDta55nBTQtjHdxjUi7/TB3k20nK/HSeY+/51Ldg+5YtmIXDoMo5Qk6jdBDYuT6utSvOEU1rTj7UOtGj+wn6ON5/ywOInIyXbOp+LAOGlQYMQziGWX7qf/vkCiaGa48LRenheFfLxjqYLirbJkyfTFSalz0d0reiBTrMNO/HeGn7jrcRLrihIXUErURM84L1GsM2gycl7IPBLqooVJG43rLCJg7U+6Bn4K2bFEQWQHf9IZn15nWJxECyTXSy4ibDYiPnM2XyyZT7GeUMPjpKFL9g6T5RdCX3M33DcHTorUh8dJPzAVNy38fDqm5A9QS6Z7SaladEpPXHwmUxQWug04QbwPIH/4YNh4IROezVG9OClzhTdMxX3esJ4QYUqvdufkylxbfVXsm2WcPWjvxjgpew+vAm+npM2K/E9EUg3rQzy46qY4qVdQQcb9jV8pcXgUuawXJ2+Ok7LWSdFzuswjHmpC1tYqjajGDkxh+PMBCu8TkdbNeJyUGOwWfLbZgMFndrPbkyt7D0PffaUrk3wR1iWtVP18wyHTzyBOgvtFax/iJAAAAIDxGuUr101xEg9r0nNt+GymFRYK8GY2e7pQGm0zsMVYsyTRcr5FnHTl20+JtFYPPtOmR2/g2LA4qfGS9264iDffwd7iaUWioUuxwWjD46RXN8dJ/LhSfT14eiKIq6y5xQ8z0XT3Ktq0ZPLBeim8C0DU+koVVBQnHfDfudHiJBYS0R3oNN8p3gtpQO8knnwtOu24lDqiks84L7TtmieFjWSuGLbPArrFAWlFt5IErPXYjQPYsUyYcYTDxdkcbTMPi5N4cpGOVELWS4vXyTHESddLMvpsb0rpYe4hTmJduvjvkagyfAxvrkU87Cu89+Oz2RFdiQNPEDtkxWoG9eI0+2D0x16clLnCG+Ik6ltVmxSIasUhRebauuFgF5vLaUicFPCrj12/2XsYC4OvDXerbD6VBDaeju3w6HFS1v0tSlf5DSF2UTPz6TgpcRWzGsuPKPueGbtoeQeO/UKX8wIbT0f/MjCFiTon9sYwjqI/TqLaHww2RRq93/KXI+3hZdA6rlXfFrUZIkzyMbbDD5muEnES3C/ESQAAAABjdy9xUsBGh6nlaKpm6pJlPfHcSbxVmYoYztzSomHtd2OXu8VJfOFps/yC7luv20I6TpK6b9ENiWwK5M4e0r8cWPpSyaXtf76h3ow5vLNMxlTco8RJvOGUWmf8Fz7yhTbGep+iLurFKdYm7Jt3NpV0/HicxPqYSMJMPCqQYc8RHzh3UsjywWhiqVjY3DD06DlQWeeF5VDiIpsTPfbNjqa1GphWsLqRl4oblpKn5yz+GzuWnJw4U3wSn+g8shyHRAMG2Rvdo75sWDOClHyCVdgozcbTS2WHRHeJk2jTd1VkU2glalNtRRKmU6OxBrpTnNSrxlHhq4mrie1/1PnoxlrEU7BoxvrYpV9d1U3+aL/BJ4j1/FNKb0yp00uO6sVJmSu8Oq3Q5YyMOIlWly1NzBE1mqc5c238DpPslsWfMhbHSWwIqpQYgkrPVHz9Zq7T2zL1td6T1KLkJUrNUmWe1l9QGfc3unV6oS51J7q6Co/Y8Lo4TuKnMpGBspGV8RFlrPN7zVrSy4n7GBsGOGGyOy072N7VEfP4vSI5OvJmA+IketzuMo/b2LTf2Xd1332hG5u9Ks5ud/SKPs485FScNOhAAG4JcRIAAADA2I30lSsMw4vMBkk0FfGMXt6tNz659pJMcp2puGlLe5U2ldXirte+CINv9fJzqTuNcXjAWhrGZr3xlbUxUm3OrNiC+86m0Ka6/SaoZJzEGlqTmr3f8L7TxnbDmiNEMavHrSAMWkcVY0YgT8p8Upk2mxZ6smDt++2g7X0oqROdgV3U3eKkqPU1qdF1BmHY9tzSE1GYKdaiVigfoBTNHR5pbetSThCfmOWdWuO42TysVV+zfgfSStwWTRXUHeMk2ghk/UGkeat60Gh8rJiqKOSGPNnNswt064t2/SQIL9rN3aJC233RzOKZ56XNnvck6RsNVsondfu5RGZL9WBIWnHVri4Qku80Izl2LLT450znczs4b9U3aMmI+m70PospyVPLPfRa6Se7+Zua2NlueNasrir0ZEeZ1BjipKvwc1nNE2Wl2jwLaW1qvNflHG1dx03o1p7FHlSfHD7ZMUqc1HdRpKoxK3xBmCiU9jxaV/2PVmGy12fkxlrU2tHFnKi9rvnnYfjdq70s0EIz99ibQ04Qn0yapCLCXpyUuUKezgjKmlM/pudqcJx0xad4F0icRGetLWyWVULmirxW+PU3Gj3SThLBAkdaROUDv33mN3aK6hS7K0TXb9Yh7/G6+p7XGXoS32kimx+K7UmqzNOuFVTW/Y136pG0t3X/PGh/dkx6FXWn4g4bRXpjeVJyvVb7pOm+0qR8N1sZvk4eUfFPtcNLdmOhV6YY52WpqyMSsK6XvWgyIWi8M401HhD3GxgnsfTZmGIPIuC1LeOo2dDI6HQE4RW7GJdkYZpn01mHnIiTBh0IwG0hTgIAAAAYu3v7yvW9Ya8W5AlCJmVtvVpdl0l3cMqF76wX4sk+BEFUDPuo0zg9r5dUNncJWWTt09vFSaxLSG92oUgyTgqPbdrYZslQNHXISc16Lnf2gsjPEw3+C6/KHrnN35jSrLem/KNxUrzO+KhzdHMl91u3bcRyimjaoI7Q37P0uWgaF4ZMKjptA3eXSBbUneMk+upztTiviHlCZgrme8eizbblOC7p0z60DaWzP0QqvHDjnbnhvATNTZNNtMyJatGJErvBaQXvNZZ8mFp8LAXzpR6fqknV3Gzy9jfjb+msSHNseGPyqOnnGu8NZYJ/hNUxvXwQr3MccRLVPijrs53aRHdyo9E58bx3W+5adMKNEif1XRSpaswLX1svFWjDnv1NKqw7Xre72Y21iJ8dtXN22G5vxQ9+G3aCWHiUE82P3TOQipMyVkhLz13l53CSddoaHCdRPLgkT6On8mWs7erqtGbNx9eT+KRYWuhOu0PrpFvkJcbemjOru5bSnfssa53txlsWt0XIlFrciWe+7791JAwoqIz721XgbZlxtczL+ktTTcym1N63Oo/hI/KS7b7Tekc0fJ3hV6f4pHOK6Y1loVzvpEXJq4Nj3QzjoXD9Ameh04G035A4iZ7RbZ3eJONYOeOog2ZlWYlup+ytOaNyfOMhJ+Ok6wcCcGu0kiFOAgAAABiv+/nK9d33T9kUOV18tEh6fNxFu/W1f7FIcB4M+Ou9uAzpyuNJf7jwvOV/9VvfB2wvDFr+t1YwoH31A4I229x5/+bau7o4nRh31hF+Z7vnn7ST+9z1gwUVnHipPYkGlWTOURKc+nR/2tf28waXQesbO9fxy+HYIKYJI5HgJDKd6HRcP96LoH2tPGOd7f5AId1KGJz4/rf2tTrTdha1yqDeSaNLnetuNe5mebSyfvPbQwo4uxbRUmrTUrrHqj58hWEQBLevPBm7F5zR42IFk5jFORKyukoPOX6ZlrFOXpIDyurareMGw+9vVyF7i52s5JPdItGODbodMRn3TFoOg24sqavjol6cFo0P3WxrDIbvIbud0rfOrtXR7EPuyrjMAUaAOAkAAABg7O7lKxefHUOJH/pOnTrGtNB92hoMEDatOVHfHWdL7xo2hGfajAfcXV21D4pKThwwefNPc8HGSLL51OPXzLUuQr+f4MgqPK8k5pW5P9e6hv3NuhYn/Q6ux0njxDLruTKfmArgbw7iJAAAAICxu5+vXKFXeS4JeVl9bhgLBXlCEJ+U6r9zIvATBAdFec76qY29E8eYIWRK1RYNfV4Rc0RZdVu/pkHu0woj5gVhUq+mn4b2COKkq+9+a0yJAeKkDsRJN2CBdWfmbIC/PYiTAAAAAMbu3r5yXQb+J6eyUS6/qzj7Xvv3aub9GkFzx3YHzbAzRhetxoeq/a5sb1RrfI7kX6V1UKH7UO/NJ9Vx2qztNzEF72D09O3Xr88P/Tco8Oq1Q/83C0vCVnO/1hwwMfYYfHXtnd6kYwB/axAnAQAAAIzd+L5yAQAAAPx8iJMAAAAAxg5xEgAAADwmiJMAAAAAxg5xEgAAADwmiJMAAAAAxu7hx0nskdieN/QR4D9LcOL5nWeiRfiO+a3rT8KGh+AyaH31vAFP8X9YHmgtooXW/YFxO/e9kx+oADhZANcgTgIAAAAYu/v5yvXVVkd54FT0XKqPo+VCl+3G+6I2Q+geRsiUaryp+b8kVTpx9FndOY1ehP6epStivFuCICq69SG5X4G35zaGNA/5k8u06s+ZjveXCk8bzn78uPx7OerWlkaIao8yeflZrajwmkMKdvrJcaNr7+gkp5a9+GVX45Us5I1afL7T5/rCr+3W2/GLbDfWonvQ3qYlprsjJBXtY8f9Ev/OyjneqY4cEWdU/aXjXcTLPCC3KPMHJHl1XJ3y28tJ/Oo2Qne5/1wJRJTmtOLW+ObhDmsrhDyrtKIXyQMBeDDopYA4CQAAAGC87ucr11nNWjYqn+NXQ32vWStm5Th+leXSdxYlISeqq7b7qel/873jWvWVJhNBWnJ/etOx7S5J6ts4V2AP+M8RZZntmPfFax445UWZ5CRzL96vcM/IiE7CI9tcKdfTHZ0eoUuvPEekl43o1b0c9ehxUut9gS5Z2vf8b3d/ZP8ocVLfuW68kOgOeiN0ErmxFt2LUeOkU/YA+27Oy8o5p5hbtfpBnf/UanuOvVYQc4K0WhtbSHFHo5f5A5K+OijvjXqnOxuPk6YMez86U+xkubuV0jy7eerbUeBz7xJx0rUDAXggECcBAAAAjN0oX7m8DU1ZqPzMf4D2Nwu0aa1v93fWoA1dMSeXDu+3D8cNwiNLmdCd+OnsgbtEhLlyqvlK21SqQJ7GRRR8yIqT/lZcNsvKPbczR4+Tmm8UMl1q/FjEMEqc1Heu6+viaNHGzbXoXowaJ52kug0OKeegtioJ+e6F8FCMXOYPyfWr48zRJxTr+LZ3Nh4nzVrNvsMPm5ZC65I9npt2Mk66/8sc4F4gTgIAAAAYu1G+cjVfKzc02Pp6J31vVl8ZhTlZnlW1Fcv50mnORovx3knhoW2sVptfa+XlgjIrK88Ma8eLl7tsWLMCma8O+Lf1sFl9WXY+8wXZ2kruUa00ryhP9PIh/+OwTZ+61rJZ7QznofztovHC4ZvwnXXD+tisvzPpBxVVM9+4fm9QT+Aui+Jyt0nedhaIMGc10+2+1mG1+qHZpm/vW/oTSchJ6oJR3PGv7yQ78OW4n463aRobDf+TbT5XlVlFXShVjnodFMKTur2mqYqsPNWtXa/+ni08uLkZeM5rU1Ojoy67XztLRVv/4jlRmfQfGv2cW15lm5DnCsYrJzoBwWHZWKs2PpV1VVGfl/7+o20uFZ3kkLHzennZtI/C6CQ2PjulBbb/hcVSNdr/S6+6qil5gcwWdHqwAT/dnaOm2HZXOtt9WW12EoqsWpGOOYYv2XJfGppChLxcWDTMLZ4GDasVmW6Mk9Ln+j80NozCDBEmFG2RXwu88J3jRiU6ialjuaEWRcJvNTtxdprd0kufoA//LS1bq5aML0+c0pJZ+RL2xUmDV3jilhYU1vPoqW68qtGtD4vtvLeqQAqVTk0YtnvMhe++pRVSkec0c6PufbTia+3Sd9aM0m4i5TiusJ3vVoDh62wfVUqL/FyrWqfOhP1lntZXUDU+WLX1qVJc4Ot5qpc2G+3Eba19VOWbUNRFWkka1VWDVnL2Rtbdgxm6TloOb6ILk17dRfsjz8evXR1c4C6J4srAzl9B461Ba/ugO/CQOOmqXX2e+vvwow6aO5bxTJFnaBXVi+/rreitrEPuxEmDDwTgQUCcBAAAADB29xMnJedO+s6mrSGzurXlRsMuSF61jnhTIzF3EptMJy/TNoz20q5uV6wFPtLnI1/sS1nJEW1rQJqUwjYqybOSMm8YC7pNG5MZm2YLi8VP/INc46VElDJrbl02rVkiTknS02LlY722VSpMCuJC1Y+O99w1Joi23Ut52ruGmCPSfNH+0PDO0nkAbWl5tcqqKuQU813VOWpf38nkLEL1NVGYoYVQKL6rVrfKxhxtGHdmaDpzjWmBKEZ523Hel7RpUZwQyNKgjiYXzfITQqa10qbj7lVZSU4U7C98x1iBi2zrS1Zlu2q/KEg5QX4VZ1LhF7swIUjzpcoH190saVOCOF+hR81ilAlZnpYLS6a+YNX/N9eYFJQ3vViFhRS8uxY/FkmakvW3Tm3fKS/JhCglluu1GtsWX2Gpss2mu0oedXBkqXm+3V3X3bL0WfqhYhQoZNWKdMwxfMmgSQvhuSRM0gKpOoetrFqRicdJinXUDs6DxE+7vh7HSX3n2j+olp4RYVq3Nqv1k7i2S1OismK7+zXntSblSOGdFxV+di2iQq+i0Xr4tGjTUtphdYOoVjRJU/8J+l8dPU+0zd714r1TyZRZu0j1Thq6wvOm+9aQc0Rdq1T3WOA1OE5i01EJwqwV1Z6M3bu69KvPRWGyUNpya3uV4hNJmhY711qjNEOU102+HBN+NAkpVPi0QVnr9Gw1L9I9dD7W3O2yPsPiDFpX+8s8rb+gLq5au4aUo2ekXP3gOhtFdZLIqyxBo4JPJVpN5KUy3YTzRpfpDYEQ4wPffMbdgxbX0HWy/lxkRi9vu7WPbmVNFXNy8YAVcN/VEeGXlTHoCg+cRUKmioN62w2Ok+JLrDMyMeOoW9u6mFeMd/T6rTnvDCXPzg7bo6xD7vZOGnwgAA8B4iQAAACAsRv+latd3ygV14v0x1Bp41A1+O/FF5VGshtChLU94jip+VoRJrRqt2kXevZTQp7wYRd9cZJAtO7sHhf14rQgrdfpr+G+SQSxeBC9wYVB+6zVOo1/2ue84cI2KiT6DWVuOqN1xOIk2k4udv91PfhUlHNS8RPfymGJLmelOj4E3naxMBXPgCvOFowXttvrQ5MeAHVtJ5PBCouTWFDH36A+sxwtasE2X8nClOF2e218tQu0vAbFSf5GgeS1bp8R2pivPCPkeZU1F1mBC9JK91PJMVZtZ1FMdpAJPppSXi1/4Y1wemp6cV7IRjn1mqwtuv6oG0V8ErtBxmWrMj94FEziqPnuPbHjWIU6reqTgvyK7UhGraD646ThS7IAdCYe7JZVKzLxchhilMFuUeEvdyfECZtvVJYXxJdPdi1iZ4eo5V73pTPHmCTqO7bX104Q60DXGyXHp7ORX7DYJxEnZa1wwGC3nKg8140lg//o+rwq5wVhshD3AcxcW3hQlHJy8VO30tWLM4Jwc5yUtc7WpkYmWEAWCQ5tc70SJU0Zg936CyqomVOCvN7rRsNmsCJyiXVB4tVyvhL3zaGv32v0szfHSRnrvKwXpzolTF36zgvT2uMvB44R+2zRv5UO41ej4XES74gXn6xFXXsqizlBVItxh7Wso2Y3hPhewYTNzWLxHZ/XPOOQMdgNfgf0voo4CQAAAGC8hn/larvrmjbPftQZ1mJR+e/a81J3ZEoPa3tEcZJvPyF9qUebpQC8yd0XJ3V6JXB+hTbyV1gjnbUw++IkFjD1xO0fvlF9p7upzE1ntI547yT5Va+JSxu9tB0YNXp5g7yXF/RcBv6hW3lTNJ6xxpuQk/StOCEJ+uOk5E4mgxUeJymJngXnDntvu82n0SHiahRZRFrV+f6j49ioFvLEqns9tZeKkOfdHHiB67u9DzVfyXHOEtbMiVSfoy7WCE8/EC08LHXan9ERScWD7klMTabDkoi87pz3tzN7R/2dH2OiKw1dvbssCioLuTJqBdUfJw1fMhEnZdaKTKwccrLx3q19rCV+XHtRGjlOEs39aI+4L7RIaMVO/GVYLbpwjQlBXnfjM8o0bJZ3sBGgA07Qvsnmo476Ex1bMlEsPqS0FydlrnBgnKQuGOaKaSxpyiS95GRjo+53CzFzbTwJLdYTR9l4Sffopjgpc52sBuaIPF+0d2rN08Sqb4yTkgV1WJJyorEdr535XNGjq4BeenlSSFbLMzY9+c1xUsY66TX7nA3EM15V3EO/ndzrgSkM36K+08l2RhLFSYq2bLKTtaBK9EY5rZX3vN5wtqw9ZAMYSU5SV8vVj83e+aUyDhlxEvwO6FcFxEkAAAAA4zXKVy7WOB/SYIvx0ITFSay5KPS1Llhvo2gOmv44KZlEsD4vcRzw2WKD3ZJNu3O/cdhgP5+c4lwyTqLN9WiJmzad0TricVKqJcn6dwjiKuvq4r8vkCiaGS48rZfnRSGvVfk4taA/TkrsZDJY4XFSqptM4LL3WJzUKE2xDjvx3xnWbhwQJ/FdHSBqokcFnth6L2eJYp2tAW1X3gjnkVAXLSLaaFxnEQFrf9I18LYxO5apYj1RMfiTzvj0OsPiJFoguV5yEWGzEfGZs7NqxYA4aeiSvcPMrhWZeJyUNXcSlTrX1+OkvFJOzD4TPUAtme4lpWrRKT1x8ZlMUVjoNuAEhSym4Q8fDBsvZMKzOaoXJ2Wu8IapuM8b1hMiTOnV7pxcmWurr4p9s4yzB+3dGCdl7+FV4O2UtFmR/4lIqmF9iAdX3RQn9QoqoCeLf76PuF6PrpQ4PIpc1ouTN8dJWeuk6Dld5hEPNSFra5VGVGMHpjCByy6e94kb0c36B7sFn202YPCZ3ez25Mrew9B3X+nKJF+EdUkrVaOZ6TJumIiT4HdAazTiJAAAAIDxGuUr123ipDiI6bQ7Gd7y5xHDiHESaxsLbOBJ9E4KXywZJ3U7MWVvOmodJXo88Z5BvThJ3eilOlEGIfM2Em9aJ5ruXkWblsy9a4kA7wIQtb5Y+60vTkpsl+/SjXHS9WPhvZAG9E7ivW8WnXaYFp2sjDiJtl3zpJA86quwfRbQLQ5IK+hm2HQ8xXrAWo/dOIAdy4QZRzhc3JmLntZhcRJPLtKRSsjOBW8SZ9WK+FzcNk7KrBWZ7iFOYl26+O+RqDLQ+n9jLeJhX+G9H5/Njiu+5oEniB2yYjWDenGafTD6Yy9OylzhzU92+1bVJgWiWnFIkbm2bjjYxeZyGhInBawAeZyUvYexMPjacLfK5lNJYOPp2A6PHifxGJE9PS2N7lUnXU1MkXZ1UTPz6Thp0N0ja51dFy3vwLFf6HK+c1sbmMJEnRNvnDMupT9OotofDDZF2lo8um2kPbwMWse16tuiNkOEST7GNuOGiTgJfgeIkwAAAADG7p7jJNrSWBWF2bj3ChfUViRhmg9+GTFOivoE5UTtfW+Cndh5vaSkeyf1Gjw3bzqRYrCxUYk4SSALTq8pyYeaGby1TxtjrLXabVpf1ItTrE3YN+9sKun48TiJ9TGRhJlivfsUNvYc8YFzJ4X1dUmYMhNPhAqbG4YePQcqI07iOZS4mDjqb3aBH/XAtIIlDnmpuGEpeVoV4r+xY8nJ1lG3LPgkPlHXGJbjEOnFtTjpsmHNCFLyCVZhozQbTy+VXSvuEidl14pMd4qTpG7PoKjwkzEl2/+o89GNtYinYKk6eelXV3WTP9pv8AlilVYpvTGlTi85qhcnZa7w6rRClzMy4iRaXbY0MUfUaJ7mzLUFewabebvXLYs/ZSxxrUlrvbKnZyruSZe5Tm/L1Nd6T1KLkpcoNUuVeVp/QfHULBWhnrmlRcPa7wwvXepOdHUVHrHhdXGclHH3yFjn95q1pJd7VwcfBjhhst587GB7V0fM4/eK5OjImw2Ik+hxu8s8bmPTfmfu4ZXvvtCNzV4VZ7c7ekUfZx5yKk4adCAADwDiJAAAAICxG+krVxiGF5mNnF6cdBV+Lqt5oqxUm2dhGLQa73XaKits8BZLlG6MECddXbbcFZnkiPyczZZSP2o09p3KK0Pl07jE88tcS2qyNh02itMCeVJyvVb7pOm+0qR8qokr5CTtbd0/D9pfnCI9mO4c1XyAUhQtRVrbupQTxCdmeafWOG42D2vV16zfgbQSt0XDA9YkMzbrja/BXeMk2ghk/UGkeat60Gh8rJiqKOSGPNnNswt064t2/SQIL9rN3aJCj+wljwmy4iT2cDEpJ+kbjVYQBid1+7lEZkv1YEhacdWuLhCS7zQjOXYs9ITMmc7ndnDeqm/QkhH13eh9n814/dRyD71W+slu/qYmdrYbnjWrqwohSpRJZdeKO8VJmbWCfmzPYg+q7+QvSaPESalzHeUFk5q93/DojrHCF4SJQmnPawdt/6NVmOz1GbmxFrV2dDEnaq9r/nkYfvdqLwu00Mw99uaQE8QnkyapiLAXJ2WukKczgrLm1I/puRocJ13xKd4Fopb5QwOz1hY2y+wKKvJa4dffaPRIO0kECxxpEZUP/PaZ39gpqlN0l3mclH3Ie7yuvud1hp7Ed5rI5odie5Iq87RrBRXUVum5U4u7XvsiDL7Vy8+l7jTtvFNP5ybw2THpVdSdijvj7pGxTh5R8U+1w8uw7bn0yhTjvCx1dUQCNlC0F00mBI13prHGA+J+A+Mklj4bU4LAL+fMo2ZDI6PTEYRX7GJckoVpnk1nHXIiThp0IAAPAeIkAAAAgLG7n69ciTiJah+U9dnOfB2TqrnRiNu3o8dJTODtslEtnRXxyUdW7RpvtzPXkhpq6KbpW/tW50FaRF6y3XdaZwAOG+wmLZaKajwzi/zcqvEWJsd2LJo2qCP09yx9LlqYIZOKTtvA3SXO6yW+KrLoBneOk+irz9XivCLmCZkpmO8dizbblpPl09M+tA2lsz9EKrxw453JjJPoFpqbJptomRPVosNjuiFpBeuJIyYfphYfS8F8qctRudIC32x2Ts+Vv6Wzk5djz8VLHjX9XOO9oUzwj9DtKnr5IF5ndq24W5xEZdQK760q5K5FJ9wocVLqXNOacWwXWHkSNgMOL3xtvVSgDXv2N6mw7njd7mY31iJ+dlh+GqG7vRU/+G3YCWLhUU40P3bPQCpOylghLT13lZ/DSdZpa3CcRPHgkjyNnsqXsbarq9OaNR9fueKTYmmhO+0OrZNu50ITxDmzumsp+ThOylxnu/GWxW0RMqUWd+Kui6kyTxtQUBe+s17o3lNExbCPunUh8LbMuFrmZf2lSe9p3dmUht49qOHrDL86xSedU5wj8kK53kmLklcHx7oZDhnhGzgLhM1u3qnPCUPiJHpGt3Ux14mVM446aFaWFTYNfPTWnFE5vvGQk3HS9QMBeBBoxUWcBAAAADBe9/OVKx0ncWFw4vvf2sGAJtAtXbRb33z/tB3PB3Sz4Zu+DNp0Vd97TXaGx0nyqwb9YPvEb52l36XNql1dnE6MO+sIv7f8r75/MnjHgvOATUR0V8GJ1zpPfD4aVJI5R0lw6tP9aV/bzxtcBrx4e1HAMGwQ04SRSHASmU7Q8r+1BhzvRdBOHkVSZ7s/UEi3MqxWtJ1FrTKod9LoUuf6MqQvWZXoZnkhO9L2kALOrkVxjaVlO/DdOxi+wjAIgttXnozdC87ocbGCScziHAlZXaWHHL9My1gnL8kBZdUt8xHRWwot84F1L2RvsZOVfLJbZODdo2v4Olk5fPVTl3MkeXVc1IvTovGhm22NwfA9pOXKKuHZtTqafchdGZc5wC+COAkAAABg7O7nKxebZ0RKzTr8G+nFSUOETWtO1HfH2dK7hg3hmTZrnY4V7YOikhMHTN7801x49lMidcZqRa51Efr9BEdW4XklMa/M/bnWNexv1rU46XdwPU4aJ5ZZz5XjAbYA8MMQJwEAAACM3Q9/5WpVVwrKFIln3Pgd3RgnXV0FB0W5O5vSz3HiGDOETKnaoqHPK2KOKKtu69c0yP3Kc0nMC8KkXk0/De0RxElX3/3WmOot4qQOxEk3YIF1Z+ZsALgPiJMAAAAAxu6Hv3K1G9u2vVGtf/t9/2E98A9r9cTEL4MEzR3bHTTDzhhdtBofqva7Mi3eGp8j+VdpHVQGn+LTZm2/iSl4B6Onb79+fX7ov0GBV68d+r9ZWBK2mvu15oCJscfgq2vv9CYdA4AfhzgJAAAAYOzG95ULAAAA4OdDnAQAAAAwdoiTAAAA4DFBnAQAAAAwdoiTAAAA4DFBnAQAAAAwdvf5leui7XveKI+cvy32pG265mFPFv+1Ljs/j8a57538vIlc+Mn1W9cfUv5rdU/rYzqzD9YPVjmcLABIQ5wEAAAAMHb39ZUrOLTUCboyQZi1Kn8WiWp7t23aXX+U0mW78b6ozRC+XoZMqcabmv9AUqWwZuTjHYuQSbmwVHZHmJW8tUWPVbWvze3deCULeaN2nwcYusuEnpTBz9W69GyViOv1+CUVevYzxdxnZ6G9o5OcWvaiN3r6drJ97Lhf4t+vLvzabr0dv8gW+nuWrohx2QmCqOjWh3s+t+1tWs66O0JSEZ42nH0/+p2dnXinOnJEnFH1l453ES3yoATentt4YHHcjZIFfnXq6LO6cxK/ug1evfsQUZrTilvjm9w6rK0Q8qzSil7dos4DwE9C7wSIkwAAAADG656+cgXOIhFmTeeL758E3pZpvnLjttbo+uKkS99ZlIScqK7a7qem/833jmvVV5pMBGnJfRCNNx4nSc+t6o7j0J/tauVNsTAtCDPF2nm8yDAPNk7yNzXpeTU6dyPFSafsrJkf4z1uvJBGTBKDg6KcI8oyO7neF6954JQXZZKTzL37PLejxkmXXnmOSC8b0St2dnKKuVWrH9T5T62259hrBTEnSKu1h5bbhHsGIVr15zyD7L6kC5zy3qh3uq559Z4y7P3oTLGT5e5WSvPs1qFv3/omNJpUnDR6nQeAnwZxEgAAAMDYjfKVy9vQlIVKpyPBQK3KM0KW3R+KQdJxkr9ZIDlJ3+7vrkKb+mJOLh3eZ+JyRzxOkl8145dceFiSc0TfvSFzeKBx0nnNnJbM/XjzI8VJJ5VCIk6qr4/YMS1wl4gwV04teemVVYE8za5ptzNynNQsK+k4acDZCWqrkpDXnQf27P/gw+8YJ6UKnDlz9AnFOr5t1R9SvcOmpdC6ZN9jXUpIxUkj13kA+HkQJwEAAACM3ShfuZqvlaz20nm9vKwpk4IwXdCXDPso9DZN42XUO8l31o3yvt/YKulPFFlRtTW7fso/xbWPKqXFgjKrFJYs95Pdi5MuG9asQObjbjIpYbP6sux85oud1azlkntUK80ryhO9fMj+GHhueUVTFVmeKxgvq81u4//UtZbNandYFt257aLxwunup/WxWX9nFubYbppvXL87rOnCd9+YmirLs4q6ULQ/dhKuQXHS1TcWr+g7rJuFR9e/WmkmGsjhkW0uW/XvI8ZJQXPHMp4p8oysPNOL7+ut7im4bDe3S+wtukvPi/ZBq7uR5nvT2Kg3Nw1VUQqrjn/Z394OT+r2Gisf5ZlZ3q+VE3ES26vpYr2zrpvjpBO3tKCwPjtPdePV3/9/N4zCDBEmFG3RqHyOz45z3KjEmzOsHa8T7LSdBSLMWcnCoVqH1eqHZreLSvitZq92TuUrp9nt85U+79b/o2wsW7VknnLilJbMypewL04avMJLr7qqKXmBzBb05XI9GHp2vLeqQAqVb/FLWtWc11HFULWVsvs1cTC0zrylbynynGZu1L2PVlzTLn1nzSjtJlKO4wrb+W4tHb7OzsXC6me3Yrf3Lf2JJOQkdcEo7vSHJ8Fh2VirNj6VdZXWk1KNX3qtT5XiAl/PU7202WgnrutE3TDKH736hmFu8dOfde0ww9c5qA5fK/BoSXdJFFcGdv4KGm8NY7U66BY0LC1tV5+nq/2wujTsKss6U904KWz01XkAeBgQJwEAAACM3T3ESRd+batszArkSbGyVa1/u6qvdf65/rJpzRJpVpaemOXNavWdqU7SxWyfryr4VFIIkRes6q5TealJE4QInTjpS1nJEW1rQJqU8tVWiSTPSsq8YSzo9uer4MhS84I0X6rsuu6Wpc8SohTjtjpbWCx+4r9zjZcSUcqswcn3U5ySpKfFysd6batUmBTEhSrfT9Ynhczo5W239tGtrKliTi4e8J28Hiede86aQqYMl2+R91SSip+6iUBQWxGjTg2jxEmtbV3MK8Y7p7Zfc94ZSp4or6P4pV1fV0he1l9X3T2XFR1h3bjYO1dXtVUizMjytKqvGNq62+5rb5+5xrRA5ozytuNsFAtThOSFTpzUqswT2p7v7i6PkxTrqB2cB4kfuvXOTp433beGnCPqWqW65/3jQbX0jAjTurVZrZ/EyZo0JSortksP4bUm5UjhnRetv71riDkizRftDw3vrLvNntCraPQsPC3a9FTulI05WmBWPENQ33n/V46eJ9pmr7Z471QyZdYuUr2Thq+w1di2tClBpNVmm83MNfjsnNWKCpsarBHt7EWz/ISQaa206bh7VWtBJhMF+wt/79KvPheFyUJpy63tVYpPJGla7NS0RmmGnUe+Cib8aBJSqETTBmWs07PVvEjL2flYc7fL+gyLM2j9DL1aZVUVcor5ruoc9Y8VY2dwglYGubBk6gtW/eKqtWtIOXpGytUPLq0A6iSRV2vxx85cc1oQVbPyoVbbLmnTkkTLJKobGdcOLb7h6xxSh/sLPMJO1oQxqCsZG0tLpoqNqA6nDI6T4vtAZ2RiRl0aepVlnale7yS/r84DwMOAOAkAAABg7IZ/5WrXN0rF9SL9MVTaNlYN/nvxRaUxYGIgPtitk0Sk4yTaAi81Oj19WpsFQrQK6yXhV54SMs+axBH/faEbJ4X7JhHE4kH0DhcG7bNW6zT+aZ/zTbFWriAud1ugPtuNJ3acWFCnVX2SJT7sDzfESXQ/i52OElfBp2KcBF3Wi1NEfdfppHDpOy9Ma4+/jKbizpEOWpaCkFdKnzproatVWJs23p1z15gg2jZraI8QJ7HhYOR5tZMQhM3NYvEdn/H32FJyorHbeYe+9Vph6QnfLIuTcmo5yiCYVHubLilMxmkXFbJVdSKDwDXypPC+F8qwMIIf0wDdLlQZg91YnCRIy90JccLmG5XlBXH9CbxtlmdF6xNnC8YL2+32XrpqO4t0VeVe96Uzx5jsnIj+8x64y2JvlByfl0d+wWKfRJyUucLrg91yovJcN5YM/qPr86pMz/VkIeoBR/kbBZLXej2VLnnd4+crPChKObnYrQZBvTgjCCPESRnrbG1qZIIFZJHg0DbXK1EgEgwf7MbPYCKWDWrmlCCvd6s5n8GKyKUjVij9deNzom5kXDtZ6xxeh68PdqPoFolUOoxfjYZX77xcWIzOlGEs6tpTWaR7rhY7HdYyTn3GHo4UJ1EY7AbwANH/rSBOAgAAABiv4V+52u66ps2zH3WGNdhU/rv2vNQbmNOTFSeJa93hU1dXByZ77+vV1bmj00ZwokdJcu4k1nLri5NYwNQTtwBZK5foO52W7Pdr62StTVFQ+Rw9N8RJRE72M7psFKeixmSLjZqZUIxXFffQb/eOhDUqjTzvYbFZiX7sNyV9ThQmVKsTOnhvVTIZBz28q0g88057hN5J7LM5SV0tVz82/W5jPR5ypdnHXs+uKeWkIm+Hszgp1VkjGSf59lNClhL9P9h0RZ3Bbrwwu8EQxXsnycZ7t/axlvhx7UVp5DhJ7M7ExHwpK/QUHCT+chn4h27lTdF4xiIAISfpWzwMvHCNCUFed+MDZBo2rWPR+Me+804Pct9k8yFH5XlsyUSxjtmvvTgpe4WD4iR1wTBXTGOJD+QksrFRT5wFNpaKPLHq8aqY2kuFFgvdVpOexKnemEGq8ZLu0Y1xUtY6ozm55PmivVNrniZWfXVTnEQKdjefOixJOdHYjlfOfK7oE4LyxhtUN3z7SbJuDLl2stY5tA4PjpP4HSAaKDqyKE5StGWTnawFVaK3iWmtvOf1Btxlnvrhe4g4CeA3Rr8nIE4CAAAAGK9RvnLdMNiNyYiTiJxsNH4qxnESTwSMvWSyUDMnOoPdWM+IdDB07jcOG+znk1OcS8ZJorkfLcFf5lKBCMUCmukSGyaT0STm+1lIbo71cBHEVd6WPq2Xl3kzlZqQtbVKIwrUBs6ddNG05oTeJNM8UuEH1aryoWRRi5XFHAOnJXohCXkzLsfQd1/pyiTfMOssU6ryGaPq6xLflT5x0dVWSXoG4kScdNmwZgTpRbINHzgLnciAlXmqfHic9ANTcdNjzyvlxIQ70WPghs1THtJynheFvFY9pUuynk0DKL1ksHfeqZA1/tW3dF/DxguZRAFiVM5RnJS9wutxUlRLI+cN6wkRpvRqdyYjXj0G4HFDfVXsm2W89b5wc5yUuU56prydkjYrRn+SVMP6EI8SC26Ik3Sn052QLck/34dVgCj5jWpCjA0xuzFOylonNaQOD46TApceSbJ/3AiSaSkTfLbZuLZndrM791n2qR+6h4iTAH5j9IJGnAQAAAAwXqN85frROOnVoDgpShaSPREu2GCrOE5i6YBA5uMGWxrfVjJO6nZi4tFGOq0I6c7Erc2oSZzo8cTeSsRJ6kYihGGNSSEVhF20vAPHfqHL+c6ODYyTorgnb7hxa5Z1OREXnTbbN6nbMSfcN8XUtEoR1oAXZpJ9i+ieBK3jWvVtUZsh0Vikxkve+eUiTIsXz4yToowsPk0cD7milj+bryrVmege4iQ26In/HonOF13Yq2jTkrmXPFMc7+rCYgve0azw3o8PruMqWnPfeedYLVWsZlAvTrMPRn/sxUnZK8yOk6hvVW1SIKrVCSlYzx1CT2u8mg6+tl6C2cHmchoSJwUsDIpCiqx1doTB14a7VTafSgIbT8eKna9hpDiJjSHNsaenpdG9om/yrS8n6wavusk4adC1k7nOjmt1eHCcFPVYvHHGtJT+OIlqfzCknCCvdcbfZZ/6yIA9zDhTiJMAHjrESQAAAABj98viJPqWIogrvcE10XCeOE6irdv3BZITtfe9eZBi5/WSku6d1G3lRr1vkg+HChul2c4kOyzdSIZNbPKmRJwkkAWnF27xQWDGXnD1vWYt6WU+uUyEDWWaMOv0UwPjpJA97T7VXeKDIU4Y9luNzJTiWZwplsII0fw+Pd9dY1IQ4wFHvvtCNzZ7WQ5PoGTrmK+QzZDd+2hwYOlLJZePacqKk1i4JrGprLofPedbjCKDaKggn9opMlKcdFrRCDF6cZLU7RkUFXgypGMxTdT56KJenGKpXHca5kgvx+HJV+qMXPrVVd3c4Ps+KE7ip0wpvTGlaBNcL07KXiF7l3T7bQ2Ik+j52NLEHFHj2dBDFhp25qviwuaGofOnjwV7Bpt5u9ctiz9lLFHTpMTwTzZjUSekyFint2Xqa70nqUXJS5Sa0fowYpwUZX+FZGx65pYWDWuflgrr1SXMFOvdTj1BzezWjYxrJ2udQ+twX4HHPH5ak6MjbzYgTqLH7S7zuC2aMj/r1GfsYdaZSsdJiToPAA8D4iQAAACAsRvpK1cYhhfZbbzbx0n0M9u6mJP0jXrrPGgfV02FdEdsMZctd0UmOSI/Z/PF1I8ajX2n8spQ+UQ28Qw712IFf5O2+ek6G60gDM+a1VWFkE7yEjaK0wJ5UnK9Vvuk6b7SpHyqkS/kJO1t3ac788UpqoREj7GnbVH6O/tUO7wM255bVIgYNU15nCQ9t6rb1fjnfdl8Rtuxorad6GHB5iomhD8xKv4LE9RWZbpkYc12DhqNo0ZtxzZVUcir1nFUirx5P6mVD/wgvGLHsiQL0zxruGhYc/SwzOoxPcqgdVQxZuhxlaPgLTNOYi32At2TlWrzNAhOGpVFmVaAODLgR5ps4Y8UJ7FcQ1DWnPpxi/6BZW2Tmr3f8L5HGYQgTBRKe147aPsfrcJkr88IPftSThCfmOWdWuO42TysVV+znl/SSjx1d2uHVg9Re13zz8Pwu1d7WaBn1tzjbw6Mk6KJ2AnvCxb/JREnZa8wmjnoqeUeevQwBsZJ0cTYAulMc85KUpAW7fpJEF60m7u0XgjKSx5OhU1WZ+aKzud2cO7X32j0SOOaxmcNj05r+8xv7BRVWjfikCJrne09Q6IV+z2v2EGr8U4T2fxQfGsHLAExNuuNr51rp6M/TopqXV4t7nrtizD4Vi8/l4QJrRpt/VtFmyDyUqVB68Zpum5kXDtZ6xxeh9MFHgn2huViQeOdaayxWO2agXESn2x7ij0EIKptw099xh5mnKlUnJSq8wDwMCBOAgAAABi7e/rKdZc4ibUSNwxlgu6CIORlfaNM2769OIkJvF02rqc388mErK3atW6zeUCsEDTed9ZJG8OKXj7oJTvtfavzKDHabLbdd1py7iRpsVRU47lp5OdWLWpj07bjV6f4JPq7IOSIvFCuRy1eHiclkQlJeWaWP/T1qOK9TnK0ROLXsWjSls6u0k+LqmEfdpMQeijNyrLCJqjmxDmjctw58JOa9VzuFAvf205/nBviJFoIB2V9ln80R5QV2+oOdru68t4oJDHpz0hx0lXLXeV7Mskmnw6P7cIk2yU2Aw7v0qKtlwq0Yc/+JhXWHa/b+YUe/57FZi7vIJOKThv8vbILmpsmSw8jk6q51Xnw2+A4KZqRSjQ/9qpQMk7KWuHVlb+ls3qWU6zPQ+Ikisc9tHijE9w+tA2ls//06F64vZ0/rVnzcb0VnxRLC51Zuqhvbqea0XNqVnctJd+Jk7LW2W68ZXFb/M6UWtzpVLPzeomvkCx2DrTjWpx0dXXhO+uF7hUlKoZ91KtywZGdqBslQ+nVjaHXDpWxzuF1OFngHLtMhoxvZTN8sQGenZqZMCROovWSpdWdgC/j1GdcZUPPVCpOStV5AHgY6DWJOAkAAABgvMb3lWtUYdD65rf72sF9Ltp0Gf+0nZ5HZrhLtk7/NOi27nsugzZ963v6nV7sFbZP/NbZgM8FZ77/1W+dD3jrJnxy6E7js98l26Ln+a2+XeqgxUO3658NKKDwnL017INZ+Eb7C4H6xibP7jTvbyEMgqCbE12GwXnAzhSPk9iE2ZmnOPzOD/BkyMmNzte3VjDiqb9Rxgovgvbtz29wyipGuxeT9bA6c8IqYW/S91jIPkUPOX7Zb+g6eUkOLCta5oOq+xD0gqJlPvACoZdAdIFc8rFnnTiJGXjtdA1f59A6nCzwi3pxWjQ+JOLUezf81A+/ym44U7FunQeAhwFxEgAAAMDY/fo46SG43ovq/oTfqvqkqO+Os518b4L6mtybw/gHdeOkv3nX4qTfwfU4aZzau7o4V44mpgIA+EGIkwAAAADGDnESM6Y46dwxpkSS6w2P+g2cOcZMocJn9f5RiJM6ECfdIGxac52ZswEAfhjiJAAAAICxQ5zEBf5hrd6bSOe+tBtbtr1Vu/8Vj1P7sFpJTDh1dxetxn4d8xNTgVevHfq/W1gSsoviy0/pVffVtXeaCJMA4L4gTgIAAAAYO8RJAAAA8JggTgIAAAAYO8RJAAAA8JggTgIAAAAYu8ccJ4VB66vnfb3psXGPSHDi+cmnwtO/nPm+57cGPRgO7i56Hh+rWpg7Gu7kwVahy8QPjNn1O/bt4GQNhzgJAAAAYOzG9JVrtLmHw9oKGfoE/bT2seN+iX+/UeC51pIqEXpwXE6U54vV458cqYTuMhFmrWuF4NtPCHlevf85aU4cfVZ3TqMXob9n6YoYl4AgiIpuffATLdfA23MbQ4ok2NUJ0apn8cvH4LJRmhbIai1+mRZ+NAkpVE7il1kuW/W3hjrZqVtR1fqSKMcLv7ZbH3Zy62siUW1vfG2/s6pGiPHhpqpOS2OGKK+b8csMmYeTIVmkrS26U6r9lb+R0HglC3mjdp9xyrCLjht5cvHaKhGmS40brtzUFRSeNpx9P36R7cYqdA/udmvlpdeHiNKcVtx6kDNb3bVy/lrJ/5cF+6by7E4PauA3tD5kQlLmTftwbEWSvm/cos7/CrRAECcBAAAAjNeYvnLdc5x0yhrJ5seRvnQHh5aaF8isbm3VGp7vf/UaH2xTFYW8Wj7+mR0BfnKc1HaXJPWtF70IDopyjijLtvup6X3xmgdOeVEmOcncizcb7hkZgVF4ZJsr5fqP/LP5Q3M/cVLYfK0SIuuvnfqx531p1j/YxhwRJrVq57ONF1JGYORtmeYr9z7mOR/ivuOk7MPJ8OjjpNQVdOmV54j0cpRHQ95che7D3W6tvPSmDHu/Xj+IfmrubqU0Lwk5Ud8eY7W9mztXzl+p//9lrcq8pG3ePpSJbmjz5Vp8pur1/Zq7aemzRMgX7Pj/A/cted+4RZ3/NRAnAQAAAIzdKF+5vA1NWajc6gvvPcdJJ/yR86PESUG9OCMQ1Wr0RSFBo6TQL9/Vn9gk+qlxUnhkKRO6Ez9GLXCXiDBXTjW06Ld/VSBP4/MYfMiKkx6he4mTLuvFKUFar6cq4klVywtyJ5qpr4+5/1G2+46T7nw4jz5OSl1Bl82yMlrTeoQqdB/udmsdUnph06I3z6f2Q+uI8ouvtbu59v+yYN+Ups3abXt/DbuhfbULRJBf3WNdSkjFSSPX+V8EcRIAAADA2I3ylav5Wrn5W/uF774xNVWRVa34vu6up+Kk1qdKcaGgzMrKU7202WjHf+9v8wxe7MQtLShiTpCe6sarWtSWG7LCq/aOTnJy6XBAC7X1sVzaqLf4ksFh2VirNj6VdVVRn5dqbIBY6O/bxedqtE56CNGSVPO9YbyOt8uc18vLhn3EN3FWs5ZLznGjssYOXXlmWDtep10wWpwUl5sszyrqQtH+mBiPFnjO6+gtVVspu1877/CNuke10ryiPNHLh3SDgbssistuZ9NtZ4EIc1YzXQytw2r1Q5Nut71v6U8kISepC0Zxx7+69J11o7zfcNYKilIw3jeDQ9tYjnsneZumsdHwP9kmKxy6k6XKUa8wwpO6HR37U93a9erv2cIDSj9jyQGHc3X1vVl9ZRTmomO3nO5QoFPXWjariWGP/nbReOHwKsSOwvrYrL8z6QcVVTPfuP4FX4jqb30FzR3LeKYoiqq/qDa2jZHipLBmTgjSWjoLuGo3d6vOId2FsLFhFGaIMKFoi0bl84BDY4X5MuqdFJW539gq6U9ooajaml2PByoy7aNKaZHWcFo/i9WjBju0/V6xJ3WXLCxZ7ic7FScNq0J9cdJlu7ldoqXBKuHzon3Q4stdO5yhS0aGFulocVL8cXmGXkepCzBjo01Wi+rNTUOlFXfV8S/7L7perXtmlvdr5XuKk1JX0P+7Vl3VFNYjsqDTqya4Cunls1ptfHZKC+ySKSyWqt1L5oYqFBt2f0vfuP7Ljf/KNNadZMpDd8xYthvB3W6tw25Z7erzdKl+q9mrrFTluYLxymkmsvtEgRvlj159wzC3eFeZrCuXGb7OgRVjUOVMuFYxsqsuvYiq8eW2SO82jepqfIcPPpVZeXZvI1ct92XniKiMdQ68sQ/6f9lVWC9OE21g56/LZmXFGHxHHRYnXdSMvCCu9ir5sLo09H89GWeqe9+49Prq/AOEOAkAAABg7O4nTrr0K89FYVI1Nxxnm40sI3kidOKk1q4h5URlpVz94DobRXWSyKvRN+lUm2foYudN960h54i6VqnusbBm+AoD1hyaKg7OMxJY6jQhy9NyYcnUF6z6Rei918ScqK7Zzp7rvDUV2uRbcqJ2S/+/8yc7gHxj/9QsTdGdsd39mvNak3Kk8C6aCmOUOCmorUpkRi9vu7WPbmVNFXNy8YCv+aJZpotNa6VNx92rWgsymSjYX/iKv9oqkeRZSZk3jAXdpk2pc9eYoA2SuHlCtXcNMUek+aL9oeGd9RdH6NUqq6qQU8x3VYc2dC+b1iyRZmVpTjeXNXO7lZw7qb4mCjOyPFMovqtWt8psYM5EZ4amM9egTRrFKG87zvuSNi2KEwJZ6qZaCRlLXj+c77WiQvhwRTcaa0PyqnXE18oWFouf2K+RXj84fhTilCQ9LVY+1mtbpcKkIC5UWUuSSrW+wuYbleQk7UXF2a1ai4pIq+socdJVUF+TBVpPVsvOgde6dpz+QbX0jAjTurVZrdO1XTu03txJ3TJ/YpY3q9V3pjopkCd2tLfBpxItAHnBquw61Ve6PCHSPSxsDmhwdpes7jqVl5o0QeiRxJUzowql4qR2fV0heVl/XXX3XLYSIunbLKPoP5zhS2YX6ShxUmtbF/OK8c6p0evonaHk2e7xdzI2ynMfWjmnVX3F0Nbd/kAkqnVzvNZtFAtThNCW9ohx0lSx9j0IzpM/Tda/j1+56SvoHxvbljYliPOlynaNNsr55SNJU7L+lh6OU16SCVFKUU56UxWiht/f+m9c/92eyWp/r+Xfqj4nZMGh5XCnW+vgW1ZwxIYPS6txB5rQq2j0ynpatHddd4fdEFhv0Oi9M9ecFkTVrHyo1bbpZU4LoVPgGVdu5jqHVYxrlTPlWsXIqkXxRbRUdj7WnDe6TO8hnTt8e5tWXb13R0t1cMtY55Ab+7X/l3H0ZImDe85e1k16W1h2++/g1OA4KfofGdE7/y/I+H/l0P/1ZN1ju/eNVl+df4AQJwEAAACM3fCvXO36Rqm4XqQ/hsqiIoP/XnxR6R9HRr/DHhQl+mX0U+fr8TkbcRbHSUHNnBLk9d6/X7JpfYhcYv/2m2jzZC2WHiCQtSRPap4moh+6je/t1mkr/jmLH6PEWmUC0bY6C3539AlBedmLoYKPppSTzH26kRvjJEFaps2VCG9UTxguK6IR4iQ28oWo7+JWDesl9MK09thLf6NA8lrlW/QGe6vyrPMp9nVfSPRFuro6LNHv+1bqn+gDb5u1n+n5pcTZgvHCdrvtF/p2eqiONSsIs6XuP8L3x0ksAuFvUJ/LSi4+/OYrWZgy3HiE3VXIx1kMjJOylrx2OM3XijCRmEom9OynhEUt9Pespk50FMVuzQg+FeWcVPzEz2qy9cVON1HfdDtvtZ1FeoyjxEl0Z3z3pSbnebHmRPmJXnznNDvHRaUG4Fw7tHSclCrz1iat41qF5XRxDel2z2nt6Gz/BsRJfoWWzHwljszo6/esXKOzk1WFknHSsaXkRGO3U4XZ5D4KmYpH36QOJ2PJzCIdIU5iwzPjfWPC5max+I7Pspy5eyw1yKnlKCNjUhcdq0iTiVrHVjVynDREdyeD4YPd2OVDby/d83XZqswn7iHZVSjzTth/4wrTvczYfVI09uhH73RrjUovLxcWDWOJ/yzq2lNZpIWmFmvRkfIzS9Ryr+fjmWNMxjex/gL/nCjwjCs3a53DK0Zf5UzrrxhZtYhfF/OV7uXmv9e6F1FWnJSxzuE39uuD3agWvWzp/zV6faBGwG9owkxBj84UO1laQRHpnsvLvDcWlXHqM/Yw6x6bqG8Y7AYAAAAAw79ytd11TZtnP+oMa2Oo/HfteamWaDxHeFhQrCe+1rNJUqMvoIcliX7n3vZ6PldYdvPGo9+/e22erMXSX8Ezlryk7fDe9EAca5nzdhuXo9+k2V9Zq4wU7E5LO9w3xVzyH/njL+vSC/pd+cY4STT3E22DL/Q7tlg8oH8ZIU7ivQmECcV4VXEP/XZvNWx0CXli1eMjZGovFdr2Zg0b9nWf6DvdNkLU5um0bJMuA//QrbwpGs9Ym1DISfpW/BCh4FqcJK72JrHpj5OUxFGcO+y97TafjIkkP8UOhzabr8dJ2Uv2Hw4vn/RK2iyP4PuT1dRh/X3k5KQhlw3aZOo0fnpx0vXTHe4Z4ohxUiRoNT9W7ReGxtpvgjBZKHeeG3gtTkqdqb44SUwOejow2Xtf4wqm73SbqXRzrjGwd1J0LpJ/71XOzCqUaBZ6b1WBaPZxvAyzy7LU4iFbX/JwMpbMLlJ++m7onURXTnKSulqufmz6iXOfvXssNUhdYsmLzmcpZLIiRfVwxDhpUivv1WofEz97FXN25DiJdCcyY1igltedZBA/rApl3gn7blwUvfeS2VIUhLMAkd6HWSpxp1trHCcp2rJprpjGAn845jQtBy8xQso1JgR53Y1XxTRsFsdUWwMKnF3LN8dJWescWjGoG+KkRMXIqkX0Iuq7uBJ3+Iw4KbNmDruxD46T+ERjAy6QLJ04yVihJ8vQn8r0XIlPS85xYmtZp374HmbdYxEnMYiTAAAAAGKjfOVi/+g65Ft7hH13T0/8zBo2/AtoQBtddBvX8G/kvTZP5mKpr+CZS/IpqGmDqvflOGx9bjQO2U99QxdTcVKvdTcojuGhBhtlcFOclE/nUPzBPfoufZd9cMAMLNGU2GxACndaLy/zZhs1IWtrlQZthdJl5vhf+kTtc/5139yPPs+wPilRTDBcSDc0Lwp5rcrHqbFiTMVJqSCmL06KewZFApe9x+KkRmmqb85X1hwdFCdlLtl3OKzFIvS1UsJ9k+TUMm0EZTV12FGkmoW8GONpRHjrK4qT+NmPyyF2bMn528RJCe3jij4jCHTv+Im+FielzlQ6TiJy8jA/FeM4iVaQHEl+iu/8oDiJrZ8Ye4m24GXNnOCVM7sKsUKOm4X1dSl+KyWu4cnDyVgyu0jZ9RWdvrTGC0nIm3HKGPruK12JHp+fE5XnpernaAeydo/eedJTRCfipMuGRSvSi2RFCpyFkeOkH5iKm10+6XidPwau0OsplpasQmy18TGmRLvdd+NiWETGZ4vjYZn8IkqW7nJrTZUeF3y22Ri0Z3az23HmlC4fryFFKXshT0hTxRs4iyPESRnrpO8OqRhUdpyUrBhZtYgPWI6qU+yyXpyM/5IRJ2XXzME3dmpQnMSu/Vxf99KbJG5oXOjvGFKOqC8TfZGyT/2wPcy6xyJOYhAnAQAAAMRG+cp1Y5zEmoUzVrL15b1Voi+gPAhQrOMwjX4ZpUv12jyZi6W+gmcvyXoBsGF36S/rEfaVfXCcFLCWYerf/FlrX4mSCL6TyR5PfGfiNgNrisTrjEUJAt/VxkvW+aI/XAlpWyXVFYi5aHkHjv1Cl/MCG3YRNVwXnXZ8dB1RaUSbOOC/c3wwUaKR6VW0aclkY17S+D9WR+0Efsg/GCfFYU3iQHiPmAFxUuaSfYczYOFof3hrPGrqJI6dd57qxUnqRiJbYI0fIY5sEq0v3rZP9wWgJdPpSpOhvWPIU3oqNOF4P4X4RA+Ik9J7G78bl/mgOOm00kkkOy5YSDQgToqyy2Q/pgvWj4lXzswqlGgWslrKurTE73fwxdKHk7FkdpHyvkudUYc9LGug941ueMFcBq3jWvVtUZsh0bCp7N3LjJOiitTfJy6ddwx2D3HSRCcm4+LA+vvNVSj7/jYgTqJ79ZRIa/XgM92FbiRxl1trqvQ62h8MKSfIdP3R6++sQ1zhvR+vpoOvLYrgU8dNL/NUnDTwys1aZ8e1ikGNHidl1SK+9eTEc+xyiy+iOE7qFXj0/wV+RNk1M9Z/Yx8cJ/ELZEDemqU/TqKC+guFdUHdjW8UN5z6yPU9zLrHIk5iECcBAAAAxO4lTmqz1j5dIn4Zd6SPvoDyb8+FZCP/zC0tRo+p6rV5MheLG9hG9BU8e8mATdtElO5MH11ha5MlTQPjJP4FmrYo4m/hTPQX3oCvr6ZGe/GJopJxUirC4KNaej2AaCva2Es0VOgf2YQ+nQFK32vWkl6OJjHh2LDBCbN+GbJ/+u5MEMOFzQ1DX62ys3AtpGCtkWRj/oI9jJxNqZNu2ySnsKH7lmwM3yVOugp5jEgbVPE7V2dsCqoBcVL2kv2HE9ZogXfG73BBbUUSpnmnM17giaiFTR6UiJMS3b4oPraJTyXDG0Ld1hdfSfJ088b8CL2T2FwwRI2niO4KXLp7M3H6QE8c6fRUun6mRoqTWA5CxKXuhFz8UeK5QXFS1Lhd6RV4eFiitYtXzswqlGgWBqyWKlaiEgYHlr5Ucnm6mjycrCWzi5Rds0Kn40zHd9eYFOhh8h303Re6sdm7g/AGtmwd37B7WXESLYE1KVWRzvkWxxInsVPW7QnFLh+68719Zg9ejIvxxiqUeX8bFCfx63raLL+gd+lOxbvbrXVQnES36S5LQneeZh7Spa6yS7+6qpvs6WP0MpdTl3lQM7sFnnXlZqxzaMWgUtdaWl/FCDJqEd06vUoTl1t41L2IOkF2987w3dE7s7lnrXPojb2vwGP9odUoBsRJdA8apVlBmDKcqFpmnPqMPcw6U8k4KVXnHyDESQAAAABjN9JXrjAML1Jff/tdNNijcdSi86UdnPu1N5qU60zFTZsUq7KQV4u7XvsiDL7Vy8+lzkTLiTZP1mLRHDGCsubUj1th9pJ0RcflwiT9Sq0ar6vuQaNxVK9tl4vzfGqJJ6U6/559rVXGm0yTmrXvB2HY9tzSE5G2i2p8AZ5DSfr7Ruus7R9WzDmRpOIkQZgolPa8dtD2P1p0071/yb9oWOw5aIrx1qkdsj1x2eOl+HTR0aZ5S4Y8KbleO7xk2y0qRIyaVZ5dyAvSol0/CcKLdnOXvtOZLPxaSBH1UolzE661rdNTID4xyzu1xnGzeVirvmb//iytxK2m8IC1yozNeuNrcNc4iTZXqtqkIM1bVVrOHyumKgq5wVNxZy15PR37XFbzRFmpNs/CMGg13uu0dVfY4E3KsFGkjShWYq32SdN9pUndZwjyOEnISdrbun8etL84RVq2c1bccE+1vtq1VXq6C/R007PmfSipE0Iv++AP5zbf90ojgX6QPZZLWbKqe3VasI19p7yiijlR24pLiLXKJjV7v+F9v2ucRDezZ0o5UV2v0GrDHlHHplRPz5HUwZ57RSvnRr1FD/m4atJa0h1uk1GFks1CXkuJYlaPWwEt7qOKMUNLuBxNspU6nKwlM4s0umZzYmHNdtgl2ajtsOc/0qvYOo5OD08iJrXyAb0Ar8KzZnVJFqZ5Fpa5e5lxUlQCvCKdBsFJo7Io09tdJ04K6m/5U/ajJdNGiZNSVxDvIkSeWu6hx+5Q9PKhRz9nOp/p/bBV36AXo9jpM3JjFcq6vw2Mk6J50KnC+25J3O3WOjBOYuGvwe5apei+xiaGp3v7uuafh+F3r/ayQGugGYXm3yraBJGXKg1a4KfpAs+4crPWObxi9FXOtP6KkVmLeA+szn3js5O6iL6UlZygrDrN03bLq9mLsth9OGDGOjNu7KkCj4SNYbnYpVdZNXisds3AOIme7IOinOs+HWL4qc/Yw6x7bOK+ka7zDxDiJAAAAICxu6+vXOE3t/QsnodBfFKy19V4tgXqwnfWC/F79F3FsI/4d91UmydjMarlrrI8SJjkXVSylmTCk3plXVcm4wVo20BSdWu70Z1QdkCr7MKrrnUmksgR+XnJ/db5jkzfWlbYVNbUVKH0oVqcSsZJRFunDX7+LpEK647X/cd56rReXlL5XLscbUYuWLWT3rfv8KtTfCJ23iXyQjkKvKj2oW0onbfoml+4cW+j63HSVavyjEjryQFiob9n6XOdj9MVTCo6ba11lzivl2h7nv590Q3uHCfRV5+rxXn2VHgyUzDfOxZtYKRGu/QMXXLA4Vy1D8r6bKfUJlXaoOqe4Pa+1XliHW242u47LTl3krRYKvLjYu8+p0Udf6q/9cVPd3ROyZRmvTXlbvYR1oy8QFYGH8XVZav+zlA7j8yjREUr7fSemRce2yzNFGjbvnXnOImdvg/09EmE0KprlD/YyTJPCxobhjLBdyUv6xtlumRcOTOqUKpZeHV1UrOe8+uLL8fKrTMaK3U41PAls4qUimbAifaTIaJq2IeJIwqale5VRkt1zqh0ZjfP2OgNcVKyIuWIsmJbvcFubBxWt09Zn1HipNQVRN/b0tndI8eGm0VdWsyXerzTtAJvNrs15MYqlHF/GxwnXQW1ld60aNzdbq1D4iS6EEstu8++DJqbptq9u9Kj2+rtfHBkJwq8ZCi90YVDr1xm+DqHV4z+yplwrWJkVt2rwNsyexfRS1PtXURB4x0L4hkiaW9qlaXEeMmMC2fojT39/zKKd/OJZ0bvw6ZCGxLQD4mTaDGzYDcnmR/5KR5+6rP+1zP0Hpu6byTr/ANE9x5xEgAAAMB43e9XruDM909ST4npuWi3vvr+afSk/uGGLxYGQZBMam5c4WUYnLX8r632+Q3b7Ana/le/NWj58Lzlf2v1b4zHSWzW5DBoffPbA771c2xXPY/uyZAFWLkN2W5wyt5qJw98kPauLk4nhpl0hN9pCfCTMqjZHJwHN52PLMGJl9rnaPjDoNk0Rl8yIQxOfP9bO7i+55dB+5vvf0/vei+gCdsnfuvs5gOjJ42d0+vrP7LUbotxsJCdF49uZdAZpRXvPBhY4KMJaMVOnXE2V/G16XuTMqvfiFWI1XBaCftKlbp2OEOXzCjSyCU7NR4tt0GfpdjHaXUdVKoZG70B32h/baHCmvl08FCp0aWuoIsgutXwOIk/2S0qjWHHmlGFqBFvmKMb/dY6iugaHHyuw/jyTD5WPzLwyu0avs6hFeOW11pWLQpZ+bCLKPmwhcgF+//CsOsrY53DbuypAv9sKXmtF7yOw/BTP/R/PdlnqqtT5x8gxEkAAAAAYze+r1x/E7px0i8XNq05Ud/tdjr4Gdhgk2kzGhJItQ+KSk4cMAX4bZa8u+v9fe7m0neWCvFMMb8G6wUjLlRbcSM5aL5RuxNywT0JvQ2t8KZvDqP70YuT/sZdj5N+C9fjpDEK6muyvN57HBvcF8RJAAAAAGOHOOmHPJw4ibZLDopyd6qgn+PEMWYImVK1RUOfV8QcUVbdTgiSNvqSd3ZfcdJV2Pr2U1O569r7RSXPxkDpS7qmSoTI+lbfvOrwo4ITf0xteMRJMcRJN6L/B5kx4pmz4V4hTgIAAAAYO8RJP+Si1divX58I9hcJmju2232+289BS+BD1X5Xtjeqtd7ksoOMvuQdBf5hrZ6Ygua3Fp42a9sV+23Z3nIbicm24DdAz91+82HOT/xzheyS/PKLw9lbC1vN/Vrzp0Q8rYNKNTmDGNwfxEkAAAAAY4c4CQAAAB4TxEkAAAAAY4c4CQAAAB4TxEkAAAAAY4c4CQAAAB4TxEkAAAAAY4c4CQAAAB4TxEkAAAAAY4c4CQAAAB4TxEkAAAAAY4c4CQAAAB4TxEkAAAAAY4c4CQAAAB4TxEkAAAAAYxd95forAAAAwKOAOAkAAABg7OhXLgAAAIDHBHESAAAAAADA7+qPhPhPAAC/LcRJAAAAAAAAAABwC4iTAAAAAAAAAADgFhAnAQAAAAAAAADALSBOAgAAAAAAGLu//vWvp6en8QsAgN8c4iQAAAAAAIDxOj09FQThr3/9a/waAOA3hzgJAAAAAABgvBAnAcAjgzgJAAAAAABgvBAnAcAjgzgJAAAAAABgvBAnAcAjgzgJAAAAAAAAAABuAXESAAAAAAAAAADcAuIkAAAAAAAAAAC4BcRJAAAAAAAAAABwC4iTAAAAAAAAxuv09HRmZgZTcQPAo4E4CQAAAAAAYLzwZDcAeGQQJwEAAAAAAIwX4iQAeGQQJwEAAAAAAIwX4iQAeGQQJwEAAAAAAIzdX/7yl9PT0/gFAMBvDnESAAAAAAAAAADcAuIkAAAAAAAAAAC4BcRJAAAAAAAAAABwC4iTAAAAAAAAxuv09PSPP/7A3EkA8GggTgIAAAAAABgvPNkNAB4ZxEkAAAAAAADjhTgJAB4ZxEkAAAAAAADjhTgJAB4ZxEkAAAAAAADjdXp6+qc//QlzJwHAo4E4CQAAAAAAAAAAbgFxEgAAAAAAAAAA3ALiJAAAAAAAAAAAuAXESQAAAAAAAAAAcAuIkwAAAAAAAMYLT3YDgEcGcRIAAAAAAMB4IU4CgEcGcRIAAAAAAMB4IU4CgEcGcRIAAAAAAMB4IU4CgEcGcRIAAAAAAMDYnZ6exr8BAPz+ECcBAAAAAAAAAMAtIE4CAAAAAAAAAIBbQJwEAAAAAAAAAAC3gDgJAAAAAABgvE5PT//85z9j+iQAeDQQJwEAAAAAAIwXnuwGAI8M4iQAAAAAAIDxQpwEAI8M4iQAAAAAAIDxQpwEAI8M4iQAAAAAAICx++OPPzB3EgA8GoiTAAAAAAAAAADgFhAnAQAAAAAAAADALSBOAgAAAAAAAACAW0CcBAAAAAAAMHZ//etfMXcSADwaiJMAAAAAAADGC092A4BHBnESAAAAAADAeCFOAoBHBnESAAAAAADAeCFOAoBHBnESAAAAAADAeCFOAoBHBnESAAAAAAAAAADcAuIkAAAAAAAAAAC4BcRJAAAAAAAAAABwC4iTAAAAAAAAAADgFhAnAQAAAAAAjNfp6enMzAym4gaARwNxEgAAAAAAwHjhyW4A8MggTgIAAAAAABgvxEkA8MggTgIAAAAAABgvxEkA8MggTgIAAAAAABi7v/zlL6enp/ELAIDfHOIkAAAAAAAAAAC4BcRJAAAAAAAAAABwC4iTAAAAAAAAAADgFhAnAQAAAAAAjNfp6ekff/yBuZMA4NFAnAQAAAAAADBeeLIbADwyiJMAAAAAAADGC3ESADwyiJMAAAAAAADGC3ESADwyiJMAAAAAAADG6/T09E9/+hPmTgKARwNxEgAAAAAAAAAA3ALiJAAAAAAAAAAAuAXESQAAAAAAAAAAcAuIkwAAAAAAAAAA4BYQJwEAAAAAAIwXnuwGAI8M4iQAAAAAAIDxQpwEAI8M4iQAAAAAAIDxQpwEAI8M4iQAAAAAAIDxQpwEAI8M4iQAAAAAAICxOz09jX8DAPj9IU4CAAAAAAAAAIBbQJwEAAAAAAAAAAC3gDgJAAAAAAAAAABuAXESAAAAAADAeJ2env75z3/G9EkA8GggTgIAAAAAABgvPNkNAB4ZxEkAAAAAAADjhTgJAB4ZxEkAAAAAAADjhTgJAB4ZxEkAAAAAAABj98cff2DuJAB4NBAnAQAAAAAAjAsiJAB4lBAnAQAAAAAAjMXAMW4zMzMY9QYAvzvESQAAAAAAAOPypz/96c9//nP84urqL3/5iyAI6LIEAL87xEkAAAAAAADj8scff8zMzNBf/vrXv56env6Zi94CAPh9IU4CAAAAAAAYl7/+9a+CIPz93/99NOqN/vcvf/lL/B4AwG8LcRIAAAAAAMAY/elPf/rn//yfC4LwL//lv8RINwB4HBAnAQAAAAAAjNEff/wxPT0tCMLf/d3fYaQbADwOiJMAAAAAAADGKBrjFsFINwB4HBAnAQAAAAAAjNef/vSnmZkZASPdAOCxQJwEAAAAAAAwXn/88YcgCBjpBgCPBuIkAAAAAACA8cIz3QDgkUGcBAAAAPAboG1RAPh9/f3f/70gCPS/8WsA+D1hvGoX4iQAAACAh45+eaUNUQAAAPi1/vrXv8b/b/6bhzgJAAAA4KGL4qS//OUv9BcAAAD4JRAnJSFOAgAAAHjo8BUWAADg18L/i/sgTgIAAAB46PAVFgAA4NfC/4v7IE4CAAAAeOjwFRYAAODXwv+L+yBOAgAAAHjorn+FfV91b/yJFwUAAIAfhjipD+IkAAAAgIduYJzk/cdvGT+IkwAAAO4R4qQ+iJMAAAAAHrphcVIQBP9XR/L3f/8ffcRJAAAA9whxUh/ESQAAAAAP3bA4KU6PrkHvJAAAgPuFOKkP4iQAAACAh25gnPTv/v1/+j+Y//P6f7/8+6+IkwAAAO4R4qQ+iJMAAAAAHrqBcVLzH73/Yoj/6R89xEkAAAD3CHFSH8RJAAAAAA/dwDjpr//w5e/+bmHgz1+P/x3iJAAAgHuEOKkP4iQAAACAh25gnHR41Pz69T9//U//ufff6Oc//efDRhNxEkBPGLS+et5Xvx3Ef/g1LsP2ic93I4z/AgC/D8RJfRAnAQAAADx0A+Ok+v/v33754sU//0vnF/57/X/8t4iT4CG6bJSmBbJai192fXd0Iqhvvfjl/Qk811pSJUIvIC4nyvPF6vFPT5UuW/W3hjrZ2Y9oN77c827U10Si2t5l/PL2QneZCLNW8+5ruOarrRKx+Cl+BfBbQ5zUB3ESAAAAwEM3ME76V//63xz/w//8D//wj9f/+9//63+DOAkeop8bJwWHlpoXyKxubdUanu9/9RofbFMVhbxaPv6Z/YPC5muVEFl/7dSPPe9Ls/7BNuaIMKlVT+Il7oW3ZZqv3Fb86g4QJwFkQZzUB3ESAAAAwEM3ME76uP8/ZPwgToKH6GfGSUG9OCMQ1Wqcx3+IBY2SIpD56g/ELrd0WS9OCdJ6PZVgnVS1vCC/bsYvHwTESQBZECf1QZwEAAAA8NANjJNu/IkXBXg4RouT2keV0mJBmZUVVTNeVpvfoz8z4beavaqpiizPFYxXTrMTFQWHZWOt2vhU1lVFfV6qnV61d3SSk0uHA3ohtT6WSxv1Fg9Nmu9NY6Pe3DRURSmsOj7942WrsVnSnyryLF2VaX/041Vc+s6aUdr1o1fMccVYtmp898JD21itNj47pQVVmVUKi6XqUZsvRN+rmROCtJaOk67azd2qc9gLtVqfKsUFftRP9dJmo93JdNJ7+P/a+3+axrqT2Imr9r5lLNuN4MrbNI2X3d5JYevALkbFSFe41ezsDRsB6Lw2NVWWZ1Vtpex+7e5XKk5iR7RWbbLRgmwl6vNi9XNw9b1RWWPlrzw1yvvxprKOHXESPCKIk/ogTgIAAAB46PAVFh6JUeIkz1bzorpWcT7W3O2yPkPIswpLea6uQq+iTQri06K967o7ZWOOsM5HfAIiFh5NyPK0XFgy9QWrfhGwZGSq2BiQJqXUVokwQz+o6iuGtu62r1rOkiTkFeNt1d1z7LWCmBO19x5bDd35GaIk+hOFH01CChU+YC3Y1QmRpClZf+vU9p3ykkyIUjqMZkcK6muykBPV1bJz4LUGzZjU2jWknKislKsfXGejqE4SebUWRTJ9e/ht35SIUv7C32Na1eeELDh04eTcSf62TleortnOnlt9o9O9Ud802VFcNMtPCJnWSpuOu1e1FmQyUbC/RMWUipPYEeVleUYxXlecbdtQiDBd0J7I2rpd3baLT0Uhr1VPO0sOO3bESfCI4P/FfRAnAQAAADx0+AoLj8QIcVJrUyMTZu0ieuMqOLTN9QrPjNrOokjUMg9FuDPHmCTqO9ZTh8VJAtG2up19fPsJIU8ryRFt4fd267QV/5zFT1djYU1OLcd5ylV4UJRykrnX7coTNl4pwoTunI0QJ9Ed2Oxs8LJVmWdBWKcDj+++1OQ8vY75PNxP9OI7p9frKqiZU4K8Xu8GTcFBUSZy6YjtVd8e0j1K7cZJpUBEY499tBcnXbDhdfJad4XsKMhMqRFe+RsFktcq3+I3ri79yjNCnlf5AV+LkxJFGu6boiAoUSZFfbXVHDE+sldZx444CR4R/L+4D+IkAAAAgIcOX2HhkRghTgoPS3KOyPNFe6fWPO1kKNSFa0wI8rrr9TTsZySaBYnFSaRgJ1IS+4lAnlYSg8JYwMTjHC4nl47YX1lYk5gtqPFKFqaKqWFpXpnlJnvhCL2TdCcxLq+1pf3/2fu/0MiheL8T1EM9nIeCWMQQa3ESCwxBD4booW/oGjqJBZ2MtTGJBQ4YxZfr1DiMU+uwRnQeupbe3U5hlp7CDx7hGRrhGxrkZJsr546H6t2YKc/Ed6s36ZAapsOUHwzlBzPV7PpBC34QwQ/ec45UVVL9kavddtvu/n4ouqtKqqNzfufP7+vfOToiWd2J79zkN2sf7dKaoSkiy8p4rhg+Y+6wIGVEYycqFeNzWR8TlNfMID05pNQ2ZDLNYkMUFh6iGebRt2446diSM1L+kH0ZEf28xZYyPbMq0WUY3roiZA2XZaQvnBQ36WdLoWl2AkMXtMqIvst+llZ2hJPALwR8cQ8IJwEAAAAAPHYgYcEvAovICGTRjYdrGGe2Roi6GQZ//Pr7gjYtsqCPQCTVsD7w3YvOyrlYOKiLUqxfheGkeOzGdxfYzW6xwFDQ/FytHrJXZVMXY+Ek8rzUjjoF3hIRep61z0JdfJHOjeEkernYD4M9gx3thGOStI7L+pQgqCzz/gdjYMnE1Qo9M5lDTr2oEr4t1BV/txbd0tcJJwX7JsnQpPm3cej5M1HiCaJS9IeTNLsTJPpsKWzBVPSpN5w0rOwIJ4FfCPjiHhBOAgAAAAB47EDCgl8FvmhoNnEPGoOtfCH6+84tZpTA/1p1t4vmc0nIyPlPQRjWyb1rBEnCdTd94SS+QCb8YT+f8kPCSdeVVbFnKRC/m4zHTfrCSSwMFA8njZle7GqtHS0Mx7TeG/KEHm4zFKf+RhUIWxbEoz+KdRyVqE20pGhAOIma8TmRVir+56JCFOtz9G13ddKnvJSRrePoe0bgty5oivwewHmnFV2iTVTe/nBSbM1RejhpSNkRTgK/EvDFPSCcBAAAAADw2IGEBb8KQWVVYls48xBMm6D+WhUy0fbS9W1TX3G68SYetsi9a4Qra8I9pyOuGvaybm6ytTn94aRrv5KfEoiS986jL9oEbHumIeEkno5aiq3rYZGRMG9XNWs68YC22iulva6Hh1QyssV3O+L47iLb6YkFd3iwTH3V3fSJ47tLkjBVqNITeMQqFy3O4py7hXnD2mdlHRRO4sGySbO4pkSX4HTDSee2luVGa9NisSHNPuP2nzA9fo8dJ6htGvqyzRP5gXDSsLIjnAR+IeCLe0A4CQAAAADgsQMJC34d6qVcViDTurXjVY6q1U9ueV2TiSAtRCGk1p4hZST9XbXpB4HfrL7VRMJW7tBDzfc6e87aK69xEQTf6t56Tmxvmz0gnHR97R8Xc+OCMKEar2z3oFo9qng7xfwsvZogPitUeJipN1jjVwrThDwruF9a9PKN/aI2IYjzYd5YlEQY14oHjdZ5o/o+r06QxOokQSAzpvO55V80K5vswWr6blQmb5k92U1ZsOy9SvW4Vt13iksqK8t2eGWfnZBV87v11mXgn1SKLyVhLAq6DQwnsbVaY/TqiZhRN5xEi7Eqh1n1L/3mkW1ME2nRZZbi9pfmS5VTP7hs1XbzChGU9fB2uR8IJw0rO8JJ4BcCvrgHhJMAAAAAAB47kLDgV8I/KpvPpe5uQVlZW3ca7Ue5XV+3qm/06CFogkAm1Px7/px+hl/bMtXx6JAwrprb9XCdzcBwEiU4rZRXdaXzE7YZk27tVFs8YkLpD9YEJ25htp09IuVW7OgalBM3r4abOgnijGnvWko2Fk4iOXNdZ8EqCs3bVq27BuiqWXlrqBPdQouKVnjfTfj6suGs5jpGERWjdBQtwxocTrr2vaXuo/pDYuEkWoxYghlRWSx3ctM6LBlKVApWwDWX701F+YFw0rCyI5wEfiHgi3tAOAkAAAAA4LEDCQt+PYKLZuNrvXHSDB/Y30vgN08ajdNWe1ufGFd+ix6iP+w/NIyrwD+nl2vy/YNGIvjGz+8GuToE/hnPWPQxoht88ZtDCxX+tt5onnfjSAkuW82vjcbZkF/fAr/V+NpofhuQHsvJ18agAn43o5UdgCcPfHEPCCcBAAAAADx2IGEBeOT0ruX5nfidyw5+K+CLe0A4CQAAAADgsQMJC8AjB+EkhJPALw98cQ8IJwEAAAAAPHYgYQF47JzVvP1a8/e8z+t3Ljv4nYAv7gHhJAAAAACAxw4kLAAAAPCwwBf3gHASAAAAAMBjBxIWAAAAeFjgi3tAOAkAAAAA4LEDCQsAAAA8LPDFPSCcBAAAAADw2IGEBQAAAB4W+OIeEE4CAAAAAHjsQMICAAAADwt8cQ8IJwEAAAAAPHYgYQEAAICHBb64B4STAAAAAAAeO5CwAAAAwMMCX9wDwkkAAAAAAI8dKmH/4l/8i6Io/u8AAAAA8BD8hb/wF/78n//z/+Jf/IvIN//2IJwEAAAAAPAEEAThj/7oj/4vAAAAAHggsDopDsJJAAAAAABPAEhYAAAA4GGBL46DcBIAAAAAwBMAEhYAAAB4WOCL4yCcBAAAAADwBICEBQAAAB4W+OI4CCcBAAAAADwBIGEBAACAhwW+OA7CSQAAAAAATwBIWAAAAOBhgS+Og3ASAAAAAMATABIWAAAAeFjgi+MgnAQAAAAA8ASAhAUAAAAeFvjiOAgnAQAAAAA8ASBhAQAAgIcFvjgOwkkAAAAAAE8ASFgAAADgYYEvjoNwEgAAAADAEwASFgAAAHhY4IvjIJwEAAAAAPAEeNoS9ir2+jW4wxLdYVIAAADuE4ST4iCcBAAAAADwBHi6Era5rRGa+zgZIk6p+rpTv4zOSaG1oxGiu370cShX1cKkQJa96GOHb45OBPVNPfp4BwTuYm+BBCJKM1p+u3ZjNinxEv2gce6ek3KOEPNjEH5qHTvul/AtAAAAhJMSIJwEAAAAAPAEeLoSlkVMMoq57VUOKvzleXtOaSUnZgRp2bsx/vJIw0kTRmk/LA4rkbtbLsxKQkbUd5rRWcPpDSf9gHHunm+etWSWj/n7M5tmtBNaAgAAgHBSHISTAAAAAACeAE87nETU0tfoYxvfW5aErO58iz4P45GGk6atWs+9aUHNUgTyvNSIPg+lN5z0A8a5X04TK5UAAAAgnBQH4SQAAAAAgCfAj0jY1lG5MJ9TphX1Zd4+qjqrhrXfot/7h0Vjxa5+KuoqPVTwztjJft0tLmmqIsszOWPdrrUjGv6norFYqnbvwGq664a5zcM05561WHCOq+UV9kPlhWG9r3fiP0MiJtf1N6pAcuWT6OOw6/aEk4ITr7TcPm3DqV1E348YTmqbQlZULX4VyrCU+6w0JJx03bJfJr4fluAI4aRe41DrOK9MTZXlaVVbKrpf2yGeVMvTLDT2S/mXKivvcz3/rtLs5tmvvbeMF4o8RX8VO8QSNNjqpFO3MKewRVLPdWPDY81leB31mKj8z/LGcrkWC0MFRyVz0ao8bHQMAAB+GIST4iCcBAAAAADwBLi1hPU/FRRC5DmrvOvYG7o8JopZktti92S13utkTJYn5dyCqc9Zlctr/8hSs4I0Wyjvuu62pU8TouQ9HgXoCetcX9VLKhFXK+w933BHmhCVpZK77zmvNClDcm/rYTxhcMTk3MsrgjBtVflJI143qJe1cUF8ni/R094XjRmasFUNszRKOIlmOSuqK2Xno+fuFPUpQl6UGzyMkpJyn5UGh5OiIrTvUEtL8MZwUtI415e14jNCJrXCluPu2dacTMZypS/8WJrlg/o7TczQ8pacPdd5YypjgrTghGGj5o4uZhXjrePRX701lCxRXvH4T2fvpIua+8aQM4Say95jIaq0Okqa6F/9dwU5I+U/hbmn+N6SSE19832AAADwuEE4KQ7CSQAAAAAAT4DbSthG6RkhL+3OspTme10UYuEkgWjbnT/zG+UXhDwrRXEgypmtjwvyBgs03BROEqRFN1zDcn0d1F6rZMxw+XocFjHJiMpL3Vgw+EvXZ1U5KwjjueJhmNyI12058yJRi91lL+eOMU7Ut/z2shHCSc0tjYyZXnuBlX9YMlfLPMSTlnKflXg4KSvn5sPiGMa8rj2XxYwgqnnvPDwnNcGecNINxrlubOZIVuuuVLri5nppM2unWJ4WfExQ1qOQFMX/aEoZydynyfruQjsFRlDbyuffVtoJtm9wS9zsllpHPSa6Yvf9SctedO6Fa4wRbad9NQAAeLIgnBQH4SQAAAAAgCfAUAkb+P63Vit8XfidP/Yjztluyvr72F/yvmvEVyeRXKkTp2CRF6LxQ20Cd1EU1GL96sZwkmjuxy7+pagQMX/AvgkjJuqcYS6ZxoKmjAsCkY3NSqOT1IjXvXSNMUFedetdqqUXhMza7JcjhJOCw4KcIfJsvvTeq53Fcpuacq+VonCSoi2arERzqkQEYVIr7tVbnfVK6Qn2hZPSjMPvoSPPrEqUDsNbV4SswVIYbvlg3xQzSjH+XDZuImmtSt/W36gkI6nLRftjLXat4eGk9DrqNRFPf9wMV2qxo2MPvQ8UAADcBQgnxUE4CQAAAADgCTBMwjbf5bpPmie609lLKKReVDPE3I8+MVhMIR5Oiv3ka4mdHK1GiahuyMJkoXpjOCmbjFzwh4Lpu+zs3vu5LqrWMyJM6HZnA6ARr3tWjhU1hsIiGqxcUwJZdBOpUHhO1M1wg2y//r6gTYv8Z0RSDetDg52fmnKvlcJwUuxmN/9zid3X9qJU62wslZ5gTzgp3ThX9eJM9OsEJFc+TbM8v4pmR6ulQvhStdBEQcPd0JVxnku2PKpgf+YZGhZOSq+jXhNFcS7jA02zac8ScekhnlIHAAB3DR0yEU7qgHASAAAAAMATYJiEDb5WnF2n/ao2E3/vs7hGGFyIPlIuPXNsSDiJhw8SJ18HlRUxDJ2EQZDuyfyGptjqJLlwxL8P+cpiTWH0oTdiQjmxtXGBqFYUfxnhuiz4whfI5N41giTXUVinUXomkNm+DXo+W0omuT7rOvC/Vt3tovlcEjIy2+InNeUbw0mU1gdDygjySiUqQ3qCKeEkSo9xwhjQvNOK0mgTXn245f0PRs+KoajKlnmVhVz5zWPPfpPXpogwbrjfwgQHhZPS66g/nMQXVYk02+yHUrhODQAAnjoIJ8VBOAkAAAAA4AlwSwnL1rYQcaGzt861v2+y3ZoHhpOuqtaUIMUXkgTVwrQgLrLQh7/LIiRsRUzIN0fPxsNJnRVADBYlyWo2f1TcgIjJ9XVjWxMzRA23f069bjf4wtfpkDmnGxm6atjLurkZbg8UVFYlgV60k0NGUH+tCu17vurbpr7idONNF1HQJz3lUcJJ9Cx3kQenDngh0hNMDyf1GCcs10R04xgnqG0a+rLN1mSlWJ7FlYi2Ewuvhd+wqm+4a7qxFT3tjsLvjJOt42Q4iccijfB9eh0NCCdd+x8MccwovdHIVKG7gRMAADxlEE6Kg3ASAAAAAMAT4NYStrVnShlRXS17h1Vvu5CbIIIQbYLTHwVobGliRtI3q00/CM5r9rJCiGId8WDAl6KSEZRlp3bWata90rwsJsJJgjCWK+zVW36r8dHKjXeX6gyMmIT7SQtELfInlKVcNxF8ea+LGVF75TUuguBb3VvP0V+Ze+2gTb2UywpkWrd2vMpRtfrJLa9rMuGPM+PHW3uGRK/yjl/Fb1bfaiK9yjG7SkrKo4WT+GbbE4IwXQiLnZbgTeGkHuOE5ZLmS5VTP7hs1XbzCmnvsZ1meR7hGtes/QYtbqvuFp6JwlTeYwUJqmsyPVQ8oIeumcEXZGGSR6zi4SQWbhOUFadyzBa9pdXRoHDSte+ZE4TwZ8ZF3wAAwBMH4aQ4CCcBAAAAADwBfkDCBo0Plj4jEcJ2Cyp+KNE//cPHbA2KAvjVd4YyRq/GEBW9eNBZ3uJX3+rsoWMUImmvvfJCfCtuoq0WchPR0dyqU29vJDQ4YkIJoz/Pw4eFDb1uPPhCT6ttmep4dJowrprb7Bn2HfyjsvmcbY0dkZW1dafR2dLoulV90y4CzeaEmn/feVLZ0JRHDSfRku7oYqbzMLXhCd4YTqIkjHPdOiwZSrjlEzfvmsv3fLrB8teXdXuF7xROyRD5ZcE96Ra3vKjQ3IaIM0b5mGcoHk66brrLMvv1eL7CvhheRwPDSeG6qoxa6q6CAgCApw0d/RBO6oBwEgAAAADAE+C2EtZvfm20uvGUcJfoTrxgCFd+86TROOt7ThzlstWgCcZDOJQwBrF/fR2wH/YeHZ2U68a58lv0tJOm3xfQCQkumo2vdXbCwIR4JhunrWj7oTg3pfzd3GmC/lmDGT9em6NY3mdV1rwYYAv6I3qocZ5WYYHv+/ErjlhHDLYGirzo280KAACeLAgnxUE4CQAAAADgCXBbCcs2chbn7GYUzvBrr9XOrkZ3RieoAX4yj9jywYmtj4v6bnf/KAAAeOognBQH4SQAAAAAgCfArSVsaz+vZAVR0fQFXVMlQmR9O7pT6s5AOOmheJyWv3CMCZFkujfrAQDArwHCSXEQTgIAAAAAeAL8iIQNzmreTrn0pljadqun9/D3/WWzul+pf4s+gZ/HI7V8q7pdKm17iX2tAADg6YNwUhyEkwAAAAAAngCQsAAAAMDDAl8cB+EkAAAAAIAnACQsAAAA8LDAF8dBOAkAAAAA4AkACQsAAAA8LPDFcRBOAgAAAAB4Ajw6CXsVewEAAAC/AQgnxUE4CQAAAADgCfBTJGzgLRHyotyMPg6lua0RmqE4GSJOqfq6U7+MzvmphA84+xjtMt46dtwv4VsAAADgzqDuDuGkDggnAQAAAAA8AX6KhP2ecFJGMbe9ykGFvzxvzymt5MSMIC17D/A4r2+etWSWj/n7M1uLhZYAAACAuwLhpDgIJwEAAAAAPAEeXTiJqKWv0cc2vrcsCVndedjn1p8mVioBAAAAdwXCSXEQTgIAAAAAeALcWsLW3pnGZqW2ZaiKklt2Gmy3o2Z1q6A/V+RpRX1plj422qGX3nBS81M5P5dTpmXluV7Yqrba2yQNCSdd19+oAsmVT6KPwYlXWtZURZZncsaGU7uIvr8+96zFgnNcLa+wo8oLw3pfj61pChr7pfxLNbxu/l2l2dme6bLhvjY1VWY5n8t3c84SNNjqpFO3MKewRVLPdWPDa/GDft0tLrWzsW7X2tEu/7BorNjVT0VdpXYolP9Z3lgu12JhqOCoZC5alYeNjgEAAHg0IJwUB+EkAAAAAIAnwK0lrLdMhClZnlT1JUNbdVvXTWdBErKK8cZ2ozvURO1dnUdREuGk5q4hZURlqWh/cJ3NvDpO5OUoQDM4nHTu5RVBmLaqYVr1sjYuiM/zpV3XfV80ZugvrGoYNOJbHUkTNPGSu+85rzQpQ3JvozzU32k0S+pKydlznTemMiZICw6PKLHVT2RKL+643ke3vKKKGTl/wFPs7J10UXPfGHKGqCtle4+FqPwjS80K0myhTLOxbenThCh5j0eIWu91MkYtI+cWTH3O+lf/XUHOSPlPnXiS7y2Jo6zVAgAA8JuAcFIchJMAAAAAAJ4APxROyqjFL1GUJDjISxnJ3AvjQpSguqEIY7pzzt53w0m+Z04I8mqls2jIP8jLRC4csXT43kmi8lI3Fgz+0vVZVc4KwniueBj+ouXMi0Qtdhf7nDvGOFHfNth7Fv0RpEW3nYmg9lolY4Z7cX39zdHHBGU9DEkx/I8my/C+f31VyU+0U6BcNZw109rrJNi+wS1xs1uj/IKQZ6UwUsU4s/VxQd5g+WLhJIFo2+140VXNUtjeT9G5F64xRrSdjqEAAAD87iCcFAfhJAAAAACAJ8BQCRv4/rdWK3xd+J2wSQcWTpq2au37xaobsjCRr8TPqxfVDDH26FexcNJhQcqIxk69y+cyC/S8rtODYThJnTPMJdNY0JRxQSCysVlpdIJPl64xJsirbvRbRrX0gpBZmyXOoj+iuR/LxJeiQsT8QRDsm2JGKcafy3ZVLUwK0lqVXtZ+SYQxxdgou4eNVrwIw8JJ3xydEG0rvsAocBdFQS3Wr3g4ieRK7VvzKPU3Khk3w73E+dqlh94HCgAAwGMC4aQ4CCcBAAAAADwBhknY5rtc95n9RHc6+xO18ZYJeV5qL+lhASNBLdU7uxFRwpgLW6TTDSf5H4xusjHE1Qr9Re/NbhdV6xkRJnT7azvGc1aOZSuGwuI4LPqTTcaM+OPY9F2/tUP/12y2VKpDo/SMkEWXJX1WKS6qUpjymKytlKthuGdYOOlrSc10VipFsIDaZKEahZOSFuNxLuODz0JXs0Rceoin1AEAAHisUOeDcFIHhJMAAAAAAJ4AwyRs8LXi7DrtV7WZiJwwkuGk68qqGF+sxODxF33Xj4eTgn2TZBTrOEhyfc1/OGDvpBNbGxeIatUu+Uceosq9a0S/axP+nEdt5MIRfx/ytaQS0fwYsDBWcsVQeA+auMzCWBGXzfqBU1rT5axAZvlaqmHhpG7ROgSVlcgCA8JJ1y37JRHnnRb7oZQ/6LMmAACA3xiEk+IgnAQAAAAA8AS4tYTtCSfxGIpaYresRbAFQdH9ZbGb3XggJrfZ+d319blbmDesfbaX0MCtuBvbmpgh6iu+XdJVvTgjkDmnu/PQVcNe1s1NvikSj/6oscRZglnNPgvjSkTbYVmICL/Zal5/86wFvcg3bwqpbcjCmFkJlzt1QkhnZZo5I3x/VbWmBCm+yCioFqYFcdGl3wwKJ7FlWeKYUXqjkalCdwMnAAAAAOGkJAgnAQAAAAA8Ae4qnHTtVwrThDwruF9aQeA39ovahCDOOzx+EwsnsceoyUJWze/WW5eBf1IpvpSEMc0+ZccGhpOur9i+1wKJtv1uvtfZM+NeeY2LIPhW99ZzYmcLcBb9EYSxXGGv3vJbjY9WblyQV8Jtv1vuoiSMa9Z+ww+CVt0tPBOFqbx3wUNUKs95vRVcsUN5hYhhxCoeTrpwdCIoK07lmC3Vamxp9Lr6ZrVJkzuv2csKIYrFY1IDw0l8D3JCskR5VYu+AQAAADgIJ8VBOAkAAAAA4AlwZ+Gk6+vgxC3MRhsQCUTKrdjsifr8SCycdH192XBWc+3zBFExSkfRYqPB4SRKvZTLCvRy/Elqfm3LVMejnwvjqrndvg6P/mirhdwEP0TzsOrUw7vkKJd1e6W9QVKGyC8L7gmPE9H8fXXyz0R+gB+aK1bCXZbi4aTrprsss1+PhzuO+9V3hjIW/oaWQi8eROUbHE66DiqrkpBJLOACAAAAKNSPIJzUAeEkAAAAAIAnwJ1L2OBbs/G12eoEcYZx2Wp+bTTOBjwzbiSu/NZJo3HS9MNdk0LC6M8+zYTfPGm0ureixfBbja+N5sWAy/rnjWGHOgS+78eLdsUuNFopguqa3I2pAQAAAG0QToqDcBIAAAAAwBPgl5KwnXDS4yM4sfVxUd/tbvoEAAAAhCCcFOe7w0nUdgAAAAAAP4Gzs7NIfwCEk34CF44xIZJM52Y9AAAAIAHCSXG+L5xEVR01HwAAAADATwCKLc4vZZDLZnW/Uv8WfXo0tKrbpdK2197hCQAAAEgAcRLnNuGkP/7jP6ZvAAAAAADuDyi2HmAQAAAA4GGBL45zm3ASzAcAAACAewWSox8YBAAAAHhY4IvjIJwEAAAAgEcHJEc/MAgAAADwsMAXx0E4CQAAAACPDkiOfmAQAAAA4GGBL47zo+Gkd7Z74ys6FQAAAABgNBBO6gcGAQAAAB4W+OI4dxBOqv8vJykvhJMAAAAA8L0gnNQPDAIAAAA8LPDFce4mnOT7/v+vTfz9f/hfGggnAQAAAOB7QTipHxgEAAAAeFjgi+PcTTgpih71gdVJAAAAALgFCCf1A4MAAAAADwt8cZw7CCf9u//wH/8/jP9v/79f/sNXhJMAAAAA8L0gnNQPDAIAAAA8LPDFce4gnFT7t/X//RD+X/+2jnASAAAAAL4XhJP6gUEAAACAhwW+OM4dhJP+xz/78p//53MDX//j8ReEkwAAAADwvSCc1A8MAgAAADws8MVx7iCcdHhU+/r1f/36H//X/n8PqzWEkwAAHYJvjXq90bwIos8AADAEhJP6gUEAAACAhwW+OM4dhJMq//p/+vKl/uXf1/v/rfw//yeEkwB4AlzVrGkirVejjylcNrzdSiv68F0E9U1NytAhRBCXK4gnAQDSQTipHxgEAAAAeFjgi+PcQTjpT//7/+H4z/7ff/Zn/7b/33/13/8PCCcB8BRoOGtm/n0j+jSc6ppE1FL9Kvr4HQSV/LggzZdrXxvNb4gmAQBuAOGkfmAQAAAA4GGBL45zB+Gkj/v/j5QXwkkAPBx+45NdWMg7Z9HnBJfN6nvLXCp/V2yosireMpzkuwYh2vatFjbdTMNeNqydavMy+pzgm1uYL5T3G/4tsg0AeCAQTuoHBgEAAAAeFvjiOHcQTrrxFZ0KAPhp+I3KVkFXRCEjKnOlqh99HRKcVu1XhjouCFlZ2/B4gKfhrBr5Hb466dyzFgvul7qzYeRmZFnVzNdug4VpguqmkZsiwpiizRvlz+zca7/uvDI1VZanVW2p6H5tLzu6YgkW96vOSk5Rcsba/+HvzalSRpBU3Vi0vG/0jKB5UCos5FSF/lbJzeXLh7FI00WNJ6uEyXon3dVMzU/l/FxOmZaV53phq9qKIkStymtNzgrCuKKv25WTZIEva+V5RcwIZFrLv/PqF9HXAIDHDMJJ/cAgAAAAwMMCXxznR8NJAIBHhf/VK6+xwAqZUI1XduU0fltZ0PxkWzywIip6YctrdAIr8b2TTso5IsrTkrJglXfs0lpOygjyRpUm1DiwCy+IMKlbWzRlFqYpPiNkUitsOe6ebc3JZCxX+sKvGCY4LUszurmomf/XXXvTVDOCslSyd7y6f93aM6WMmFstO3ue+75kPhOFbK58wn567VcLM4RM69aO634o5+mhCcM9Z0eauwb9lbJUtD+4zmZeHSfychgO4/iNyralz4RBtEL5oBGPKgVnVee1qU4QFkRbKXlfkiEnAMAjA5KjHxgEAAAAeFjgi+MgnATAL0PLXZZJhsgvzNKHWiseR6L4lcKMKBBJXbScw2bPwb5wkiAtue1wi+8uEGGmGN7gFr/ZrbGZI1ktigFRrhrlF4S8tFl8hyUoCNOFaufuM9/VCdF2wuAPzaoiLzjdSNDXkpohxgd2zcY7mmw7tEQ5d/QxUdtuXvueOSHIq5VOHMg/yMtELhz1lCZoHjnFpZxEBKLk+UqoGEGrtlfKz3JDLTjN6FsAwKMDkqMfGAQAAAB4WOCL4yCcBMAvQ9N+yQJGueWSe9wbTbq+cM0JQRhXjVdO9az3YF84iei73cU7tQ2ZTBWqveGklv2SkGdWpd7FW1eErMECUTycJC573SslwkkxLv1mveptmUqG6O/p0ZYzR8isnQj0hHe0HRakjGjsRNdifC7rY4Lyus4Pd2kvRKLl1R2+rClO67NbWuHBphflm/ceBwA8EJAc/cAgAAAAwMMCXxwH4SQAfiGu/MZ+ufCSLb2RnhnF98mtqS+b1Z32vWDzlv0pdi9YXzjJ3Offc2qvlAHhpKt6cYaOB32QXPk0SlDeqPEEOD3hpIuavaarUyJhPxGVZ4oUhZMapWeELLp9Ea9r/4PBTu5DXK1EZ1wHzUPbWlCju/m2K8m73Vq13aL5XGLrkmbzpY917MwNwGMGkqMfGAQAAAB4WOCL4yCcBMAviP+1Ul7TlTG+NfWGW0887yyMuYQ7KGmFnRoLudwinBTGfeadVpAkjNHcEE5qlGdFYVKzdrxavekHdHApayQMJzXLs4TMOfFAkP+tRc8J9k2SUazj6Dpt6LXYKfXd9tbj84VEpIwSNLxXRrRr0mqZbd0EAHj0QHL0A4MAAAAADwt8cRyEkwD4dQmf7zajs+VCfQSnVeeVob7gmyJ9RzhJImq4j1JA3wsTptcNzgS1TUNftjsJDg0nndkaIbl33VvNgoO8lImOVtdlYSJf6YTAaFIKkdaqwSnLWG4zdoPauVuYN6x9vqbppapv2JXYM+C6fHMMBc90A+CJAcnRDwwCAAAAPCzwxXEQTgLg94YHiUYPJ9U2ZGFcK+1X69+ur+ulXFaQ5kuVUz+4bNV28woRlHX2DLgbwkmXnjkuiC/LfJ1Q0DwqG9OE3Sa3xXdM+lrWxoiyZNfOg+Ci4W3kRKIW2QPjfG9ZFrJqfrfeugz8k0rxpSSMaXYYLAsLAgD4VYDk6AcGAQAAAB4W+OI4CCcBAL4jnBQcl3LjdBgguXcs9NM6LBmKSD8ziJRbcxvh8qD0cNL1dXMvr9J0MoSw56/pxY9eUSXiUrTUiSarK9FGSWQiV/jY3pj7suGssl20Q0TFKB1FCQIAfjEgOfqBQQAAAICHBb44DsJJAIDv5CrwL/xojySOf9ZofG20Ejs0jUDgN782Gmds66RBBP5po3HSGrBh9mUr9YcAgF8BSI5+YBAAAADgYYEvjoNwEgAAAAAeHZAc/cAgAAAAwMMCXxwH4SQAAAAAPDogOfqBQQAAAICHBb44DsJJAAAAAHh0QHL0A4MAAAAADwt8cRyEkwAAAADw6IDk6AcGAQAAAB4W+OI4CCcBAAAA4NEBydEPDAIAAAA8LPDFcRBOAgDEuApap416vdH89sCPTQsumiwfp634I+QAAL8PkBz9wCAAAADAwwJfHAfhJAAeJ4G7SIRpq9YbTGmUnhHy0m5FH++Oi5q9rivjtItHiIpe2K370eGfh//Fzs/KJBNlg0yoxptK826DSiflHCHmxwcOmQEAUoDk6AcGAQAAAB4W+OI4CCcB8Dj5ueGkc89UiDCmGK+dynG9cdKoHTjFeYVkRG2rEZ3zczh3jAlBfJYv71VrX+r1I89e16QMUdardxnY+uZZS2b5OPoEAHiEQHL0A4MAAAAADwt8cRyEkwB4nPzMcFLLWRCFMa30pWe1TstdkoRxw72IPv8EmlsaIVr5LPrICaprspDVnW/RZwDA7wAkRz/UIJubmwcAAAAAeCAgTuIgnATA42S0cNJlw31taqosTyvqXL70sdENCPl151V4SNWWiu7X9pGrhrNqFPerzkpOUXLGu1rwtaQSQX1Tj06I89WxNsrVc/bWPywaK3b1U1FXFfVlweMRH7/uFpc0VZHlmZyxbtfaER//U9FYLFUvo4/X10133TC3+SXOPWux4BxXyyvsh8oLw3rfvaWusZkjJFc+jT5GnHj2jtc5KTjxSsvti244tU60i6fsHnmFWUV5plv/N5oHy+OZjzh1Cgtm+UvAzzS6q5MuatxWSmgr76Rjq1Ztp2C8oN/TIudLB03cHQfATwOSox9qEAAAAAA8LBAnHRBOAuBxMko4yfeWJTKlF3dc76NbXlHFjJw/4EGXy1qRnjapFbYcd8+25mQylosWH13VrGkiTcvSjG4uauZOs7mtkYxS/MIOptB6r5MxWZ6UcwumPmdVLq/9I0vNCtJsobzrutuWPk2Ikvd4RKm1oxGiu50o0VW9pBJxtcLe832LpAlRWSq5+57zit3LlntbjyI1X8u5rECm9cI7t/q11R++CeplbVwQn+dL9KLvi8YMIaoV3QjH4mKSPC0ps4Yxp5f+1NGzRNtq8mOM+luVTJjeZXLvJL9aoIlM69aO634o55+JwoThsiBUq7KqkKysv7LdPbe8rklE0nd+7q1/APzGQHL0Qw3yJ3/yJ/8bAAAAAB4IiJM4CCcB8DgZIZx0VclPEPVtO8Bx1XDWTGuPfWRrfLJa+SQ8wA6VX3R+VbOmBWG60Fk6VN2QBaI78Tva/FbrrNmMXq0WD9awcJJAtO1OdIan+azUjgPRAcLWxwV5o0a/uCmcJEiLbvt+vaD2WiVj3VvqWkclY0akQw2FjCvaklU+6Ky6ajnzIlGL7Boh544x3jYCX2YlLnYu67uLInlejgx0VS/OEHmtyn4aCyc13lFb5bq2Onf0MZEV89hSMqKx284mzecrhUWjOoUCANwnkBz9wCAAAADAwwJfHAfhJAAeJ6OsTmraL/n+2Rtl97ARW8nTot+TZ1al3sVbV4SswQItPJwkLnud06vrveEkFmCKEQZrWDiJ5EqdsMs3h36Or/3heRYFtVi/ujGcJJr73exefykqRMwfxL65Dlr1ivPOys+rcpZmgchLLnu426VrjAnyqhuVilEtvSBk1mb5YOEkor/vxnuCfVMiaukr/3BsyUSxwhvcuuGkljPX/nkHbvP6G1UgWuk4ugxj15QyUv6QnwMAuGcgOfqBQQAAAICHBb44DsJJADxOAm+JCJOFak846apeVAUy50RrZs4qxUVVIrRfCsKYrK2Uq9/CZTj8mx7CPYn4zW7yRi1MgNLcyvXc7Oaf1KqHVfb6aOVIPJwUizp9LamZ3mftszgUz/MN4aRs8t66M5udvTtk2c9lw1tXSUY09/zrM7ayaQAKi2HxcJJo7ke/YwTVwhTh20Kx/bwJD3UxuuEkHp5bdBPF4FRWpSjxBMT4MCSfAIA7BZKjHxgEAAAAeFjgi+MgnATAI4UtGgrXE8UJKvnxxNoixmWzfuCU1nQ5K5DZcjMMkcw7rSBJGEnpCydd14tqRlBfD9qK23f1YeGkUxaRScaAgsqKGK6oCsNJ3ZPpRRUhtjpJLhzx70PCMNDH4Pqqas1Iyjq/Hy3OpWtkBeV1LVwSlXvXiErUJlxPFKVzwN+3YXeoKVbNr+Qn2Q+jb7vhpGZ5lpA5J14M/1vLD7j9J/KVy+gSbaJzAAD3DSRHPzAIAAAA8LDAF8dBOAmAR4r/wRAzkrHX2buH4X/Ky5n2LWbfPGtBLx51Ixy1DVkYMytXAVtZk9jlJ6htGvqyzdbm9IeTrlvOgihkc9ZR77qb4EuRPfRtYDjpqmpNCdJS/CLVwnS0dZG/y8I+3Qe0fXP0bDycRNTNdmTn+prtBZ7VbPaoOLY1kjBhOPyxcV3qNBtE22mFC6+6i7MoVw17WTc3eQRqUDiJ/1YpvDal6BKcbjipEzYKD4SRLyKtVb8x+ytWzLz+gaUvFNzO7X4AgPsEkqMfGAQAAAB4WOCL4yCcBMBj5bJqzfCtkd443mG1elRxN/O5CUGYzlfCmA678Y2QZwW33gquglbdzStEDEMt9VIuK0jzpcqpH1y2arv0iBCt+hkQTrq+/lYpqEQgUm65aO9VqkfVyp5dXM6x2+gmtCIPM/WGk66vG1uamJH0zWrTD4Lzmr2sENKOv3wpKhlBWXZqZ61m3SvNy2IinCQIY7nCXr3ltxofrdy4IK9UwrBU8KWUGxPIZC6/SUtdq9FSbxW0SZpwIXx8W/O9LmZE7ZXXuAiCb3VvPUfzYIZBt4HhpHDLcELE+VgQKhZOuv5a1saIsmTXzoPgouFt5Nhe31+C0P5EMe1jWj6/eVQ2pgTyrNjdehwAcJ9AcvQDgwAAAAAPC3xxHISTAHjEnFWKC6rY2S0oIypzlnfajWcEXx32YPvoKJHnihX2hHtG67BkKO1DRMqtudHT0QaGkyiXDe+tqU13tyYiUznztVtvx4/6w0nX1371naGMReeLil486Gxp7VffspvvGETSXnvlhfhW3ERbLbDQGD+aW3XqncVB9JdfnMJLWczwoxQiqYulTrno8dqWqY5HB4Vx1dyuRyukBoeT+J13GdH8GJ3FiIeTuK10JSo4mcgVPrZLcepZL+W2RYj80vJ6lk0BAO4NSI5+YBAAAADgYYEvjoNwEgCPnstW82u9/rUZPrC/H/+80fjaaF4MWDbjn7FDrViw5kaCiyZL7XzIxfq58psnjcaZP+Dyly129Z6UwlDOPr0S++GwQvFSNxonTX9g5q/8Fr0oPRrumnQHBP4pTbDVn2BkkG8DygcAuD8gOfqBQQAAAICHBb44DsJJAICfSyecBAAAw4Hk6AcGAQAAAB4W+OI4CCcBAH4uCCcBAEYAkqMfGAQAAAB4WOCL4yCcBAD4uVw2q/uV+rfoEwAADASSox8YBAAAAHhY4IvjIJwEAAAAgEcHJEc/MAgAAADwsMAXx0E4CQAAAACPDkiOfmAQAAAA4GGBL46DcBIAAAAAHh2QHP3AIAAAAMDDAl8cB+EkAAAAADw6IDn6gUEAAACAhwW+OA7CSQAAAAB4dEBy9AODAAAAAA8LfHEchJMAAAAA8OiA5OgHBgEAAAAeFvjiOAgnAQAAAODRAcnRDwwCAAAAPCzwxXFuE07a3Nw8AAAAAAC4NxzHgWLrAQYBAAAAHhb44jjfHU76q3/1r1ILAgAAAADcK1NTU1BscahNYBAAAADgAYEvjvN94SQKNd+f/Mmf/G8AAAAAAPcJFFsPMAgAAADwsMAXx7lNOAnmAwAAAMB9A8nRAwwCAAAAPCzwxXEQTgIAAADAYwSSowcYBAAAAHhY4IvjIJwEAAAAgMcIJEcPMAgAAADwsMAXx0E4CQAAAACPEUiOHmAQAAAA4GGBL46DcBIAAAAAHiOQHD3AIAAAAMDDAl8cB+EkAAAAADxGIDl6gEEAAACAhwW+OA7CSQAAAAB4jEBy9ACDAAAAAA8LfHEchJMAAAAA8BiB5OgBBgEAAAAeFvjiOAgnAQAAAOAxAsnRAwwCAAAAPCzwxXEQTgIAAADAYwSSowcYBAAAAHhY4IvjIJw0Alf89QMEF81Gvd44afpB9M0jxz+tNy6i9yFREU5bwY+ZAvw8roLWaaP+tdF6bM0u7FA/3K3ACATNeqP1I/WPygIPChRbD9BgtwAaDDwA0GAAGuzXBeIkzsOEk1o7GiG667P3lRWRqKX6Df3Er++5VX4+7ZzuIhGmrVrvTxqlZ4S8tFvRx7vgsCBlaIk7EHFS1dedepSTGwma+yXzuUSinwtCVsotlSrn0eGfxTCLcc5tWhnGh1iRTh19WnfOok/+Fzs/K5O2HciEarypNGNJtY4d90v0vpeTco4Q8+MTUXAj8Z3GHIK3TITJQjW9DV82vN1Kpz0HZ1VnvxF9SOeqWXljqOPtdpcR5dm8/WXUVjsagbdEyItyM/qYQl/n7YGI0oyW367dbf7uhO+w+WMi1iWD6oaiblRv0wOvqoXJqIo6kDFJmTVLh3c5yib4WlKJmP8UfUobW8DvAW11UGxx7sQg0GA/F2iwOwQaLAQa7PECDfY7QKsD4qTDw4eT6tumueGmD4jBnkGIZkcK4CdLGZJbt533Dn3Z2+XSmiYTQZx3RhjBg9qmJmaINFso71XrXxuNL1X3XT43IZDpfCU573TPfJf3bbkLkvqmHn06d4wJQXyWp0WofanXjzx7XaM2UdbbvumM/XyoWPnmWUtm+Tj69Evw86RMdU3qqvyrenGGSOtV/iGdoPZKJUTWXzmV43r9S63yoWTMEGFcs0+jM+6CUaXMgM47YZT2K5WD8OW5u+XCrET1lr4zQq/6mXyHzR8TPV3ym2tMqsXP3y9muJQhs0UvqqlKZd9ztyx9mgjZXKk9QtwxcSmTPraA3wMoth6gwaDBoMGgwehVoMEeKdBgvwcQJ3HuI5zUdBaV3Jta9GkQcSkzCv6HB5QyonkQfQqpv1EFkiufRB+HEXwuKkSQl71WMp/Bl6KaJV2t8DP4Du8bHFnKmO58Cz9dN7foQa3cniXjBNU1Wci2zzn99ea+0vl5UqayGps0vqrR9jSSW72q5CcEabWSqJJTW8sK8qu0XvmdjCpl/FE6b1CzFIE8Lz2uSajRbf6o6O2SQW1DEeec7x4YQymz7EUfO3wt5ejItnGHbSlGXMr8dmMLGAAUWw/QYNBg0GDQYNQO0GCPFGiw3wOIkzj3Ek4qv7ih/ydmxrZMYz2aGQtOK6UVTVVkWVG1JcvhS0Nb+5b+TBIykjpn5N/TsW4kKTMwqQi/7rwyNVWWp+mhovu13VXOPWux4B55hVlFeaYXD/2BUsbf1Qn1MF+vry8qxUXD+hgfIprummFuU5nie8uSMG64A2bA/MpmobjXYFe9ajirRnG/6qzkFCVnvKvxL5vVrYL+XJGnFfWlWfrIzwxPXjEKu7HR/rhsLFoelxTMjJuV+p5l0B/SIq+UKqedIaDXYq2jcmE+p0wruQXL/VSKeV/fXRTFxa7IbGzSwSRX7plROfHsHY+tNj91C3OKmBGk57qxQUVbX3GYSY1wZiw4LBnLdu2rV1ykl5aVF4b1PrZi/bLhvqaVosgzOeO1V9sv0pMHL78fduajM2YaN0mZoLpp5KaIMKZo80b5z+r2sqZkBTKd0xeLFT8yZvWzU5hT2aXnC/ZRux0GnjkmSCtJKXPdqu3azmFXeDQ/lfNzvCKe64Wtakdw196xste2DJUa8R/8s3/2XxjmVlx204yZxiuP5rBHygxMcOTO27JfJr4flj1Kp2vTJlT8WK9shj3u+vrMtRZNO7Yut7GTN9a6k9jD0/Rr7y3jhSJP0TT1/Dt+H8FVr80TDG5srdpOgaXDGlu+dNCMVYFf32WXUGhzWrVrtOLajc3/VDQWS9VLfhaj6a63S0QZnubgIa6nS/Izr79QSUZFcfghyYmTXzCs/UE6Z5iUufSMrCAuV6KP35vD9CJ3pMzAgoDfDyi2HqDBoMGgwaDBoMGgwaKP0GAPBMRJnIcPJ3Xv2w+qlsKWJdsfPG/PZmsvx3Xn/Dqoe+VlVcgo5lvbYeP1CFJmSFKMy1qRnjapFbYcd8+25mQylit94b2P9SJJnpaUWcOY00ufB8yM+Sde4RkRX9rcBzbt2eTkAE8hfxCwUWBCIAtdTTCYq5o1TaRpWZrRzUXNZAtNm86CJGQV443t7jmllZyYEbV3dT5QVgtTRIlNbgQfzY7OoGYUxiVpUrPe0yKXTZUIU6bLx8oei/mfCgoh8pxl7zrldU0aI0Roe98L1xgj2k5s3PhazrHRXC+8c6tf+7aTu6i5bww5Q9SVsr1X9/uLE7tvn0nArEy9hbZesnfKzPIZyfzIr3vVKL8UhTGVVfH7Uv6ZKI6LwkS+0lvFqWc+NmOmwqTMRN775vsX8VetqAphG24c2IUXVO7o1pZdOW1WdyxtQhBnC+Udj8oxrqclaULW3zjevlNckAlRClR8M/zKiixkRHW56BzUm4Py0tw1aMNWlor2B9fZzKvjhE3h8kMsY1OyPKnqS4a2+s8PNmQyme/KIt81x0luk4mSuJQZluCIndc/stSsIC17YWZTsnd97pqTgqiaZdq1dwraJDWCIK5ytxqfVOFU1yWiFMNrpaTZ3NFF2kjeUkt6zltDybKGEVz32jzBgMbWqqwqtIXrr2hjc1ljIJK+E2rloPZGpfWlvXK8j05pUZEmJbHd2HqXCVzVWTHCEqWkOWyI6+mSPJWotQ+cjT+myRBtuzuGdRksZYL6O3b/iB6NEt+fw/QidypxYEHA7wcUWw/QYNBgXaDBoMH419BgaWoEGgwa7B6AOIlzd+Gky5q9ls+v0pfJbk2f0fn7fOFNewyKMVjKsPCtXDjiZ1DOPWu54PDe53/vQuvhSbGpnqzWXSZNXeOL9q9YLxLi80JcyggCacO3QiTUq7UXHreYR8mV2qnVXytkqsC2XPvm6ESIe0qabf+82Txrv875kx7YgCgI04VOkDg4yEvUwe91bMZ2cRPG+BBwo/clajHUZJRvrjFOlNfh4BW3WKP8nJDZcqNtvca7XNf70vISxaIaLkbrqGTMiKzktOzjirZklQ9iA3t8MWRfcXqljEB1UnvQvKzkJ9l6YPrW3zeljFz41Db8ZdWaEQZKmbQzH5sxU2GKYQhRa6TZGL7QOjLmVtuYV81yXFUHDXddk7M8uYwoP9Pzb51aJMXojz1zQpBXu5M9/kFeZv2FlZdlLBMrO+tKXJ1z/A+GmNVs1v5jUiY1QfqT3s6blXPzhrHAX/O69lwWM1Sd5L3wnNTUaq8UNuHcLkvw2VLob2+UMmlp+u5CewRgBLWtfP4t330zZaF1f1OnmiAjGrvdxkazSiZMps7oaDBG1NdcQzNazgJtYCNImZQ0hw9xg9Yn+858vIyjwaWMMJXTw5pilaXlFJE2PHnRidr8rXI4kpShYKE1gGLrY6hBoMGgwaDBoME40GAsHWiwITmEBrsTaOeGOOlwd+Ekv2K91LRZ+srJYwKZVPl7TVt2wuBwnMFS5oI6DD4Js+lUviQmYQaMhulSZmhSbD0neWZV6l28dUXIGiwzrBcR/X2nh4VShqir5fIWf70rFdcNlQo1xXSjYZc5OfUt76BsdGt7x2+2RpK3SXNx0yVrejT/fEAUl71ODqsbMnPM8cLXi2qGGHt8ti3V+yZve+YD9PPQt8UsdkGzEXOBlNit5rxeOnaOE7TqFeedlZ9XuYMk8pIbPVikT8rEi9MrZdq55XAdsMROrq5JwpQVX3XMROEgKZN25iMzZjpMMYxrxT3P+xh77ZXN6ZGlDOlur0Bpbmskqzvxhf1+s/bRLq0ZGnM/gjCeKx7zjLFWLRo7UftnfC7rY0Ko1VjGEp2rUXpOqFX5L1vOHBHnwzvAY1ImNUF/gJRRtEXTXDKNOZU9cWeS2qHeXfaclhrLTGLC+Yr1+pulTGoO629UkpHU5aL9sdaIV91NUibe2Ph2HlrpOEqesUtlt5Q/pJLaFDNKMfYXAm1so8yMpaSZMloOVADVdVmgf2V1q3UE2lLGWKKVZejPZVpX4vOCc9y93O1yCCkDRocOXVBscYYaBBoMGgwaDBosBBqMAg0GDXaf0D4NcdLhMd3sRke947L5InoeKpnMmW+88B7QntGQjqED7nm+om5KIO3dzgYnxR4TwL7pJRxWeC8y9/nvQ/gI2HPffvC1lMsK0lr43MegsiKRmSLNf3BYkFlJwpPYVnzJMbdVP6xW2atiL8kxKUPk7oZqvGgd7xXCNBBfCXmj902u62ZeP/JJMe/L5Rrz5R2uPHMs8r5sYidUdSlcNrx1OvSL5h4/r1fKxIvTL2Xi3pe1Ey5lWPbIs8QWgC3qmAdImdQzH5kx02GK4Qe2gWTGTNqHP7xj6O6kreOyPiUIKmuoPu1NUbtPEPoSmrGe7RiZSAp3oDiztaxohPUekzLpCbKjw/8O8T+XtHFBfFGqtaeY0lILBUTo8yLYnM8AL8jpSJn0HLKJxA1dCZ/pmxGVlwX7My/jDVIm0dQrqxJPsgfWGPpE/PX1Z0vJ3ixlUtKkR4eNlgMVAFX8wviAvw3S4FImttA6aLw32J92690JxtvlEFIGjA5tPFBscUYwCDQY+xoajAENNgRosBBoMGgwaLDbQa0KcdLhcYWTQoJv9eqHsrWgiJlodSsbibqjIY/y9ntcqh7omBiflhmQFHcV804rSBJePZQyceEySMqEeojM2uGESHBEFYxiffZpr44mChhsP8X4itA4bLHoYCnDvFd8oGfw/qzv+v3el5sl5n0TDw6gnkZkXp8lFfMf/LmP+vvYiZeukY2GHua0qNrozK5cVa0ZSVkPRVsM9hNBec1zcgdShg+IyVI33qqDpEzqmY/MmOncgZQZM+Ntnfcpzf523XpvyBM6XwudgE9isF4T7Jsko1jHUdtvQy/BTuuXMkz/jbHFtM2tHDN1pDm6UiY9QT/ReXulDKX1gTpIQV6JHGRqatw+i4ly2y+TXjDWW2k9ClzKpOcw4spvHnv2m7w2RaKe+z1Shg1KzDhR0m3YIXp1WpHF8I+ckKOC1G5s4WAY63TsASthiVLS7NA/Wg5UADU2S9zf3lLplTIUv7KmCBlJ343GudvlMKXIkDKgByi2HqDBoMGgwUYxZjrQYB2gwZKdDhoMGmwkIE7iPKJwUnBUMuYsr9O+6bD1nMkOelZyNGQfxYxkdO/HZvif8nImWvU6PKmA+cLwttKIoLZp6OFjKUaUMvx5n13NRMe7GaJslPJTiQ0Ug2OLPaR20enbQK7lLknDpEzrPfX31BzRRwqzVUYpfglPTjwtgkmimPdNlOuSuWq5PX3X9R/hqLHU1YFsQi8Ted9wzGUPTIloOfM0WcPp8Yv1okrrIyzsWZnWpfFjUsbfM9hY37lX/IrVFxsiaYaTpJ35yIyZzmhSRmIeMDyHCWgircWkTEa2+K3sHCado5PZrexEZRsZxvFZqwuX2nIPwbdybHPuFuajR0sMkDLst6I4X7Sed4xA6UqZ9AT9m6QMrRZ3URIycv6A2y0tNf6A5KmOnKKpeyb9Ayb0gryxMZ0awVbyh1ImNc2Gu6YbsSensF5AbXvca/MEfY2NFlOkaqlbI9f+gaUvFNwTLnmziQX59bdUVkaNjfeL6D2DCkc6vPASpaSZMlomumQEr6zear2JAVKG5qBamBbYmMAr9HY5TClyQsoMKAj47YBi6wEaDBoMGmwUY6YDDRYDGgwaDBrsu4E4iXMf4SQ69PcGR3sYKGW4RCDKslM7pz/3G/uWmo1GH37jq2xsVapf+W/Y5n/s+Z3GG8c7rFaPKu5mPjchCNP5Sthzhid1XefLpOdLlVM/uGzVdvNUcESTP4OlDMmt2fZO9CqHgfNs+0EkHDY5kyVkLO6nKUF9W5cygjijF97xfH7ynM2CroiCQJQl/uzMft/vVwrThDwruF9aPOdF9lyD+fBBm+Fsm1Y8aLTOG9X3eXWCdEYE5n0FQV4oV898/6xqL8kkmytHoiThP9gzFDKSvllpXvitY9uk5W8vjAynetoraRnBl1KO7cKQy2/SItRq1NRbBW2SPcKiGp7F7l0XlBWnctwM+oszmpShpmLD3JRe3K1UP7mlBb44c5CUSTvzsRmTXv6Naay2N8xLMoqUYbMZ41ppv1pnRuOe4LnlHtab4VNF6JVmTOdzy79oVjZpSxPb8xUtb5k9VURZsOy9SvW4Vt13iksqe6LKdujLfHZCVs3v1luXgX9SKb6UhDHN5mUfJGX4hppsG9T4FqExKZOaYLLzDpQyVFg4Buu/BT47lpYabVHaGOlUTXlepjUVecGgmqeul1Z3vdk6rbkbmpRtS5m0NLk84i3BD66D85q9IAuToZBN2DxBf2PjgxJRTPu46Qd+86hsTNHMFPnej35lVSbjOWuv3vJb9b2COkYrr+3LvxSVjMAGq7NWs+6V5mWx49dT0kwZ4uJdkn2muR2uyU6cwqJZPAhbXJKBUoYW5oD+0ShIiy77ze1ymFLkuJTpLwj4/YBi6wEaDBoMGgwajH4HDQYNBg32gECcxLmfcNJNDJYy1DF8LOQm6RDNyUrauhs14YtKQWXehcy3ZyHOKsUFle9ux6ED95zlnXYb/NCk6NUPSwbTExwi5dbcaPJqsJSJTgwhE3KOeojwtt4Op2WNCOJSbL6tTevIthb4XnchhN0VXP7UGWL6BkQ6sp64hdn2L2j2VuzuExpP3Dy3A0WcMe3d7t2/zPsqRmGR+VJ2VNGLnzrDU4//8KubhkIHU0pW1jeLVGK0vS+f1VxN7Jzof3EKL9lzHyKIpC6WKu1ZSvoTd5ntD8fuCr68rZShfKuWlnPyGCHjsrZq23ToH+DpOcPOfHTGZGuAh+29N4qUCY5LuXGaLsm9Y4KhQZUxzRDXE9yYOXNd56anxlfNrVq3+V01K28NKs74MYaoaIX3sSd9Xjac1VynWYqKUWJPkGUMlDLU3RfYbf9RP+XEpUxagsnOO0TK0NbARGH7j4qU1KjFj0r6ND+WoX8SFAylvdCaWnzfykWlpnKn5L7Vom0gKSlp+rXyotJp4eKMUQ73y0zaPMGgxnZ96lkvowphGXhpeZ0p5aDhrubCS5BJzVqlA2BbytAm9FaPHgFDJO21V17oliglzeFDXKxLht+wiUEp/yk6nODYkulfa/GtTDsMkTLUzN6yJLAnTHMD3iaHw4sclzL9BQG/H7T+odji3IlBoMGivECDQYMlgAaDBoMGgwYbCWoYiJMODxNOSuMqaJ02Gl+byY3yGf6Fz5/sGuOy1fxar9OTu4N0jOFJUfwzeqjR6qzY/BHYQsrugzwHEPgsJyfN3vwPJ/jWZDkfkL2A5fy0t0xMEfIby4PzAUcHEPjNk0a/3Vq7ujgZW8jagZmaF2GQxQLfH/j9qHxrNM4StuFrjOOOs83oZ8Z4KGNSd28+b6+Uvh1XAW320b4SlEu/dcGy09WFfnN4u+Klqzea5wO7R7tOk/b8IYYnOKDz3kha9oLWSaPxLbiO7yAYcuVHhwYyPE1ah3RAaPTbqm3zEQkuWDrNQRlgh2hl0XYV23M04rLFhqMhFTU0zeFDXLxLNt/lwq1q749b5DC9yB1+dGwBTxwoth6gwQYADQYNBg1GGZ4gNBgFGiwBNNiPAXES5/GFk54efnVdIYrVc5/0TybyvtGnHyCoWTOivtudiPgJ8DullULn7t8zx5gUYreIdxn9zB/hjowZ1De13Ot7aRd904y/K/1S5ikwQMrcH6xHS8bP7dEA3BWQHD3AIH1Ag/0o0GDfCzRYBDTYjUCD/aLAF8dBOOmHqL1WpTEiZGQzuSflz+fOpAx1kwd5eebnKrOgXn4pCVlZfWkYczl5TBCfFSoD/fToZ/4Ad2VM/7RxU9z/lkDKREDK3ERrV5dnywM3jwDg8QPJ0QMMEgca7G6ABvtOoMEioMFuAhrsVwW+OA7CST9EUHfLm2XnqLMnwIPR+lLxjnofYHJb/Nr7ktt9tshP4cpvfHLKm8Xi27KzX2+ljLyjn3lb7tSY98NZzduvPXyze3iCxqFX+fLUpn3OafVVf0r1tao7Ze/nTMEBcA9AcvQAg8SBBrszoMG+C2iwCGiwdKDBflngi+MgnAQAAACAxwgkRw8wCAAAAPCwwBfHQTgJAAAAAI8RSI4eYBAAAADgYYEvjoNw0sMS+Kf8qSgjbZsftOqNxOb8fMf+OtuZHytuHyWXrUa93ji7p5v374hH24quYi9wz9CBqHERvb8NqCxwP0By9ACD3CnQYL800GA/Atz6TwQa7MkBXxznyYWT/PqeW41cQ+AuEmHaqv1A52Eb/nUecXrZ8HYrt7gDOLGpW72oZoj+foRkrhrOgkyoQQWi797s7VofTeUFe3Iq46pZeWOo4/zXlIwoz+btL7FEUsuSKPUvTXBWdfaj/RzvotTf0eT8Q0sd47XzA03UWybCZKHa+/NG6RkhL+12/cY7RaLIN3BjK7oDAm+JkBflZvQxjdax434J33I790BEaUbLb9fuNn93w22HjoclZvBrf58NL/VbqNmramEyqqIOZExSZs3S4b2ZhF50iiivauGn72jz4KlBmxMUW5yHNgg0GP8ADTYa0GBpQIPdFdBgSaDBfgLUzhAnHZ5YOCnYMwjR7PPo049Lmfq2aW644ThbXZNu5+puKWU+W0qGaG+qjZPGzTNjfiU/LRcOw5EmqL1SCZH1V07luF7/Uqt8KBkzRBjX7PZ+b+lliZf6V+aqXpwh0no1/HQXpR69yfnOPD3TdL40Gqe3d76jSJlEp0gWOZWbW9FdMLKUObM1QsyPUQtndp4wSvuVykH48tzdcmFWonpL33l0LffWQ8dDkjA4pVmelbSt7xcEXMqQ2aIX1VSlsu+5W5Y+TYRsrlSPzrpj4lLmO9o8eHpAsfUADdYPNNgjBRosDWiwOwMaDBrs5wNxEuc+wklNZ1HJvYlilneL/+GOpUycyuotZ05uKWU+5en1iqN19cZmjjxvPzb1qpKfEKTVSmcQYpzaWlaQ26HiW5fll+KqVlTudowbvck1yy8IWXQTdfT9jCJl/HinGL3II7Siu2BkKXNazvVImX47BzVLEbod4dHwJLtbwuAMf9+UJk3ve4V3KGWWvehjh6+lHBHkjXtxBEkpc+fdHDwioNh6gAbrBxrskQINlgI02N0BDQYN9vOBOIlzL+EkOojf2LCC00ppRVMVWXmuW7v1yjvT2KxGveqqVdspGC8UeVpRX+ZLB9HDHFv7lv5MEjKSOmfk39PRLDHeBYclY9muffWKizllWlZeGNb7OuuVVw1n1TC34pIhqG6axiuPeoL6lmmsu032jZGbIsKYos0b5c/8LL/uvDI1VZanVW2p6H6Nj/l+7b1Fc6goqr5mV3eoLxkoZdili/uN6nZBf0aLqmorpcoZP7CTN57LJCMqs7qx5vCBPmjsl/IvVZb553r+XaXZGRkD1m+1rbY7CDxzTJBWkk7oulXbtZ1Dek5fWc49a7HgHnmFWUV5phcP/XapKUNzGNI6KhfmqT1ZRdhHVXqytT9YpQUnXmmZVag8kzM2nFrnHuDw6l/qzoaRm5FlVTNfu43uTGDQPCjl2SVYqQvbtTD1GmsPldqWoSpKbtnx/uu8sVyuxQocHJXMRavyjdfgZqW+ZxnP2/k/5edd1e1lTckKZDqnLxYrfqeuQ4Zae2hD4gdHanIXleKipowLwmROXzBKRzw/32p2aAHWnCxntPXMN0qZRKf4b72eIoc5rH52CnO0pEpuvmAftavvhlYU0fxUzs+1a2er2nkkcLKC/pu9/8o0Vp24wqAZMxZLVb9XygxO8NQtzCliRpCe68YG7ZjDJGPLfpn4fmiro4c6I8wLo/ixXtk0zG0+CJy51qJptxcYU1hnjPogY3iaUa+Xp2ianTYzaOiI0dOS2Y0SQ8a3kNaRHfW4edpIqvZy1H78T0Vmz27Habrr7RJRUtK8bLivw3FMUefypY/86cu9BucElfwk0QZOPF7VyktGd4iOM0zKXHpGVhCXK9HH4W1pcA7Ti9yRMn3dHPxiQLH1AA3GgQbrBRoMGgwaDBqsCzTYPQNxEueBwknnrkFbv2IUdxznXUGbFMUxgSy4vB22KqsKycr6K9vdc8vrmkQkfYcNkkHdKy+rQkYx39oOG5ET452/q9Nf0VFGWy/ZO2VrjgoFyfxIkwxqGzKZzHfHbN81x0luk6XZuZe7cWAXXlC3oVtbdoWKkstakXqLSa2w5bh7NkttLFf6EiYR1F6rNHFtrezs2ta8ImaJMFDKXNWsaSJNy9Izs7hl229NdVwgz9i9960jp7yWIxlZf122P1D/HdTfaWJGVFdKzp7rvDEV6mYWnNC/Bp/ybB3nV/ae41dWZIGevFx0DurNvt7bW5avJZVI8rSkzBrGnF76HLuDfXgOKf6ngkKIPGeVdx17Q5fHRFrSXEdRxQjqZW1cEJ/nS7uu+75ozBCiWtGd5CflHBHZ1Res8o5dWstJGUHeiMbExo4utUttv9Zl+rvXTLEwFz4ly5OqvmRoq+7ZYUHOSPlP3Sr0lsTQQdKyCOOSNKlZ7z1vr2yq9Iem+42e06zuWNqEIM4WyjseHR1j9+2nWXt4Q2I/HKnJXTa87aIxTS2ZL2/blROqY7w8NeW0bm274YJhklWto76a64PZYSLvffP9i/irVlSFUMokO8W/7SkyyyGRpAlZf+N4+05xgRpYKRyG172hFVGauwatHWWpaH9wnc28Ok7k5cjt9VTQyb4pEaXY1QdNqjnInEMbdlzKDE3woua+MeQMUVfK9h6Vg4OljH9kqVlBWo4mb9Ja3blrTgqiapY/eN4OHWGoEQRxlbtV1h3E/Cd+Gqe6zvIeXislzeaOLmYV4y21pOe8NZQsc6W0RfZ2tyQ9hmoNH98oUY9bKDofPYd2hwlJIsT4wC7f2tEI0cMhknFVZ8UIS5SWpu8tS2RKL+643ke3vKKKGTl/4PcZPIRWlkhm7QE9/Kpi0pFh4EzvYCkTdjGi74TtJaUtDclhepE7Uqavm4NfDCi2HqDBWILQYEmgwaDBoMGgwWJAg907ECdx7i6cdFmz1/L5VfoycxMCmdH5+3zhTTT2xaHaQpgwuL9hBHxJXiRlji0lIxq7nR8FtVcKmYiW//nDF1qzUVuIhXUvK/lJto6Uvf/CFuLlD6JmThMRs5rN539i7i2xWpItbM5qZeqEQq4abN1suLT1m6OPRR6X03LmxeFSRhCmC53gbnMrR/NfDqee+ELrSKCwNAVlvRt49j+aEvWL+6zY9TcKGY9JMUrQcNc1OUtrg+/e90zPv3VqbXtSEis/2dgtiIvdMSEpZYblMJp+CR08pfleZ+UcIGWYBYha7Fjk+twxxon6lg+mTMoI0lLn6r67QISZIrs6raMJQV6ptA8F1Q2FTBWoFZgDyKjFSDvyfCrMh0WfL1xjjNY1MzKTMvTanTO/ufTSyuswfJ5Ygdktdaq10xrS6E0uXGi9FGWYtmFhLHY/fFAvPSdMMkafh8LsMISoNdJsDF9oHeWwU2VXzfJsbJ4qvRX5nklrZ7VTO9f+QV4mcoFP1PRWEJ+85a6FwxbxisYe/WlMyqQmOGChdVbOzRvGAn/N69pzWcxQdZL3ou6f1uqYwcdjIwzbI2MUKZOSJmu3HZvTJGtb+fzbaOvHlIXWvYZKG9/4IDNb7vS4xjuNVt/NUiYlTbacvt0TKVcNZ8209vjHvoXWlOa7HBkz3O5k1AhwKSNMsUngdmVpOUWkOZcX+UwgJaXqh+dwNClD3/+mC61/E+jgBMUWZ6hBoMGgwTo5hAaDBoMG40CDMaDB7gHaayFOOtxdOMmvWC81bZa+cvKYQCZV/l7TlhPLLxlX1NsTseOWGE2bjrBcytTfqHTsLR3Xu+wyN5M/ZOclRu1+v9LRE4xGmXqLyJc0qOegV+SdouXMEXHeicagwVKGreckz6xKlAOGt64IWYNmMdg3xUx8EoDtwycOlzJifC3rgcmuEcqXmJTpTzMcIKQ12j+5M2jPViXwm7WPdmnN0NjAIQjjueJx1O/7pAzNUmdI6JUyg3N4znaJiwoS4rvGwJmxSyos6DjlRpZiVEtsUOYhdiZlEo9NYROVVK/Qqx9bbL6L12xEu4zMAbRrNoQ2DDIeKdrWe52M6Q53VKwsiRu5uct5zn3nECmTau30hjR6k4tLGS4Ko4nfiNY2tW6nJQ+F2WFcK+553sfYa69sTo8sZUhkqJAmvW5Wd2ILkoe2osOCRB3kTlSjjM9lJgG5TOyvIFatVBOHBaZ/CUzkK8wjxqRMaoKDpIyiLZrmkmnMqRLN2SS1Qz22Ojel1bH+njD4FauCm6VMaktmLTAjqctF+2OtEa/Lnu6WpMdQaePbhaP39C/eB2+UMqljJpuiFMYUY6PsHiYfcT1IyvAtSNoD1Ii0pYyxRCvL0J+zJyWJzwvOcexqaVU/NIeQMoACxdYDNBg0WPSxAzRYBDQYNFgv0GAMaLB7AOIkzkPc7EZb4UTP9mBs5AqHnsqqRC/RR9Sf/RukTHzUTkxNsBF83HDpCH5ma9kwZs8YLGXYNvXRhRNwv8X8KM1DOLsVQl1ydpiUIXLcFPHZsNh73ml7HBv3f2xlI3s+RXc2Ywit47I+JQgqn3HqGVv52G3u8/ecpJQZkkNekPiv+Jg1SMqc0TExslAChWeGS5l4Oixsz6UMlRQkM3gjTOoAenf7Y+mIvBkw4SsuhaqGlyWpEqprUtQqhkiZVGunN6TRm1zsPRt2hZ4ekVL2OMwR/sA2kCyHVFLEfs4fQZLrTvkmibcilmxUkQlCXzKggthfKPzBN/xvFXktVDVdKZOe4AApE1MA/ucSW//8olTrTNqktLqAC/Qw2QjWiaJvUqRMeksOGu6GroTP9M2IysuC/bk9jKRKmbih0sY33lPCgS7iqpIfv1nKpI+Z12eV4iLXgpQxWVspV8MWO0jKsO6fUay+3QfS4FImttA6aLw3pAxR12PzYOlVPySHkDKAQhsFFFucEQwCDQYNxoEGgwaDBoMGu7HqocFuBbUWxEmHBwknMaEgLscXDvOZKO6QquuywGLqQZLoPNYlbiVl+NpathaRLSSOYvaMwVImdBXzTiu6eht+GncGbTkScliQOjMk/VJmI2aKIVKGlytXijsY+lsl3ESN67zYaNh6b8gTekJLcXiAnM3dUQZImQP+ntMrZQbm8KzMBpLYjNb1pWeODZIy1LY09+8akZXaRNNcw6UMvZaUka3j6HtG4LcuWI0N8JS8kbApTTYEd5fNs7Kw+8M7UN8pRhOJQ6SMn2bt+5Ay/Q0+/O1QSdHhDqTMmNnuA4xIxn27uRVxsaVYx1FttqGXYKcNqiA2HyWtVPzPNAsdd9iVMukJpksZSusDdZCxZflprS4Upolys8YTlzLJ7kDFCrtWeksOufKbx579Jq9Nkc5a7tGlTNr4xq8e3j4QQXtcNiFlulOaYYvlJUofMyMum/UDp7Smy1mBreWm3wySMrSOxBEUdoJeKUPxK2uKkJH03WisuKHqQ/pymFJkSJnfByi2HqDBoMGijx2gwSKgwaDBeoEGo0CD3QcQJ3EeZCvugM1dTHX1xPU5u486lDL+B4OFZo+6Hcw/sPSFgssHfXr0llLm2neXRHG+aD3vxOwZSSkjET4nQFNmweb2ZgGcoLZp6Ms2O8p9c/du7Wj0/yEpw4fXRJrRN1w3dFcmh7CbkInKt6CLQQtIrRqdFivLbaUMc8BEXHA7Iyt7hmVmkJThrjqhJ64a9rJuhs8gSJEy57aWZZ4jOkAHL1aJbNZxkKfkbWPMKL3R2M/bhWd+KF5Tl2yMi6qYFyFcPk3pljrV2ncvZag7XxbZ5gjtPNOferSy4luTDuH7pUyiyCyHVCx2e5PvLlIj8IZxYyviri7cLTXi3C3MR4+VGVhBbP550iyuKd22F5My6QmG0tkYLmVo63AXJaG9R2Bqq6MjjJwYYXzPHG97Qd4gYxqdLY+PpExamg13TTdiDyfiXj8S4onulqTHUH7K+EavTjtqrMcFRwU5E0kZ3tjagwyF6p5sVKK0NL951oJejB2ig4kwZrLJ0oTBI3rVwygMkDI0B9XCtCBMGE7YLFOqfngOU4qclDKJNg9+MaDYeoAGgwaLPndI81zQYBRoMGiwCB8aLAQa7IeBOIlzH+Ek6k541DOFU1sbF6RZyz6oVj+WTVUUMu1tIC+r1gwhimkfN/3Abx6VjSmBPCvWeYLBARs+jK1K9Ss997ukDP1tXiKEBWhjywjjUoZ1oXGttF+t00TqpVxWkOZLlVM/uGzVdvMKHe6ijQNb3rIkjOes/UbLb9U/FNSxaA0243ZSJhymxzWaph8ErbpbeCbSsdjjY4rP9gWIL+2mGWDPg1AWLHuvUj2uVfed4pIqZkRtOxosEmW5nZShl9mj2kVUV8veYdXbLuQmCC1nd0/BGGyHSHr1V17jIgi+1b31nJiRzD1uhBQpc+1XVlk+iwcN/5LWtW1ME2mRDeUDPSXfTI6QbHsI4zApIwjyQrl65vtnVXtJJtlcObIqv3/7ueUe1puJp4qkWjutId1OylwHn4sqzfaSXTsPaKOuvtOpi8pthn7Rr7zhT3jlafYwipRJdopEkVkOaZ3NmM7nln/RrGyyZ7i05ytubEU+OyGr5nfrrcvAP6kUX0qdzSwHVxB1NmO0j8XlaUzKpCbI7lqnXWzFqRzTjA+UMuxvHmOC7Voazo6ltzptjHRaRXlepo0k8oJBNU9d77OCW2+2TmvuhiZl21ImLU0uj8K2SvN3XrMXZGEy0tCJ7pak11Cp4xuf/ZO0N5XGhd/67Jh00Omsl/5SVDKCsuzUzlrNuleal8WOX09Jk8sjXthWcMWaOh3IxFCrJQweElSHabKrennZiP446WGglKGVfZCXM0LYndOqPiWHKUWOS5lkmwe/GFBsPUCDcecFDZYAGowDDQYNxj7GgQbj9QENdvdAnMS5n3DSCPif7fwse7wrmcqZ7xyLtsXOwshTz3rJ9hLjEPml5XW8+EWlQHUP/XaeLQX9LilD+2mB3ZMcCZeQuJQJjku5cZZ27h0beFuHJUNh12IQKbfmdp+AeFm32cMU+ZEJzXpjyj8qZaI0o5tXM7TUBfekfT32EI3wlvU2V83KW0Nl2iJCVLTC+87DJpNlua2Uock0Plj6DFOAkmoUP5SoiRMLQbv4tS32gNuIcdXcbmcmTcqwKziruXapRWWxXOM/G+wpwxnLDM169JnCpIxiFBbZqE8RFb34qZvDxrbOEuf6NV7XKda+DylDaR0U9el2fVH7bFbbuWRrgDtTmj2MImWSnSJRZJ7DnLmuR92JXncrNDDnplZ0fRmrHXbUKLGHQzOGVBB7eLDQfmQPJy5l0hKkFnOXeTbZA3SGSBl60g6VGp0/Koa3OnrsqBQZPENFZMGgDjL0gtTi+xbX5RQqd0ruW639VBHK8DT9WnlRCXs9RZwxyu1dV3uGjjgDDJUyvl379W32yGRGVtbXTerl2x3fr75li5AZRNJee+WFbolS0gy+Onmq1ENoU58rVqKVBXGD8y/4FFO0K2cPV57ZfY54kiFShpqZ/clHheBHXsXDq354DocXOSFlEm0e/GLQyodii3NXBoEGgwZjQINBg0VAg1GgwaDBRoVaBeKkw8OEk/zTepPfnh3Bu1DP2uzgotn42mh+i53Wxr/w/QFf3wVXAU08vD8/xD9r0Gy0Ois2YwR+s3HS9Ad5oNvjt1ip48ZhBJUVqfMklBgBy1690TwfMML0l+U78Zs9BWeb5PXtGxfnym+dNG5jk7DUg+o6CZud6PpFDhMo/C794LzROE08NiHiMtoLYACDrX1/BP4ptU+r1z6BZz4fvEx3dBKdol3krtgK2+rggqa2Ispli7aExtnd9bnhCQa+7w/qa2mktbqAHaLtKr6DYEj4q2FNbniarNfTzPfb6ju7W8r4RnPNuh69QuypIhGXrMWyQ4NIGzNp7xjU1BMG/2wpWa27sPk+GF71w3KYXuQuKd0cPGWg2HqABusADdYLNNgNQINxoMFoOtBgSaDBvheIkzgPE05i6xInzXBdK6V1kFcyotl+0gcYwEk5N3bzroF3Cpt+EefsZjQ6+7XXKklMevxsghNbHxf13YSii6RM9OkpEtQ3tdzrnvvn74a+ubvflX4p8yTolzL3iF9ZkeXV7qNAAHgMQLH1AA32MECDQYN9P9BgEdBgNwMN9sSAOInzQDe7nTrGFCETqjZv6LOKmCHKstt2mWAgQe2V2n2kwk+htZ9Xsmzxrb6ga6pEiKxvdxeb/1QuHGNCJBmBPC+Fdzh3ePpS5to/bdxTtULKREDK3Aj9Y2nKiHZtBODRAMXWAzTYAwENBg323UCDRUCD3Qg02FMD4iTOg3+bUWMAAOIbSURBVO2ddH3ZrH6wS2+LpU3b6+5DBoYT1N1Np/69y1B/jOCs5u2US2+KpW23evqAtdSqbpdK217snvKI1peKd/RAAuvxQ6tvv4beRRty49CrfOm7U+GREzRr+17tp8iL5kHZPnxq9gG/AVBsPUCDPRjQYNBg3ws0WAQ02A1Agz05IE7iPFw4CQAAAABgOJAcPcAgAAAAwMMCXxwH4SQAAAAAPEYgOXqAQQAAAICHBb44DsJJAAAAAHiMjCI5/t2/+3fRu98AaDAAAADgYYEvjvPLhZOugtZpo14f5Ymn90rQqjcST0wNM8aetoi7qB8lly3Wbs5+5j6b38+jbUVXsRe4Z/zTeqP9SKbbgMoCT4d0yfFv/s2/MQxjdnY2+vwbAA02GtBgTw1osB8Bbv0nAg0GKAgnxXmYcFLr/UgPO+DPRNDsEXdBu6jZ67oyTjMYISp6Ybd/38CfQeujqbwoNcKR4qpZeWOo4yTKVkaUZ/P2l1i+LhvebmXYDmzsqRlqqf4bDDrBWdXZjx4PchelDtxFIkxbtRES8Q8tdYzXzmjnD8RbJsJkodr7c/asX/LSbtevX99zq+3Kjxf5Bm5sRXdA4C0R8qLcjD6m0Tp23C/hW27nHogozWj57dpjFIap3e3REjP4tb/Phpeex+uMxFW1MBlVUQcyJimzZun+9oCkF50iyqta+Ok72jwAwyXHv/7X/1rXdXp0Zmbm5cuX0be/AcMM8l1Ag0GD9QMNlgY02F0BDZYEGuyJQusO4aQODxNO8g+LxmLxxgeuBkclc6lYGSUGfO6ZChHGFOO1UzmuN04atQOnOK+QjKht/fRu41fy03LhMBxp2MNl2eNdX7GM1b/UKh9KxgwRxjX7lB+/vq6uSSluu75tmhvuKN7laXNVL84Qab0afrqLUo8uZXxnnp5pOl8ajdPbO99RpEywZ3TVebLIqdzciu6CkaXMGXt4qvkxauHMzhNGab9SOQhfnrtbLsxKVG/pO4+u5aZ3t0dKwuCUZnlWus3IxqUMmS16UU1VKvueu2Xp00TI5kr16Kw7Ji5lvqPNA8Dolxx/+qd/Ojs7S7//gz/4A9d1FxYW5ubmomO/AdBgNwMNdgugwdKABrszoMGgwX4NEE6Kcx/hpKazqOTeRHHQn0LLWRCFMa30pdPVQ1rukiSMG+6PLEr8fhqbOfK8FA0zV5X8hCCtVhI5O7W1rCC3Q8WV1d9l7iuNq1pRudsxbnQp0yy/IGTR7Wk938soUsb/EJcyIxd5hFZ0F4wsZU7LuR4p02/noGYpQrcjPBqeZHdLGJzh75vSpOl9r/AOpcyyF33s8LWUI4K8cT+DdkLK3Hk3B784ccnxL//lv3z+/Dn95m/8jb/heVEznp+f/zt/5++E738HoMFuBBrsNkCDpQANdndAg0GD/RognBTnXsJJ1DGkN9aemTG/7haXNFWR5ZmcsW7X2guwg8MSO40LkfqWaWxWG59K5ktVmVbUuUL5qL0y8GtJJYL6ZlBc96tjbZSroec496zFgnvkFWYV5ZlePGSXH3Zp/xPNYal6GX2khXLXDXM7vETDWTWsj7XKWzM3IyuqZr52G50zA9Zvta22Owg8c0yQVpJO6LpV27WdQ3pOUN00clNsTk+bN8qfB2SSFXw9nCNi1y3uN6rbBf2Zwi68Uqqc8fQ4raNyYT7HjPMybx9VWSb32yZKEpx4peV2qTecWkfqhVf/Unc2DFo0uado10HzoJRnl5CV53phuxamXntHq6ZS2zJURcktO95/nTeWy7VYgdkM56JV+RZWYqW+ZxnP2/k/5edd1e1lTckKZDqn84YRKzUlaOyX8qze2XXz7yrNth9iLWTZrn31ios8Vy8M631naX3CxQ4986JSXNTY+vzJnL5glI54fr7V7NAC06q2ZDmjrWe+Ucq09i39mSRkJHXOyP+3Xk+RwxxWPzuFOdbCc/MFu9PCb2hFEc1P5fxcu3a2qq12TpIV9N/s/VemserEFQbNGGvtfq+UGZzgqVuYU8SMID3XjQ2vNVQytuyXie+Htjp66LRSWmGHaL0UP9Yrm+2+duZai6bdXmBMaezkjTWnk8Phafq195bxQpGnaJqdNtPX3ZL0tGR2o8RVq7ZTYOnwblU6aMaroHVkRz1unjaSqr0ctZ/U0SM1zcuG+9rUVNrw6BCXL31ssEO9BucElfwk0QZOPF7VyksGHS2TrYUzTMpcekZWEJcr0cfhbWlwDtOL3JEyfd0cgBsJJcc//+f/XFVV+v5v/+2//enTp+gYZ25u7u/9vb8XfXjinMWIvuLQj9QIIdBg0GDRyAwNlgQaLAk0WHgWBRoMGuzuQTgpzsOEk+L37ftHlpoVpNlCedd1t9mSP6LkvfBQ7L79yoooTMnyVC7/1ra3i2yV6ZjucEfe3NZIRinGxrvBMMUjydOSMmsYc3rpc9qlWzsazaHb6WxXdfpjcZV39auaNU3ECUl6ni9/rHjbhdy4IM7Z4V36wac8W8f5lb3n+JUVWciI6nLROag3+3pv48AuvKAuULe27MrpgEx272Dn15WmZemZWdyy7bemOi6QZ9HuAP6ngkKIPGeVdx17Q5fHRDFLch1FFSOolzWa4ef5Ei31e2ZJolrRneQn5RwR2dUXrPKOXVrLSRlB3ojGxMaOLtGCrJScPdd+rcv0d6+ZYmEunFbNpKovGdqqe3ZYkDNS/lNnIPW9JTF0kKwSxyVpUrPee95e2aQKdMp0mcGb1R1LmxBEWhc7Hh0dY/ftB/V3mti+rvPGVKhTX3BCNcNaSJa2CllbL9k7ZWtOJhnJ/BgWJuFih5552fBoc5qmlsyXt+3KCdUxXp6aclq3tt1wwTDJqtbRzeMus8MEbT++fxF/1YqqEEqZoO6Vl1Uho5hvbefo3/YUmbd2SZqQ9TeOt+8UF6iBlQIX3De2Ikpz16C1oywV7Q+us5lXx4m8HLm9ngo62TclEu8vTao5yJxDRUlcygxN8KLmvjHkDFFXyvYelYODpUzUuZajyZu0VnfumpOCqJrlD563U9AmqRGEqK+x7iDmY388VtdZ3iN5OjzN5o4uZhXjLbWk57w1lCxzpbRF9na3JD2Gal23KqsKbTb6K9vdc8vrmkQkfScSgVGPWyg6Hz2Hdgc6IBBifGCXTxs90tL0vWWJTOnFHdf76JZXVDEj5w/8PoOH0MoSyaw9oIdfVUw6Mgyc6R0sZcIuRvSdSCYNb0tDcnjDgNmZGevt5gDcCJUcf+kv/SX679/9u3/36Ogo+jbG3/pbf4seDZmamoq+5fzRH/0R/SYkrlvo+78ZI/qWQ3/SIf6TP/7jP/4/t4l/f3Z2Fp39R3/UkxQ9k34TXp3+PPqWXz3KriD0/CT6lhO/Ck08+pYTPzQIaDBoMGgwaDBosPDE5OgBDQYNdkeM4It/I+4unHRZs9fy+VX6MnMTApnR+ft84U00nsaJSZkGW+P6LLal2Zmtj7Mlf/SLXinDnBs/h/K5qGSigaO6IQs0tVig/dpvtc6azejVaoUdjA2LgrjY6W5pl75JygjCdL4T2fU/5TvOu/5GIeP5xBRG0HDXNTnLZWBGlJ/p+bdOZwqOklj52ZvJHilDr1vohJ+bWzlqnzLTc9H0S2fKqPlep/YaJGVazjxNsMgKGXLuGONEfcsHUyZlBGmpc3XfXSDCTJFd/ZKt9ZVXOoUOqhsKmSpQmcMcQEYtdla503wqzIdFny9cY4xofJQMK7F75jeXXlp5HYbPEyswu6X+5uhjgrLeDfP7H02JqpB9lhHWQoTY/ADN5CRbkMw/9EmZoWfyhdZLUYZrrxRhLHY/fFAvPWftJPJgw2F2GEIoZSj+8IXWUQ47VXbVLM/G5qnSW5HvmbR2Vju1c+0f5GUiF/hETW8F8clb7lo4bBGvaOzRn8akTGqCAxZaZ+XcvGEs8Ne8rj2XxQxVJ3kvLGlqq2MGHze4omUEny2F/jasmjQpk5Ima7cdm9Mka1v5/Nto68eUhda9hjqmORGN3c4AFtCskolweTMfPWbLnR7XeKfR6rtZyqSkyZbTt3si5arhrJnWHv/Yt9Ca0nyXI2OG252MGgEuZYQpNgncriwtp4g05/IinwmkpFT98ByOJmXoeyy0Bt8HHfD+9E//9J/+039K3/y5P/fnSqXSf/pP/yk6xtE07Q/+4A864Z7oW074ZRjriesW+j788m/+zb/Z8xP6TUhPBIqeFgaGKPSH0bc8nBT9gBN9y+lcmr6JJ0V/Qr+h0Oz1qCn6sUP0FYf+pAO1Q8/RCGgwaLAQaLA+oMGgwaDB+HtosDuDjgSDffFvyd2Fk/yK9VLTZukrJ48JZFLl7zVtObGkM6QrZaijokN7wuPSkVEUVOY+e6WMEou+X/AfcgdZXe+VMkzcxIj6HhsWif6+3dtSL32TlCFU8fADnKsq7eG8r3Jn0J6tSuA3ax/t0pqhsYFDEMZzxeMo9T4pE8tk3KlzKSPGV9semOzYVzqIs13i9Ped8ZEN5sbAmbFLKizoOOXWu1RLbFDmIXYmZYi+2716bUNmeoVe/dhicu0w+p7RLiNzAMmJkfoblYxHNxWzuh6LZkFZWRI3cnOX85z7ziFSJtg3xZ5pTz4cS2vsTN5CcuXuFEejTGVHJEr6pMzQM+NShovChW7NU1rb1Lpt/TEcZodxrbjneR9jr72yOT2ylIn0fQSb8s32aPQhreiwIFEHuRPVKONzmUlALhP7K4hVK9XEYYE3c2QiX2EeMSZlUhMcJGUUbdE0l0xjTpVoziapHeqx1bkpra7BlGLc4FesCm6WMqktmbXAjKQuF+2PtUa8Lnu6W5IeQ9FEqLYsHUepM3aZjGa9gI4/Pf2L98EbpUxamnyKku1lu1F2D5OPuB4kZYKPJgm7/+i0pYyxRCvL0J/LtK7E5wXnOHa1tKofmkNIGXBP0HEulBzn5+f/5J/8E/rxL/yFv1Aul8OjlL/+1/+6aZrRh9+AjkF6gQaDBmsDDQYNBg0GDQYNdq/QAQDhpA4PfbMbHaoyvV2UCRF+/3OPlEnMTvguO8alDJsgSno7/6RWPayy10crR+JSRjT3+RmU1EvfKGUSoxjbKj+865U9n6I7mzGE1nFZn6IKi8849YytPZmMOfXwunLcsJ/ykZSpF1lZYr/iY9YgKXNGx0Rah30oPDNcysTTYWF7LmWopCAZmuPo+zjUAfTu9sfSEfmw3rRnibgUqhpelqRKqK5JkfMYImV4RfTICK42+DrSPvcfFyX9UmbYmbH3bNgVelpvStnjMEf4A9tAshxSSRH7OX8ESa58En3sId6KWLJRRSYIW+yACqINhvAH39CmS9+thaqmK2XSExwgZWIKwP9cYuufX5RqnUmblFYXcIEeJhvBOlH0TYqUSW/JQcPd0JXwmb4ZUXlZsD9H7S5dysQNVVmVeIo9cL3Ce0ooXCKuKvnxm6VMWpqUs0pxkWtBypisrZSrYYsdJGVY988oVt/uA2lwKRNbaB003htShqjrsXmw9KofkkNIGXBP0IYWlxynp6f/6B/9I/rlX/7Lf9m2bfrNf/af/Wd/+Id/GB79HegxyCCgwaDBaDrQYCHQYNBg0GDQYHcPrQGEkzo8dDiJd9H4VAztXdSNhSPjiFKGO3JBDWP2PbDTklLmgH9PSb102DO7kxJURijtzswlhboZcw3c/3GRwYb1+GjYem/IE7od26wxhAfIjbDnD5AynUyGBY9LmY2YYTtS5qzMshsvy6Vnjg2SMnw+MPeuESSJprmGSxl6LSkjW8fR94zAb12wsXWAp+RbAIrzTosZWcofREMwKwu7P7wD9Z28WnnpBkoZn/n+XCnuzsO64FvW3YOUiVRplGMO/+1QSdHhDqTMmBlmKCSScd9ubkVcbCnWcVSbbegl2GmDKojNR0krFf8zzULHHXalTHqC6VKG0vpAHWRsWX5aqwuFaaLcrPHEpUyyO1Cxwq6V3pJDrvzmsWe/yWtTpLOWe3Qpw6bc2ZxhlHIbfiycVw/HnxDa47IJKTNw9EhLs8Nls37glNZ0OSuwtdz0m0FShtaROILCTtArZSh+ZU0RMpK+G40VN1R9SF8OUwdMSBlwewZKjv/4H//jH/7hH9JDf+Wv/JW/9tf+2j/8h/8wOvAbAA3G3kODUaDBkkCDdYAGGzZ6QINBg90VCCfFeehw0lXVmhKk9swJI6gWpqMb10eVMtf8IbXZXP9efcGXojpMytx86di6XDpyZeNSRki4ZDa7EN75HFuZHMJuQiYq34Iuhs+ents+rbIqET6/wbidlGEOmIgLbidL7BmWmUFShrvqROavGvaybobPIEiRMue2lmWeIzpAjR7WztlAT8l8tjhmlN5o7OftwjM/FN32zLlkY1w0LcOLEC6fpnRLzQxCKzpWkPAbXrRUgXIrKUPd+TKVs9080596tLImk3sxDOL7pUyiyCyHVCwedS7ju4vUCLxh3NiKuKvLxeX1uVuYjx4rM7CC2CruSbO4pnTbXkzKpCcYSmdjuJShrcNdlIT2HoGprS6orsnCVLjSm+N75ni7r/EGGdPobHl8JGXS0my4a7qx1XXy3OtHQjzR3ZL0GMqnbZg69W6NXPsHlr5QcKmopVenHTXW44KjgtzeSSRl9EhL85tnLejF2CE6mAhjJpssTRg8olc9jMIAKUNzwMY9YcJwwmaZUvXDc5g6YMalTKLNA3AjKZLj3//7f//3//7fpyesrq5GX/0GQINBg4VAg/UADRYDGgwaDBrsfkE4Kc59hJOoi+KR1OF0pQwdnLY0MSPpm9WmHwTnNXtZISTq6rx7jCJlaM+pFKhmIVJuuWjvVapH1cqeXVzOsQWBE1oxlDh9KiHl0tdfikpGUJad2lmrWfdK87KYlDJCRtLeVBoXfuuLk6eudcYK/Yy/Z4jcwbdpecvseRDKgsUydlyr7jvFJVXMiNp2VBo2HIxrpf1qnRrkdlKGXmaPahdRXS17h1X2oJMJWvKeXQki2A6R9OqvvMZFEHyre+s5agRzj1syRcpc+5VVls/iQcO/9JtHtjFNpEU2lA/0lHwzOUKy7SGMw6SMIMgL5eqZ759V7SWZZHNlnn/m8p/TdCz3sN5MPFWEO8Vxzdpv0Fpq1d3CM5F6Po+P4KkC5XZS5jr4XFRptpfs2nkQ+M3qO526qNxm6Bf9yhv+hFeeZg+jSJnggPlUY6tS/UrbZKLILIe0zmZM53PLv2hWNtkzXNrzFTe2Ip+dkFXzu/XWZeCfVIovpc5mloMriDqbMUKJydOYlElNkO+aISgrTuWYZnyglKH+zzEm2K6l4exYeqvTxkinVZTn2aYbUV8Lqnnqep8V3HqzdVpzNzQp25YyaWlyeRS2VZo/2rUXZGEy0tCJ7pak11CXVWuGDgmmfUxHCNrmy8YUzUwx3DiWz/61B4HPjqmw2ovWS6eMHilpcnnEC9sKrlhTzytEDLVawuAhQXWYJruql5eN6I+THgZKGVrZB3k5I4TdOa3qU3KYNmDGpEyyzQNwIzdKjj/7sz/7x//4H0cffgOgwaDBoMGgwaDBoMGgwR6WkXzxb8P9hJNuIi5laM+pvjOUMZowQ1T04kHkgL9DylAuG95bU5umA0oEmcqZr916J3LcpxJSLs0OvWXLCBlE0l575YXObahMUkjzhbzKHDM9LL+0vHCIp7CHaIS3rLe5albeGirTFhGiohXedx42eR0cl3Lj9GvqVJq3ljI0mcYHS5+RqHOSVKP4odRrny5+bYs94DZiXDW325lJkzLsCs4qV4cU6lYXyzX+s8Ge8jpgtyhnaNajzxQmZRSjsMhGfQoz+KduDhvbOks8w9b9xqQMrdm6vdK+VThDrV1wT6JR8D6kDKV1UNQ7DYnaZ7PaziVbA9yZ0uxhFClzfUE1N2s2ZJ5NwMaLzHOYM9d1tjVfeN2t0MCcm1oRbf/d2mFHjdJRdM0hFcQeHixk47I7LmXSEqQWc5d5NtkDdIZIGXrSDpUanSfCDG919NhRKTJ4horIgkEdZNjXqMX3La7LKVTulNy3WvupIpThafq18qJCrx4izhjl9q6rie6WZIChTj3rZVQhUU/vmsuvb7NHJjOysr5uUi/f7vjDRw/K8DSDr06eKvUQ2tTnipVwtiphcP4Fn2KKduXs4cozx4SeDTIihkgZamZvmfZWyfzIq3h41Q/PYcqAGZcyiTYPwI3QBgXFFudODAINBg1GgQaDBguBBguBBgOjQy0NcdLhocJJfIlg16/Q5u43TxqNM7/jTm5NcNFsfG00zwd05MGkXPqyRZOKnnHboSspgtYpvVDP74LKisRuWY8+dgj8s0ajPiRjV4F/4QeDHORo+E2az85SVQrbJK9v37g4V36Llvqk6X/vRX1mk+a3GyuKzU50/SIn0qNX18F5o3GaeGxCxGW0F8AAwusOO3r3BP4ptU+r1z6BZz4fvEx3dGhdd1tbu8hdseU3Wb0MLmhqK6JctmhLuJN+FDE8wcD3/XiTG4W0VhewQ7RdxXcQDAl/NazJDU8zoJakme+31Xd2t2hIGZiBgNmHDRGxp4pEDBw92qSk6dPeMaipJwz+2VKyWndh830wvOqH5TC9yF1SujkASaDYeoAGgwZj5oUG+wGgwaDBoMGi9+C2QJzEeZhwUv2tKmRN73vHwUdC/wxVDyfl3NjNuwbeKWz6RZyzm9Ho7NdeqyQx6fGzCU5sfVzUdxOKLpIy0aenSFDf1HKve+6fvxv65u5+V/qlzJOgX8rcI35lRZZXu48CAeBXBYqtB2gwaLBRgAb7XqDBIqDBbgYaDECcJPjp4aQLt/BClbPCoLmjJ8KNUuY6qL1Su49U+Cm09vMKtaqi6Qu6pkqEyPp242GCzxeOMSGSjECel8I7nDs8fSlz7Z827qlaIWUiIGVuhP6xNNXetRGAXxooth6gwaDBbgAa7FZAg0VAg90INBiAOEny88NJNeddqbTtxW44fnL4jUOvkl6AoO5uOvWfO/UXnNW8nXLpTbG07VZPH0bGcFrV7cFV3PpS8Y4eSGA9fmj17dewNx5tyKx/fXlqf+kEzdq+V/sp8qJ5ULYPn+pfggB8F1BsPUCDQYPdBDTYrYAGi4AGuwFoMECBOInzMDe7AQAAAACkA8nRAwwCAAAAPCzwxXEQTgIAAADAYwSSowcYBAAAAHhY4IvjPGQ4KfjWqNfv4TkRV+xhHyzlm5988RBc8dcvhH9ab3SeBHz/sCcapDxW46EIq/WXq9zHyY82OVQWAE8EKLYeoMF+lF9u5IcGY3R8+q9VuY8TaDAAIE7iPFQ4iT2dQcrQxATxH5T/j9NEWk/ZVXEI/fuuXdTsdV0ZZ8mGiIpe2H00WwQcFsIityHipKqvO6Pkr7lNy6qWvkYfO1Q3ZCFreHeo2a6qhUmBLHvRxx76bX7q6NO6wx9f0nqvk4xarPPvYyQz6df33GongcuGt1sZ7RbkoLFn6YoYGY9XrvXhjncBaO3Q8unuCDXSOnbcL9F7VjtRptpkiDjFK/cRPjrnO2z+iAjOqs5+tIWov28qL3o3GR0J3rx7IGOSMmuW7u9OeHrRKaK8qoWf4gUBAKRDeygUW5w7Mgg0GAUaDBrsIYAGSwINBp4itOlCnHR4oHBSUMmPC9J8ufa10fz2PztrZv799/ftHrd67pkKEcYU47VTOa43Thq1A6c4r5CMqG09joGDSRmSW7ed9w592dvl0pomE/aAlWZ0xlAeq5RpuQuS+iYSL6NImWDPIESz27vlVdckWqz6CBMU/kFezhBlseR+qtW/1HnlyiQjmXt36YFGlTJnzA7mx8jurHYyirntVQ4q/OV5e05pJSdmBGnZG0EX/VRGt/kj4qpenIn/wdMsz0q36ddh854telFNVSr7nrtl6dNEyOZKfU33bohLmd6CAADSgGLrARrs9kCDQYM9AqDBoMHALwDESZz7CCc1nUUl9yYKAw/Gd5lD2/4xJ5Rwqy1nQRTGtNKXHq/ecpckYdxwf+JK4KEwKSOaB9GnkPobVSC58kn0cRiPU8oER5Yy1n2u6ihSxv+QkDKVVXE0t+q7C0SYKSbOpF6BGu95+Q6F6qhS5rSc65EyA2rH95YlIfvonjs7ss0fE1e1opJQAP6+KU2a360ThzXvr6UcEeSN1FHr1iSkTG9BAAApQLH1AA12e6DBoMEeAdBg0GDgFwDiJM69hJPKL1L76nHZmFOljCCpurFoed8azqqR3+H+6NyzFgvul7qzYeRmZFnVzNduI7ZUtXVULsznlGklt2C5n0pdt/q1pBKhM0WT4KtjbZSr3Hf6h0Vjxa5+Kuqqor4seHx5sF93i0uaqsjyTM5Yt2ttx+N/KhqLpWr36k133TC3+SV4Pp3janmF/VB5YVjvY8ulLxvua1NTZXlaUefypY/txcCDpIy/q7e9IEvfeNtdg0yp75jGmtscUcoMuy7lqlXbKRgvFHboZb500H4W6hUzfnG/6qzkFCVnvKsFfWP9UJtTebEoiotdv3+jlGntW/ozSchI6pyRf/8/VzeN3BSbzNTmjfLn6+CwZCzb1c9OYU5ll5sv2Ecdsdty5qiUsWrdIjGah7b9odY5qfmpnJ+jWZWV53phq9pqe+tkvf+Xm/8n01h14gKIZozVtd8rZYITr7TcbhsbTi0UxKduYU5hs17PdWPDo1cfVjs9OnVwapzgtFJqt6Xix3pls93SaAWtGIXdWGZp92G9Jvo0PE2/9t5iNT5F09Tz7ypNZo2gx+Y91N6ZxmaltmWotDUsOw1uwGFWpbSO7LBtqPOW86VqLxulI1ZDaX2HMzTNgW34qm4va0pWINM5fbFYCWsnqOQnibYzaFL5qlZeMozNarKxcIZJmUvPyAriciX6+L05pJy51qJpt9feUxo7eWONT3p3pMzAggAAhgPF1gM0GHsLDcaABoMGgwaDBgMPA8RJnIcIJ51W7E1TzQjKUsne8eoXNatz3/5JOUdEeVpSFqzyjl1ay1HFI29EQ5L/qaAQIs9Z9q5TXtekMUKEyK0yX5JRirFxZCDM147J8qScWzD1Oatyee0fWWpWkGYL5V3X3WbrLYmSD/1Ej1ejwxCVS+IqH+xYPok0IdIiuPue80pjK6jfhvcRs/kQMqUXd1zvo1teUcWMnD/gqfRJGf/EKzwj4ks79FT1N4owFpvEC7oB9RGkzPDrXrcqqwrJyvor291zmemIpIfa8Yobf1qWZnRzUTOpY0iO9Sk2v75wjTHqSzpCIpQyinXU8i/82ItePcpkUPfKy6qQUcy3tnPUahzYhRdEmNStLbtyGqo6SZqQ9TeOt+8UF2RaGYXDqAJau4aYIdJsvvShWj8f4KSauwY1r7JUtD+4zmZeHSfyMtMZlJ56/7/vmRKJt5am/ZKQOYeeHK/0oF7WxgXxeb5E28b7ojFDa8BiSvOi5r4x5AxRV8r2HpOwg2vn3MsrgjBthc13aGrsTNecFETVLH/wvJ2CNkmNIEQtreMF2wQfTULl0Sl/PzzN5o4uZhXjLbWk57w1lCxLhGakx+Y9eMtEmKKGUvUlQ1t1mUobbtWobSwUnY+e81qXJySpLXPT+k5amsPacLO6Y2nUJrSf7nht7RB4SyKZtQdomauKOS6QRXdAKxksZYL6O422Lr3dmL8/h+FfU2L+E3sbUl1nraxGNVC3EgcWBAAwFCi2HqDB2HtoMAo0GDQYNBg0GHggIE7i3F046bJmr+Xzq/Rl5iYEMqPz9/nCm2jgS+C71GtFXjD0pl0pI0hLnTEwvry2UX5OyGw5jNazz+/oudHQyTw60Z3YVMO132qdNZvRq9XiKTKXJhBtuzP6NajqIs9i+8md2fo4W29Jv7hJygjSIhvrOUHttUpCFXJVyU8Q9W17KuOq4ayZ1h7/yKSMIJA2fEtIMmW6fIKOcVKiCkl/H6UafMrzG6zZ+5ulTMp1jy0lIxq7nXoIaq8UMsEXqTLjU3db6E5iJMb6NJuz4hDFis2ucPMOIdJbaQutmZShtbPVrp2rZnmWkBfl9me/vpPPTURXEKdzxlrJ7cxH+p45Icir3ckGdp8/kQt8oqa33mMakcFWTYvGHvtprNJbzjzNW7E7F3fuGONtC/cvtKae76VuLBj8peuzqpwVhPFcMZJiaanR6mD3AnQmuz7T+hpFyqSkyToOeWl32+dWPv822voxZaE1kzIZtdi5WyHNqrzvzJb5hBuj8U7rtI20vpOSZkobHrQ+uUlbI+10sZnzm+HNW5jK6VFNGca8llNEmnN5MZoJvGUOR5IygwsCABgGHe2h2OIMNQg0GDQYNBg0GDRYG2gwcK/QYRDipMPdhZP8ivVS02bpKyePCWRS5e81bTmxojUiTcoQfbczhlzXNmQyVajS4eDCYT/p+DlK7B7y6nqvlGE+PkY4+jCXRnKlzk3y3/rSvA7cRVFQmXi6ScqI5n7Hh1xff6EDlJg/oN+waRa2G+VG2T1stGKncClD1NVyeYu/3pWK64ZKZZ9iupFr51M0kQfiMfi2I2/dKGWGX5cv99VKx/Uuu6aUkfKHofEFcTmUGZy4lEm1ObdPV5RQmHkzsvHO9T56sZdbmpdGlTK0EtsencIkQjapUK/8xqFbfp03Xsgi1YIZSd/mQpTZVjR2ovIxPpf1MUF5zZRgb72H7YoKOJ6lxmaOTOQr3CN2K/3SNcaoP3Oj1BjVEnPefCpmkJRR5wxzyTQWNPZcGyIbm5VGp/GkpdYoUb240G1o1EGWnrVbWoqUSc0hrXSSkdTlov2x1s0G5wYpM20x7xuSYlXaNrIkl9Y2hvSdtJoa3ncGKQBuigGdIo22lDGWTHPJ0J/LVBqLzwvOcexqt8shpAwA9wB131BscYYaBBoMGgwaDBoMGqwNNBi4V6hfgzjp8BA3u1FSpYy5z96GsDmcUMqwkYIYe7HB48ozx6Khs7mV61lo7Z/UqodV9vpo5UhcysRcI00z03VIIUwcTLIr3iBlssl13fwxE5EIO6sUF1UpnMIZk7WVcjV0z3yI7LlvP/haymUFaS1aTN7a1UWiMUd14RrjbROFvmHgLfFrVCWYkRIZct3KqsS/6oGbjhtfju9+F5cyqTZns2RZI+aBQymTdt8+xU+XMlRSdPwoNQ57BMnQPTIDWt5ZUchq9hlPNipXgrC+euudUi+qRC4cBrRa2buO/TuVfkabYpRIAoXP0/ZLmbhPvahaz4gwodtf26ZLSS3gajJsVxG+Mz+ClEnPYdBwN3RlnJ/BZu0K9ueoqtKlDHle6vztkWZV3lXDlhBxVcmP3yxl0mtqaN8ZqAA+5cVMYm72ZuLNmxE03hvsD4z12DzY7XIIKQPAPUD7GRRbnBEMAg0GDZYAGgwaDBoMGgzcLbQBQpx0eDrhpFArtBchMy5dI9seTKk/yggqnwbphV1riJThDik+EUeHtsqKGE4OhMNx92SaT6U9nLF8yoUj/n0IH8gSquiyWT9wSmu6nBXYelT6zSApw1zpDD2Bz7dQfM8cJ7l3jdYHQ4w9sCPYN8WMlP8US5/BfJ4wFZvKoPRdl00bspmfIAk/OV3KpNqc+++EPrgDKTPWlmUcXgWaTY1QL2uTksnXQifgJqX+g9qHbRlwHJWtDS0OO2uAlOHzUdJKxf9MPUvXHXZ9MJ81pRURpdQmTPAGKUM5sbVxgahWLVwGnJYamwcji4ly2y+HShluQC5l0nMYcuU3jz37TV6bIp213KNLmTSrhrPKbanNuPTMdttI6TvpNRXR33cGKQDeKQa0tzR6pQzFr6wpbIp1N+qCt8xhKGVivZuNJJAyAPwYUGw9QIOx99Bg0GDQYNBg0GDg4YA4ifN0wknhaNi9pf86OCzImbaUueYPqc3mrKNebxd8KbIHjgyUMldVa0qQlmJPugyqhWkhfFIGX/fLfUYIHbuzcSlD1M3OmM+dGZ+iuf7mWQt68ajrmGrUkY+ZbMJnoJQ5tTX2OIOOJwsqqxKZLZYWRDGeMeY7hc4ETsQ31xgXxHCN7vDr+lQV0aE5dsg/sPSFgnsSGX+olEm1OXMkSf99KykjEfoLapzQ4Bk5lk/21JLo6GUlP8F8Rs/OeV0NwbVFLlYj1+duYd6w9lkbGyRl+G8nzeKa0skApStlQonJ94aMuGrYy7oZPqvirEzPM1KkDFUo22xnQZVvvpiaWlBdk4WpaKU3g8nZdktjFSRQydUpN+0R7EkltFmmpdlw13Rjq1sT3OvL1jF7H7d5Dz1SJs2q9OrUdS90tq64Do66bSOt76SkmdJ3WGGJtJYYVXoF0ygMkDI0u6zXCxOGEzbL2+WQjwmxv4vYnheDpMyAggAAhgHF1gM0GHsPDUbfQ4NBg0GDQYOBBwLiJM59hJOo4+GB5BRuIWWow9jRxYykb1aaF37r2DYVEq0WDvlWKVDNQqTcctHeq1SPqpU9u7icY0siJ7Qilzj9Lq2xRf0NTbPa9IPgvGYvK4S0vf6XopIRlGWndtZq1r3SvCwmpIwgjOUKe/WW32p8tHLjgrzC12ryIZ48K7j1VnAVtOpuXiFi6G+YlCG5NdveiV7lcMoimyt1Nt4LXQIhJCvxXQA6+N6yLGTE3ErJOajS0nnvS6ZK1ZtqHfPTUq57WbVmaLFM+5iW0m8elY0pgTwrsvvd06VMus35vFm4e2LIKFImOGA+1diqVL+yHzJPMK6V9qv1b9z/0dRnTOdzy79oVjZ1qvw68xU0J1JGEJ+Zxfde9bhWO/TsV2xeQloKvSm3T1bN79Zbl4F/Uim+lIQxzebedKCUYf51jG3HmXvXdVpdKUOv+J6WXdReeY2LIPhW99Zz1BTmHr8a29FAUFacyjF73O9AKUOFBdX0AlUNvHLTUjspa2NEXihXz3z/rFqeZ1tORC2N6zlqouJBo3XeqL7PqxMsy6FKGJ4ml0f8Vz7VSrRhL8jCJN/4M2nzHnqlTLpVPxhSRtLeVBq0bXx2Em0jpe+kpJnShsPdDZ5b7mG9/YDloDpMk13Vy8tGJDp7GChlaJ4O8nKms7HrrXIYVPM0ZXao2TqtuRualB0kZQYUBAAwFCi2HqDB2CFoMAo0GDQYNBg0GHggIE7i3E846UZuJWXoz6qbhjJGsyAIWVnfLNJEulKGctnw3praNB1SI8hUznzt1ts+bJBL86vv2mlS/6HoxYPId7JDb5mzZBBJe+2VF2L37dP8rxZyE9HR3KpTb89sBF+d/DORHxCEDJHnipUw4s6kTPR1CJmQcwtW54bqCDpczggCLXXPSBfeid3OKv21qBqlQ25DztDrUk496yXb8Y5D5JeWFz7K5CYpk2pzPgW62p20GUXKXF9QxckySeaZYAiOS1QF0k+5d81wOsVc16OMjqvmVi1mmqCxZ+kz7QLS34wrOvXinctfNpxVrlw5omKUjiLjDJYy1GMtRbf9d4hLGXpCbctUWfY4ND/bnaeYNN1lns3xPC3/YClDqbNNGag44DtVpqR27R+V9LDdZoiyVDCog4wcP21sbp5bjCLOmPaupWQ7k07D0/Rr5UWF7ZTJEWeM8nF0JG7z8JsOfVImzar0GvVts9s21k3q5dttY3jfoQxPM6UNN7Z19pNMe1U86yYk3OazF7a7hJDYWbPDEClDa95blgQqBD/ynNwqh619q/3UGypMS+5bbcB9+/0FAQAMh3YnKLY4d2MQaDAONBg0WAg0WHgEGgyAEaHtDOKkwwOFk36EwG+eNMKHzg4juGg2vjaa56knxbliaTbO/B7xwLhs0aR6L9eRXMMz4583WB4uBiR5A+EY3R74erkKWqeNer3R/DY45ZTrRmYZ8sM0hhSTbVo5GVshPDL+hd+19VVAPwZX4epcvlWB32ycNAdVBiP4xkrROG3RnwzgstWkRwdW5e248lu0bdD89F0u8H3/e8s+PDWaHjtEaye+4WhE4J/xIkcfk6TlkNuqvyO0bT4qKVYN2CHWNmJPFYkY2Hc6DE9zaBu+9FudLz9TScc3TL0/bpHDsC5u7GLxggAAhgPF1gM0GAMajAMNBg0GDZYAGgz8LCBO4jzBcNJjoG8G7w5p7ZlyduijNB4XQc2aEfXdzlTJD9GVMr85A6TMU6BfytwjfmVFlle7jwIBAPySQHL0AIMwoMFCoMHuA2iwm4EGA7878MVxEE66FfcjZYKDvDwuEoEo69WnMkazG55nLL7V4Y8CKRMBKXMjtANOGdGujQCAXxdIjh5gEAY0WBtosLsHGuxGoMHAbw98cRyEk27FZbO6X+nfRe9Huag5m6Xyh1pr9BWwD49fe19y+29ZvwVnNW+/hr3xqKZtHHqVL3cz3/jzCJq1fa/2U+RF86Bsx3asAAD8qkBy9ACDMKDBukCD3TnQYDcADQYAfHEchJMAAAAA8BiB5OgBBgEAAAAeFvjiOAgnAQAAAOAxAsnRAwwCAAAAPCzwxXEQTgIAAADAYwSSowcYBAAAAHhY4IvjIJwUI/CbX+v1lMdq/moErXoj8eDT8Am4zAK4e/5OYU9yrac8eReAG3i0ffMq9gL3S9DsGbG/lydYU1BsPUCD/UJAg/0soMHADwINBrgGi95CnCR5HOGkUR+jEHhLhLwoN6OPKfj1PXf0J3P4dddaUCVCC8fJiPJs3j7+uYrmqlqYFMiyF33s8M3RiaC+qUcf747WR1N5UWqEA9BVs/LGUMfbJggt8CVmgcuGt1sZtvNeZUUkaqn+K41l9aKaIfr7wSUOPpqE5Mqn0cc0vlXLyzkpG9lVyEq55XI1toFocFZ19rvDU4KrmjVNpPVq9PEeGLUgX1kHzX+KPqWQVpxUqusSUYo13oSa2xqh7alvb9HqhixkDe8OXfmwThcy8nNSvGUiTBaqve2/UXpGyEs7akPJHvQdhrqxb94BtxtaA3exM2i2IaI0o+W3az939ByJWzfOByVh8OqGom5Ub9MD2IAWVVEHMiHnFove6b2J4+S40Tp23C/R+9Gh+YRii3MvBoEGo0CDPSqgweJAg6UCDdYFGuyO6dVg4TsKNTbESYdfM5wU7BmEaPZoDzjwDy01K5Bp3dr2qvVG42u9+qFkqqKQVYvHPzEI/ZOljF/JT8uFw7CAQe2VSoisv3Iqx/X6l1rlQ8mYIcK4ZredXHVNShEr9W3T3HBHGAefDnciZa4a5ReiMJEr0Kb1uV7/XPW28uq4QJ4V66Hhr+rFmRSx0nDWzPz7exx871jK3FCcNH55KZPoQd9hqJv75l1wu6GVS5kJo7RfqRyEL8/dLRdmJaq39J1HNh78QON8QHp92TfXmFSLn7+/D/ABTV13vaimKt5H135jqmOCoFjVy+isOyY+bpyx3mR+/O6cQ7H1AA12X0CDPSqgweJAg6UCDQYNdk/0a7DoDcRJkvsIJzWdRSX3phZ9GoW7ljL+h5GlDPXoUwJRrepF9EWEXy0oApm1f153/LlSprGZI89LkZO8quQnBGm1kvARp7aWFeRXUT1WVn+5ua907kTKfCkqGbHHF7Y+GGJGyh9wY1/VispDDq93LWVuX5xfXsoketDohhqhb94FtxtauZSZtsJa6xLULDp4doaXR8JD97XbkTQ4JahtKOKcM3hgSmHIgNZ6r5OMaO7fYaeKER83Tss5hJPuAmiw+wIa7FEBDRYHGiwVaLAE0GB3R9LglG5DgDiJcy/hpPKLm1tMcFoprWiqIisvzOK+V4xLmatWbadgvFDkaUV9mS8dNNu1l+xvQ05r7Vv6M0nISOqcEc0qDE0wFNOdCaIEzY/FwmalyXtp7Z1pbFZqW4aqKLllhy1OvmpWtwr68zBNs/Sx0Umi9s4wXnldH3hRKS4apSN2PDgsGct29bNTmFOVaSU3X7CP2ieOJmU6dpMVVVuynNh6y+DEKy3zQzM5Y8OpdcTZuWctFtwjrzCrKM/04qF/HVQLU0Tbag9cgWeOCdJKcri8btV2beeQnhNUN43cFBHGFG3eKH8ekGB9yzTWw5mxhrNqFPcb1e2C/ozWrqqtlCpnPD1O66hcmM/RstOKsI+q9GRrf7BcGHpmf3Foh6+7xaV22dftWnsls/+paCyWYnPvTXfdMLdDY7KsWh9rlbdmbobl1HztNjpn9koZv/beok1IUVR9za7u0PFlBAVwbMlUyuwmC3hZd7edyklAFby9rClsVjanLxYr/rV/WDRW7Oqnoq7SUhe8M5bD/A5vw2Gpv9SdDYPmVu7JbSd706q2XKocu+zkwdlLLYhfd16ZmirLNJ2lovu13SJ6pMzA0/qKM/TMkMuG+5oeUmhZ8u8q7up3Spno5zRlRZ3Lxzvg0P5+FTbOqrOSo/3YeFcL+jpdp9XlFiz3U+mOpEyyB/1Zr6FY99ms1Pcsg44nYZfp3H90Q9/kDB/fEgPXP/hn/+y/MMyt+B9FNGMmH6x6pUzzUzk/R+0gK8/1wla1xYvWN7QOkTLXLftl4vuBqYW0juyom8/T0axqL0dD5fUZbcOmHbs3qrGTN9ac9BwyBjaMgY2zQ3/DYF8OtSpr1rtRJ9JW7Rodzxctj485KYM/Y3iaAwf2Ab6MQv9AYqI4+pTgxMkvDBlRh/1tdliQ6Pe7bYt8Zw4paWNsZ9w4dQtzipgRpOe6sRGzzwhAsfUADQYNBg0GDQYNFgcaLAk0WJv70GBtIE7iPFA46dw16AgyYxR3HGczn5sgJCu0pUyrsqqQrKy/st09t7yuSUTSw9E80d+GnhbUvfKyKmQU863tMKGQkqDPFwrmb9yLgg1VU7I8qepLhrbqtq6bzoIkZBXjDU3TKa3kxIyovQsXz/YOCvH4ur+rEyJJE7L+xvH2neKCTIhS4M54JCkTVC2FSLMF+4Pn7dlsQeO47vCgaVAva+OC+Dxf2nXd90VjhvoCK7rbk/khSZ6WlFnDmNNLn6+DT3m26LPrKvzKiixkRHW56BzUmz39nA4iB3bhBR2sdWvLrlC315dg97798FbzaVl6Zha3bPutydcVR7sD+J8KCiHynFXedewNXR4TxSzJdRRVjLQz+67uH7Gl8tQsZVr2bUufpkbNhyNLa4faXnc7JYrPwfKsihOS9Dxf/ljxtgs5asA5O9rIICFlgtprlWQkba3s7NrWvEIzI4wiZYKaNcMcmPHK9o6bfmwE5zSrO5Y2IYg05zseHXGZsB6jzUzOLZj6nFXxY/ftn5RzRGSlXrDKO3ZpLSdlBDnaRSWovWHZy/HsFRcVcVykJigO2KYktSCXtSJ1vZNaYctx92xrTiZjudIXfoW4lBl6Wm9x0hK8apRfisK4am46zg67r4HQnHyHlPG9ZYlM6cUd1/volldUMSPnD8JqHt7fO41zRjcXNXOn2dPpOq3O3nXYD8cItc6oUmaCNjnfv4i/akVVCGfGkj2o11C0+wjjkjSpWe9pvy6bKh1tTDeS4zf0zdTxrWfg+ucHGzKZzHdlke+a4yS3SU9OjFrNXUPKiMpS0f7g0vFZHSfyMnPPfUPrYCkT9cdlL8zssNQokcEXis5Hz3mty7QzdrRjj3rumTsdmuawhtHXOOP0N4xUN8S6G5G0V4730SktKtKkJEadKG3wT0tzyMDeZ3AObbRTRBm4VuKYJkO07QEj6uBwUtB0FiWh29e+O4fsNyljbKcSL2ruG0POEHWlbO/VO+eOAhRbD9Bg0GD9CUKDDQYaDBoMGgwa7G41WBuIkzh3F066rNlr+fwqfZm5CSpTdP4+X3gTtdo4tVeKMG60++p1QEVwpi1l2Pv4ZEJATyYTJu8WsYaSdlpycVramTx0/TzW8ujhb63mWTN6nUdb+LMRIaMWw1GYnnOQlzKSuddNs7qhCGOhqrhJygixKamrZnm2ffIoUobNS8uFI/495dyzlgsOO9Jy5qmYKPKILufcMcaJ+pb3EzYoCOJi16HX3yhkPDaiUYKGu67J4W6FGVF+puffOp35JUpimWhfgkkpIwjThc5kVHMrR+uizCbHoomCcLKR0nyvi9SRDpAyqWf2Xr1BpTNVS9Gd8JQzWx+nbp4Z4yYpQ7Oa74TJ/U95OSPlP/GE4lKGVsEYUV93rMusPZKUoZxVivMKCTfBzUrqS7O4U+3Gw5OLP5mUoc2j89dgOMJ2pYwgLXWK4rsLRJgpMpufO3qW0BbSTpWN5nT4GyBlUgvC1t5ntfIJP0Jhmw601wnH/EraacnipJzJe5Cc/9QuzQW73+E7pAxbftxu3pQrtsGBtcc/pvT3vsaZ7HSN8nNCZsuRlqWf31GTjyxlhhBZJnWhNZMytPe2hxe2P844UV634wXpfTN1JOwZuPgA0l7kz8dJMavZrG/GRi3fMycEebXTLa79g7zMhh32K/qT3oXWWTk3bxgL/DWva89lkQ7mat4Lz0lLjbeH2XKnmzfeaV2Dp0iZlDRTGkbKQuv+hpFi1agTdbpby1nodKJUKZOS5tCBvX+hNcV35ts9bnTYgCZIqh7V1IKhz2nqJLW3pEd/hN8yhyOFkyi42e2OGGoQaDBoMHoUGqwHaDBoMH4ONFgINBg/QIml+X0aLII2B4iTDncXTvIr1ktNm6WvnDwmkEmVv9e0ZafdrDo0SnTIWOj6F+pgOgut629UOpiXjutddk2qG/KH9GC3oaSelqj+tDOvqMsUqJSJ5ZA5UT5mcDJR82IjQiwAzIbUiaQU4J7P2KNf3SRliO7EJAIbtbO6c0EzM4KUuaBjnECm9cKmU/kSe7zspWuM0b7tRgVkVEtsmOD7DrBBgXrljr15DtuzVQn8Zu2jXVozNEVkVhjPFduPVumTMvEEe6WMGF8XemCyY9QtcTskpsd91xg4M5Z+Zs/VmX1i6pBBR1hRUJmbv3FmjCoefoBzVaXjoBLeDh2TMsG+KSaVQbBntGPhIxGc1bz3JWtZUyeYXYlaqIRtoF/KkFyp6/t7pEzsnhT698CGTKbY4t7gI23tCccfHObZqN8nZVILwhbHkmdWJWo/DG9dodKBWa/rV1JPSxQn7UyaedaDYi2Q7ZLYljKtm2fGmmwp75hibJTdw8SDllP7O2+cyzyBkHinu+hrSHE/lAobH8a14p7nfYy99srm9KhSJnmXO9OpPX9iDeub6SNhz8AVjr3UArxILWeOiPPhLjyxUYvd/SQaO1FijM9lfUwIpZU/QMoo2qJpLpnGHH8w0yS1Q7277DklNWrwnu4fN3iKlEnL4dCG0WPzBH0NI8WqAR3QaCf6HJ1JCT7SIe5mKZNWU8MG9l6DR1TXZYH3/e8gDCc9N2hNmYt6blqk45CybFdjj3W7XQ4RTvrJDDUINBg0GD0KDTYIaLAQaDBoMGiwLp2a+k4NFkJbAcRJh4e42e2qak0J0lr8BJ91Ku5gKqsSvUQfYWvoNpTU0xLVn3omn15IiJKg+blaPWSvyqYuxqRMbKxh2RA6o1JI6FDZnEZaa2ZSJjmC803jc2z2gI6qUwJZdOPtmMEfiKOyxZAM/7hsvpDDmRYymTPfeGya5YxNmwxA4TMnfFAw98MEKHxyO57DQbSOy/qUEAoCSp+UiSfYI2WIHK/9T/lIynBxEP8VdySDpEz6mT1Xpx/pycm/UpjP4/dR3yhlEldnzx2gIxo/GpMyXGGEEwhtji05+x1SpsuVT8cvhQjURCzHA6QM17UhfVImbhMWVudShs8jJfQxy/wgKZNWEF72AYRjdMevpJ8WL07qmczFhtN6bdg0WkfK0FrL0JbHD8SgckfImpHDOasUF9sPlh6TtZXo0b9p/T1snEnx2pUyrIzhXyNtrjxzLOq56bDi/MA2kKz7xP+0C0vat4C5Q7xvpo+EyYGLwVrLuOHSNkYHlqxo7IWX7Y5aPh08o0QShL2GHe2RMrF8+p9L7HaPF6Vae4opLTXepBPmvarkx9vfdJpcm46USc/hsIbRY/MEfQ0jxar8z9Fk3/9sKdFokDb43+CzBg7svQaPqL9WhPGEH7mZ2IDGuGp6K2yRu7nXzeztcohw0k9mBINAg0GDxSoXGiwONBg0GAUajKYGDcaIjn6XBguhZ0KcdHiQcFLoMGLx6eumPRs5GDbvSp39ZZAkPK3bUFJPS1R/+pmsY7MFn7G8dKA+eLCUYaNS70DDtTKfuOCZjM+28UNRe6XdYKw9FnO4r9Vs1tn4NN1sn8Kg/ST+ZwAn+FavfihbC4qY4QsyuZDKvWtEhWtzHeYw9P0H/D2DDUDx4rTeG/KEnvBwHB7K5TMePQNxb4J9UmYjVvsdKXNWZi43NrdzfclcxQApk35mz9W7lu8Q0PyEFRRKmYQ4UNpDHs9qRyMyuJqMdFhMynC5mZyoOSxIPcPZAAJvVZaet43WhbX2aLy7Cynjs9Yem0+jHBXkQVImtSDc7847rajttInVOPcrqaclipN2JnPVU1bc97PF/20pw2fw2iveuzAJTn+V6HeXzfqBU1rT5WzUd9L6e5/HSkgZ/jdDoqNdsvnYyLOmcgdSJvGsLjqGiOHc9Y19M31865cybKwYY8t92R0Q7Ifht92hlRqfZBTrOEqoDc0zO89PeNZeKUNpfTDYjhIr0SrotNTCP/924gb3zI7BwyaXHGTCpfjpOYzoaxg9Nk/Q1zBSrMoaJ0nq7KNOJ0ob/NNrKqR3YB8iZfjEcn97SyU2oEUEbFsNYSxXbg8It8th2hjbHTcQTrozoMEo0GDJBKHBBgINBg0GDQYNdvcaLATiJM6DbMVNPY3EbpLs1CJfZhY6GFpzIm2mR90a9g8sfaHgspG6299ST0tUf/qZ1+FDapX2XaZdguYWUzkDpQx3OXRYij5SmMtsL2GtLNMu1+3e/BblmJTJyLHM+O4i7xfs5ICFTrOanXCQQf012wYsTDk4KhlzltdxdXSsfM68hc/VYWI0vGrYy7q5yW3cpzw6a3QjuFpSX3Xv+uf47hL1N9FpNG/tfN5WyrBMEnHB7WTS3zepZQZImfQze64eTrQuhWtHOUG1MB3d2N8bxqajZ2fDUZbVpNHYhFJ7riD+1xeXERrbHC6CO5IbpQy/8TvahS7GJc/eEhe0vKSdWeLbSRk+xRFfIcweJT74vv20gvDm177fmxPUNg192WbV2pUyqaclipN2ZovVS7wH8fWxbSnDHYAgr3VHCAa7m12grYKl982zFvRirFOzP7DHzAoXdkP7e7qUoUepzO3ujHAdHBbkds9NZzQpE+tByXpnTjpuKNpCpkhU/Jv6Zlp5B0oZ9ltRnC9az9uXYHSH1tD78r0h25y7hfnomT70cjHPOkDK0FbsLkpCp9mnpEaNQFtVrJsHVIJ3DM7bauxPFLarQtRCUtIc3jB6bJ6gr2GkWbW3u13X33ZHg7TBf3iaQwf2XoOHhIKpp1pvoj+cRBP6QmtAoPUe3nRzyxymjLHdcSP6A9VAOOmHgQajQIP1JAgNNhBoMGgwaLChqVEj0FYFDfbdGiwC4iTOfYSTaFfsDfj1Ui/lskRZsmtnvn9aLc/LNNnIwVxWrRlCFNM+bvqB3zwqG1RqPCvyTbdi/S3ttPDWStnYqlS/+ulnUvzjYm5cECZU45XtHlSrRxVvp5iflQnN0rNChbeh3hHBrxSmCXlWcL+0gsBv7BfZfvXz0QMUuQaS9HfV5nmrcVg2Z0QSlzKCQGZM53PLv2hWNnUpI+q77V7BzMLu3rR2vMpRtfqJ7TxP8yEttB/NeMp6kbLs1M6phel1LTUbdWm2UWJG1F55jYsg+Fb31nNiZ6PKPuXhs7u14wtuW94ye3KBsmDZe5Xqca267xSXVJbgdlRoNiKMa6X9av3bbaUMvcweVSSiulr2DqvsKR7sJvbkndJt0s7su3pjS6OF1TertIKD85q9rND6joaML0UlIzCLnbWada80L4tJKSNkJO1NpXHht744eZWQGStyGom/vqh9JGE8Z+03Wn6r/qGgjtHstKXMVye/aBY7OxrG8VnbE7Kyvl6mTat2XK3slvLPqWDt7MzHx6znlntYb4ZPFbmFlKGXWVdIVjE33cphxXmlsVWmA6VMekF485PmS5VTP7hs1XbzCvUd4YLwrpRJPS1ZnLQzqbemtaTmnS+0IzS815qU6W4DSUsUNsjcSslhXbLqvWdPHqF2s475dbgXZB2w3gquglbdpUmLoSpN6e99HishZWgn2qGdiDakSpO2h2ObLYhvr4Olvy0vGea72G9jjCJlEj0oaSgmZQRBXihX6Xh4VrWXZJLtrBm5qW+mjm+DpAz3r4SwyaXuzeexoTU0flbN79Zbl4F/Uim+lISx6E+sxNA6WMpQYeEYE2xXRT47lpYan0Zrd8DPTsLgQTVPq4ZVcbN1WnM3NKn73JnhaaY0jJ7GGae/YaRZ1a+syoR2or0660R7iU6UMvinpTl8YE8anJOiyU6cAh2LDsIWlyQxoHUIaq/Ypro3t6XhOUwbY+PjBtsXQ1BWnMpxr/nTgWLrARqMAQ0GDQYNBg3WBhosATTYvWqwNhAnce4nnDQCrYOiPk0bLh1zqaYpWe2F1oxTz3rJlASHyC8tL3K68f6WchpVrpUCHfjot/M8zp1yJic4rZRXdYUKmggiqVRPVDubmfWPCMGJW5iNbg6lp+dW7O7Tjy/r9qIi8jswhYlc4YOdn4hJGZIz1/UoN+OquVWLt1D/qGw+bydLycrautPo7HVPu8rHQm6yfTwraetuu1v6tS32RNgImvJ2O0d9vp9NRY6JUQcLuWpW3hrhJoUhoqIV3nfLFByXmOCjXfZd89ZShibT+GDpM2wglVSj+KFEzZFYadll+Jn9xaG+/J2h0AGFIyp68aAjj/zqW7bYkkEk7bVXXkjcty/NF/K8qUQNI3Tq/3/2/i+0jf/f732nIOinxRcW+MIqKXha38yFL0RJ26gNv19UAivazUUGcmGEWd8gQgna5pygBg4R5FtyhAupSCEIQ4PwOgTGC3KWvDdZKN3bLOXb41Wlq2mXoC6V+WGQD5gqZ29/YTY/XwzFpT7zmRlJI1mSlXhsS8rzQfh+LWk0fz4zst7z8mc+Y+s5+7L3qbzhpTPdfDzzIqm2KwA5KN2grTg9/VrJr8S8FbCFhHo7lW8Nrmmrv0m4lYf9vfK9pYzcfaXnevRGWMyEtXsZ4/WZvqBtQzbE/lRu53TNbQ3ZXLEnhnc7T38pM2Sy7s2xDZlSfoJue4e6fc6QeyyHGuh8KVp142mivU/tN4ejem6708iWXUHebM3ZbtV7WfesQxr0eT+vlJFHy1rrQLIL0LWsvT9a36wl3T7NcP+eecYopUzXJ6i7oWQpo+nph/Kb3CYP4I++w+m8z+aQ3299Sxn5p2N52b/zgfV0/2o9rhcfx9q/hsKanvvUWp+uX60DShmvKGyXrYPndmrW3iQ7Db6atOuQ9u+l5lbGOYexCfVBzngZ7xwhg+c55MDoOTg7zh4YtiHfGvbB+dg+V3ReuBHPPI53/vw++Je/NHieA3+x93yX2eQfBs9ehuDYyah9+xrY+sdJ9gpXMpr9fZFwi8vvWcMhv2O7fm80jBVnzj03tDqP/Q4qNr+gGoQaTKIGowajBrN3GTUYNRg12Ig1WIv9JMVJ27XFSdKJ1dyv17/2/eVwah016rv1xoBX24ZMZh6Z7i1mXefP8MQyD+1pGs2jcxbaZn11pveVGm1ycXsN/wrYnFLGGbHP7PNqm7OqtYETuO1mL/fsqydmc68u33jml0s32de9dUMBP8s8qNdr9cZhz6fGYbfPkeldof09zMZuvaut5OiVfUfTGH1KnxOzYW/7Qb82O27au77Zs02dqku2Z+Nw6MwdlrvXzrRAfS3WVReeZe8Xucvqjb6H1rE5+iHXh9Ws7zX9a2UO7pzpGrQhLnkM9LR/PwMnO7M5Q2ZoHtbr+30OZI9zqNfsA3LAx1a+fUCrjvgLpA+7dfbOHC22T5lo+3Tr+/R8gloNJc8EnKv0rWGtMfSzeZHtHeS4aX8M+36gen61jmTw3OwDWH7e7c3yDZrocX+hDdqoIWs46MD4xs/akFb1fsPL2/okO6WMw3tpwHIGznPwL3Z/gzdexUT3EKqB+4417P879gzLNM3zfrH0oGLrQQ3mRw32LajBqMF6UYPZ/6cGk593e7OowUaowdooTvyuNU768XRKmWu3l4/NOnczuTryDwXhe4WG96vcrD6Pipnum1x4Rp/yAjqlzMUcllK39OLguuHSycEIROxl69IBq56/6/xhbEClgu9xUi8+iPUOwRAQr5TxHv3AzpYyk+BsKXOJrGpmKaJvnDkJnV6UHD1okIugBqMGCx412BWgBrsC1GDnsjpdqPgu9iNOulJjVMo4o2a0B/+/Gs2tlDYju4kmHiTi0YgQauJNu+Ntl9Gn/H5BlTJWo34Q8Kp9I7PyXF7Ird5O6A/i0QWhzMdzvr7cCILV2Lusc3hKGQ+lzHmaGwn1jjdy9g+CkqMHDXIR1GDUYJeAGuwKUINdPmqw89g1mPcT38XdiJOu1kG1tFVtXWl/3ayasVasndefNliW3QLr+dyLbO6NUdkf1hCjT/m9zPp2qey7/HmiNb+Uiq9y2Re5/Ea53r7yH5Og+aVc+hR0pT6JrEZ1q1S9xj8yf59D+7d65Up+qzcr6/nO2CI/BkqOHjTIhVCDUYNdDmqwyUUN5qEGO4eswbwf+S7uRpwEAADGESVHDxoEAIDrxXexH3ESAAAYR5QcPWgQAACuF9/FfsRJAABgHFFy9KBBAAC4XnwX+xEnAQCAcUTJ0YMGAQDgevFd7EecBAAAxhElRw8aBACA68V3sR9xEgAAGEeUHD1oEAAArhffxX7ESQAAYBxRcvSgQQAAuF58F/sRJwEAgHFEydGDBgEA4HrxXexHnAQAAMYRJUcPGgQAgOvFd7EfcRIAABhHlBw9aBAAAK4X38V+xEkAAGAcUXL0oEEAALhefBf7EScBAIBxRMnRgwYBAOB68V3sR5wEAADGESVHDxoEAIDrxXexH3ESAAAYR5QcPWgQAACuF9/FfsRJAABgHFFy9KBBAAC4XnwX+xEnAQCAcUTJ0YMGAQDgevFd7EecBAAAxhElRw8aBACA68V3sR9xEgAAGEeUHD1oEAAArhffxX7ESQAAYBxRcvSgQQAAuF58F/sRJwEAgHFEydGDBgEA4HrxXexHnAQAAMYRJUcPGgQAgOvFd7Hf98RJ/wwAAOCSUbH1oEEAALhefBf7fU+cBAAAcAWo2PxoEAAArhffxX7fHCcBAADg6lHCAgBwvfgu9iNOAgAAmAB2CftbAGf8g3/wD2Z9/sbf+BveCw7vWcff+3t/z3v2t7/923/7b3vPzs7aP3vP/va3f/fv/l3vWYf3rMOes/fs7OzS0pL37G9/a//sPXuZSwcwDoiT/IiTAAAAJoBXyQI442oCHeIkADbipDbiJAAAAAAYLz87vAcAMH6IkwAAAABgvLj9ILwHADB+iJMAAAAAYLwQJwEYc8RJAAAAACbVr7/++pvf/Obz58/e42lBnARgzBEnAQAAAJhU//W//ldFUf70T//UezwtGDsJwJgjTgIAAAAwqaY1TgKAMUecBAAAAGBSEScBwLUgTgIAAAAwqX7/+9///PPPv/vd77zHAIArQZwEAAAAAOPl4ODgl19+8R4AwPghTgIAAACA8cKd3QCMOeIkAAAAABgvxEkAxhxxEgAAAIBJNa1jJxEnARhzxEkAAAAAJtW03tmNOAnAmCNOAgAAADCppjVOAoAxR5wEAAAAYFIRJwHAtSBOAgAAADCpfv3119/85jefP3/2HgMArgRxEgAAAAAAAL4BcRIAAAAAjJeff/75p59+8h4AwPghTgIAAACA8cKd3QCMOeIkAAAAABgvxEkAxhxxEgAAAIBJNa13diNOAjDmiJMAAAAATKppjZN+cXgPAGD8ECcBAAAAmFTTGicBwJgjTgIAAAAwqYiTAOBaECcBAAAAmGC//PLLr7/+6j0AAFwJ4iQAAAAAGC+MnQRgzBEnAQAAAMB44c5uAMYccRIAAAAAjBfiJABjjjgJAAAAwKT6/e9///PPP//ud7/zHk8L4iQAY444CQAAAMCkmtY7u/30008///yz9wAAxg9xEgAAAIBJNa1xEgCMOeIkAAAAAJOKOAkArgVxEgAAAIBJNa1jJwHAmCNOAgAAAAAAwDcgTgIAAACA8cKd3QCMOeIkAAAAABgvxEkAxhxxEgAAAIAJ9ssvv/z666/eg2lBnARgzBEnAQAAAJhU03pnN+IkAGOOOAkAAADApJrWOOmXX345ODjwHgDA+CFOAgAAADCppjVOAoAxR5wEAAAAYFIRJwHAtSBOAgAAAAAAwDcgTgIAAACA8fKzw3sAAOOHOAkAAAAAxgt3dgMw5oiTAAAAAGC8ECcBGHPESQAAAAAm1a+//vqb3/zm8+fP3uNpQZwEYMwRJwEAAACYVNN6ZzfGTgIw5oiTAAAAAEyqaY2TAGDMEScBuFK/+PzH//gfvWcd3rOO4+Nj79nT09/97nfes7/8Yv/sPXt6+vvf/9571uE967Dn7D37yy/NZtN79vTU/tl7lqX7eM86WLqLpbtYuoult3nPOli6i6W7rnHp9g/ESQBw9YiTAFwdu0D8x//4H9s1n+vv/J2/473g8J51/OVf/qX37Onp48ePvWcV5Z/8k3/iPXt6+h/+w3/wnnV4zzrsOXvPKsq/+lf/ynv29NT+2XuWpft4zzpYuoulu1i6i6W3ec86WLqLpbuucel2dfHzzz/7AykAwBXo+gUNAAAAALh2BwcHv3R3zgKAsUKcBAAAAADjhTu7ARhzxEkAAAAAMF6IkwCMOeIkAFeH0Q0AAABGQZwEYMwRJwG4OtzKFwAAYBTESQDGHHESgKtDnAQAAAAAU4A4CcDVIU4CAAAAgClAnATg6vz666+/+c1vPn/+7D0GAAAAAEwg4iQAAAAAAAB8A+IkAAAAABgvP//8808//eQ9AIDxQ5wEAAAAAOOFO7sBGHPESQAAAAAwXoiTAIw54iQAV4c7uwEAAIyCOAnAmCNOAnB1iJMAAABG8YvDewAA44c4CcDVIU4CAAAAgClAnATg6hAnAQAAAMAUIE4CcKV++eWXX3/91XsAAAAAAJhAxEkAAAAAMF4YOwnAmCNOAgAAAIDxwp3dAIw54iQAAAAAGC/ESQDGHHESgKvz+9///ueff/7d737nPQYAAEA/xEkAxhxxEoCrw53dAAAARvHTTz/9/PPP3gMAGD/ESQCuDnESAAAAAEwB4iQAV4c4CQAAAACmAHESgKvD2EkAAAAAMAWIkwAAAAAAAPANiJMAAAAAYLxwZzcAY444CQAAAADGC3ESgDFHnATgSv3yyy+//vqr9wAAAAD9ECcBGHPESQCuDnd2AwAAGAVxEoAxR5wE4OoQJwEAAIzil19+OTg48B4AwPghTgJwdYiTAAAAAGAKECcBuDrESQAAAAAwBYiTAAAAAAAA8A2IkwAAAABgvPzs8B4AwPghTgIAAACA8cKd3QCMOeIkAAAAABgvxEkAxhxxEoCr8+uvv/7mN7/5/Pmz9xgAAAD9ECcBGHPESQCuDnd2AwAAGAVjJwEYc8RJAK4OcRIAAAAATAHiJABXhzgJAAAAAKYAcRKAq/P73//+559//t3vfuc9BgAAAABMIOIkAAAAABgvBwcHv/zyi/cAAMYPcRIAAAAAjBfu7AZgzBEnAQAAAMB4IU4CMOaIkwBcHcZOAgAAGAVxEoAxR5wE4OpwZzcAAIBRECcBGHPESQCuDnESAAAAAEwB4iQAV4c4CQAAAACmAHESgKvz66+//uY3v/n8+bP3GAAAAAAwgYiTAAAAAAAA8A2IkwAAAABgvPz8888//fST9wAAxg9xEgAAAACMF+7sBmDMEScBAAAAwHghTgIw5oiTAFwd7uwGAAAwCuIkAGOOOAnA1SFOAgAAGMUvDu8BAIwf4iQAV4c4CQAAAACmAHESgKtwcHBg/5c4CQAAYDi3agKAMUecBODS2VWRoihuh237v7/++qv9w8LCAl24AQAA/H7729/+9NNP3gPHzz//3PMMAIwD4iQAV6GnNvqjP/ojRVH44xsAAIDfzz//7NZIcuQk5w9v9kP7SfdVABgfxEkAroJdBi0sLHgPTk9/cngPAAAA4Pjll18URfmjP/oj58Zuv3Uf8hc4AGOIOAnAVXCLIfePbDa3TnJ/BgAAQNvCwsJPP/3kxkk9f5ADgPFBnATgitglUTKZtKuif/7P/zl/ZwMAAOjLvd7t7//9v2/XTvYPXOkGYDwRJwG4InYx9Df/5t+0q6J/9I/+EVe6AQAA9OX26f6H//Af/uEf/iF/gQMwtoiTAFwRtzZycaUbAADAIO71blzpBmCcEScBuDqxWMyNk/g7GwAAwCDu9W42rnQDMLaIkwBcHbc2Wl5e9h4DAADgjHafbv4CB2BsEScBuDpubcSVbgAAAMMtOLwHADB+LjFOss8bAcDvj//4jxVFsf/rPQaAFv4CHyCvTQFMsj90eA8A4NJ8dw12WXGSvUJO90wAAIDz2dWMV0PgYqjBAADA6L67BrvcOOmP/uiP7B8AAACGuEgpgx5ue1KDAQCAc41vnERpCAAAhqNmCBbtCQAARkGcBAAAJhg1Q7BoTwAAMAriJAAAMMGoGYJFewIAgFFMTJz0qmCc+8+bFAAA/DCIP4JFDQYAAEYxSXFS7T/tDflHKQMAwA+IOClY1GAAAGAUExYn/V8DUMoAAPBjIk4KFjUYAAAYBXESAACYYMRJwaIGAwAAo5ikOOnf/+Xu/yH9n/8/538O7+cvf7lLKQMAwA+IOClY1GAAAGAUkxQn/du/qP1PA/zbf1ejlAEA4AdEnBQsajAAADCKSYqTfvnzL3/wB/f6/rNfopQBAOAHRJwULGowAAAwikmKk7Y/VXd3/8vuf/4vZ/+7XalSygA/kBOzsVur7TXNE+8JAD8s4qRgUYMBGIYaDEDLJMVJ5f/t33z5Uuv7z36JUgYYB+ZGQoh44dB7OERzp2h88X7+NoellCbsXxGKiOX2vOcA/LCIk4JFDQZMKGowAFdskuKk//VP/2znz//dn//5Xzj//Xf+n/+XP/0zShlgHFifcsnlbPnIezjQQSEuRPK95T38Fo1XMSGi6a1afa9hes8B+HERJwWLGgyYUNRgAK7YJMVJ/++tf/1+618P+i+lDHB5rK9V42Uy8bziPe5m1kr5x4n0+2+pK/bzdj3yfaVM9bkmbqQrl9TF+mMm8ShnfGl6D7tV1/Tk82L18HtWG8AlIU4KFjUYMFaowVzUYMAYmqQ46dx/3qQAAmM1d4rZ5VhEKGI+ltyoe0+7Tsza+1zqjioUJbyk57/IL3hrO6c/9P4yVnud1Ncq9Y+55N2otqhF76Xzn5wSYd9I39PCISVyK6E/LblVQ+NjPnUvpi2q2q1E+nWl2apUzO2s/qhQ+ZhNRLXo3ZX/+096XBPKjBq7ryff1OQUR9Xis2T8lqYuqFo0rj8r1o6dd0pW40Mudb812zfVToVi1uS7oqq6GI0vZ43dVnWyW0jelJsbuZ3Mvas2u4uWxmY6dkO+GH2YLX5qUNEA44A4KVjUYMB4oAbznnZRgwFjaGLiJABXympUNrLySz0k1Dup3Gat60vd+UNZbEF+qcdWur7U/dftlx+FlQVVXYilXhYKb7L6klBmE8UDWXwYL3Q1JKKP8oXNmmmXCBt6JBTWlrOFd0ZxLRWdE+qKV+I03ybErKreUGMPkol7/3N+o5C5G1Hm4unXheJ249SqZW8KsZjIrhulzWL+acIurCKPy+761NcT9myjj3LFTaPw3H5JRJ9X5UvHVfmuG/ZMisZmIXNPFbOxnFOKOewCzsitxNQZRdyIJV90/ylMFnD51F3VLsXCUT2zXml0KicA14CaIVi0J3DNqMGowYAJQZwE4IzPueicosxpidVCebe3+3T9TSIilPBiPPWqVPvqPdnWW8qIaM7585X0OauFhP7OmaG/o7VZSs4r6uNye0nmh5Qq1PQn+aosZRQRf9NwX7JVn2liodXR+nMuthDNOFM6rNJyWFnK1uxXj8spe7aP2rO1Kk+dN1qn9bWYmInn20NIntTzt4W4W+j83cx1VCu9Sic0eysi8VftzfCYe+XCU91pKP8KALhq1AzBoj2B60QN5qIGAyYBcRKAM7bTql2saIn0m3K9t5I5rb2Mun8uy7+vnb1HbG8po2Wq7WmOivK1dadg8Jcy2+lIKKyv1zo+5xOzivZcVg+ylOm+e0hXKeNjHtarH43MnbCy6Cx0J6OGIqlt71XJe0uzcFeIm5mytzCptKopM7rRs7EnZm0rn76r2turPat6T7Yd18vrGX0prNhL+UApA1wbaoZg0Z7AdaIGc1GDAZOAOAlAH9Zhtfg8GZ2XV8jHn+RLsjd0R/OLkXvk9ENeiCVfGv5+yD2ljLiZ61zrbxp9Sxnzne7ccrZX+HHZftUpZRJF321KuksZq7GVTd7WIjPyLWIhGl0UbiljbSVFKJrt/YOWXaDUskvOAnqIWH7fm+T0a81YS8VbPcmNz13dzM3dcn41oc3Kv4npz4qVA+oY4DpRMwSL9gSuFzUYNRgwKYiTAAxmNavtq/dvp3Lb3T2Rfd/30eVsyakDvqOUcWoOLbNjdfP+kDW8lDE/ptSQ0JZzxna1/lXOrfw44v1l7GMqElIzO3Iyj2U2j+xp6rmbQtwvNr0Ftbi10UE5t+IMe3nDqdKcebY1P8kr9kVIiUT1zNsK40AC44CaIVi0JzAWqMGowYCxR5wE4FxyWMTsckx7Iv9U1cu7t4iWdC7IH7WUOcjHhdDdjtZOWRNb60x4emik7+uZLTnl8FKm8iSizKW8UR+lRv6WUNxXDwvxGRF71Zlt0123A0uWO/PJUuevfVZ1TU+sFOTV/lsp7XYyt1lt39bEr/I0yv1EgHFDzRAs2hMYJ9RgHmowYAwRJwEYWb9v9w7n1VFLGXkNv6I9KpZ37LLALK2oykw0tVFrHlvmXjl7N6LMxgvOn9qGlzL1tagIaektp7Y4qhlPY+GQIosb+apZfqwqc/Hsh7p5bDY+FfRFEXloyMXXcrEZJXI/V943reNmdSOl2SuzWpEzGWEbAYwVaoZg0Z7AOBqhPqEGA3DFiJMABGnUUua0Yayo8nJ99+9ax/XiY9m92RXW9Nwnd7JzSplTs5q758xHONfYPyqU1/WwiOZ2nVct32xDYe1hvtr6a1hzO6drYecF+72R2BOjLgsZAJOHmiFYtCcwoajBAFwx4iQA18YyTfPY+1k6bjZ26/UD81uLCuuwXt9tNP2z8jOb9d16o/sKfJd5YL+xPvCNACYBNUOwaE/gR0ANBuDiiJMAAMAEo2YIFu0JAABGQZwEAAAmGDVDsGhPAAAwCuIkAAAwwagZgkV7AgCAURAnAQCACUbNECzaEwAAjII4CQAATDBqhmDRngAAYBTESQAcJ75/l+rKFgTgx0DNECzaE1PrxGru12u1/jcauyLTVwUFuEUBzgrAlSBOAnDaeBMX9kfOLyTCC9HEarE2yg1cd3NREU599B4NdFJJ3/Bm3yZmI9qdZG676U1ztcqPwiKaq7lVy3G9tFG+nvUAcAHUDMGiPTGFjqqF1YQ251QejrCWSG/UTO/lK3KV5ZZYKXkP274WE0KJvqh5D4MQ4BZddFaB28vHhEi+95LH5k7R+OL+CKCDOAmA8xUe0pJvSuUPZedfqbRZzD2KhUNKZKV0frH1TfXNnWzJW0q5vFUyXmcSi0KZieWCLG9GVXuTTD41Gs7PlSeRTrQEYHJQMwSL9sS0OSwlNaHMavrzYnmnVt+rVz8Us/c1EQrHX9e9aa7ElZZbVxYnBbRFF51V4L6WMsvJ/I7z80Eh7ouWALQRJwFwvsJFNLfrPWwxSysRZSZR/Oo9HuiC9c1uLiYU9WnVe3hNyo99PZUATA5qhmDRnpguzeKDsDIbz33pyQKaxnJEmdONI+/xFbjmcuuS4qSAtuiis7pU+109lQC0EScBGPQVflp7EVVELL/nPTRrRnY5HtVUdSmmrxaq7a/2nvrGrBWfJeNRVV2Mxpezxm7r23dQfXNc0meU8ErZe3jSrK6n9duauqhF76ZyHxrtb+/a66S+Vq5tZvRbmqpF449y5X3fV/vXauGpHltyl5spfun8Kav5KZ++H9MW5Zv8ay5nuGo0Tq3Kmh5bkH+6jN/X85+d104aldfphL0guRrJ3Pu6t6STevGxnt2qFB/FNC2m/5z/fzzUM+/9F8k1jCd68s119LYCfkjUDMGiPTFVZIkyIEPZLWae5iuHzs+HpczDtPGplL6jaTcT2W1ZQgwqe8yPWf1hrtK5AqthrLa/92WRkHlfLb9M2gWJXXUknxv11pTXXG51x0mDSiObtVfKrbRW4Gmx2krczO2s/qhQ+ZhNRO3SKF06GHWLBs1whDipd1YDt9rZg8WdSv6RXJB2W8+87bqYcWCrnprVtxlZdi7Y70qkXpUb7l8W5Qx12Ttp30jf02QnqVsJ/WnJLfgGHhvdTfTH73PJB6lie+VtR+Xsw2Tuk698BSYZcRKAAV/hh6WUpiiLmYrzlWd+ykRnlMiddH7DMN7IK9SEliq5X5/++ua4mr0pxI14+nXR2Cxk7qliNub9SbB/fWPVXsXDIZFYd7+gm+XHmphRE88KxqaRX41HRCSx7vVFLz8KK3ORyI145m2ptJlP2hXiQtJw1+GrvbZCLCYybwxjI5++ExEz0cwnp5Co5aIz4eijfPF9yVjPJhaEuJ2vO7VCe+yk+odC+rZQbiQyrwvlffuVRvFBRJnR9Bf2arh9rcPxVzW5GSfVzKKILKqRpUTyYTy5/v8p3JEzdK+Yk2RrRFIfKBSAK0LNECzaE9NEVjghLXvuqDfOd7e6GNHu6Pq9RO7zsLKnuW5XTQmjnVWc2HWGCD92/irmFAnh+UjkVir/vlx6k47NKeF7BbfquNZyqztOGlwaWbV83F7nW6mcvQJvs/qSvcqZirOxzbcJMauqN9TYg2TiXqZ8PNIWDZnh+XFS96yGbbUz1FFkPqwt54ytUvFZPBISsZdO5Ta0VRvribBd770slux3vdS1GaE9q8p3tcdOOqoaL3Q1JOzmKmzKiGrYsdHTRP9fQ59TtOedNFMePLPX3dkKCA5xEgC32AprdxP6A935l0jciaozijIXc/9Ad3paz98W4mbO+1q2HRQSc/IKNfmErxqor8XETLzzR6QT5413CzIrcuobZSGW8Jai6/fjMS0sFKE+LLpFzOlORguF9Y12Zx+r+kwT80n3onkZJ4lott1f/av9JS3cL2l7MmU2XpBJkMOq5W7JFa7bW/fa/uZOllp/GzS3c8nHebeO8Q/F7b/YzfqQioQiyc3OalSe2vNPFA/dStGubNLtP0s2NxJCxHKtTa4918RC2qt7AFw+aoZg0Z6YJpWnqiISRf8VbWazedBoeP+azU6uoYQftjOiYWXPeXGSXSSkyq1XzY8pNRRJfZQzuspya3icNLg0ahbv2+VQ1lme47Bo11rRl/IPezIrUUT8TecvaCNs0bAZ9sZJ58xq6FbL9EeJPDRapZtVfR4Vs+7FjENa1TQetOYgWdXXqdRL58Ys/qG4uy52G3ps9DaRJS/WW8xU3Sr3tGG/N7x8HUNBAZeDOAmA9xUevacnl5P6g7i89YlQ9bVyvf11J0sQEX/dKSDsL0jjYViJZmX+0qkGmoW79ldsplzrKK1qyowuq65WnKQvJ5PLeuKWKhQlfCtd3Gm2v5GdLs3x3I73XmkjGbHrsG35qkx/bsmEqMUpAm7lG6f13E0hHnRKO1vT3igRLxyeWttpNSTUO6nc21L1oL0oaVCcJKvP+VTZP20tGw0JfdNyK8XwSqnzoilTrehL509Pzp8ltWfXPA4U8EOhZggW7YlpUlntjZPkV7yPL9cQibetOmJo2XNu7yTVPxzkSSU17xUGV1luDY+TBpZGx4Y+q6iPDW+mUiV3W4g7BXudZFbi+/uZ7fwtGjrDs3HSsFkN32qZ/oSTW75t+ZLV7Jl/sIa3ql15ilAkupItvK/6ljU4Thp+bJxpItnUQk27V7fJ7aUDO6YKcRIA5yvc38H4qJK5KZT5RKF9Rbr9/Rdq/1nGIwuyG+mKv745qWWXnOqsh4jl98/WN1b9rR4Jiehq+294p+XHEe8tXYT+Tk4i05/uzKjyxPmbj1VJLyiR1Yr3rMPaSoqQ/d1u/2jW3qbji2F3VpGonnnnDYQ0IE6ySst2weU973GrhzeNPpXiqVV+FBFLsoxwigb7nd4LAK4ANUOwaE9Mk8brWM/FbuZetbJdkf/eZ2L2t72vm0xyy5nCNrTsOTdOivmzBqc0cgeIvLpya0ERD42uudic25NF19y/yg0ojQ7ydpv0obWzkq5s7vwtGjrDzhaNMqvhW72Xj810X9XobG9iwzynVa268TShzTlrKbtHpQufnV07KE4afmycaSJ5SGgi8lj+jVJGV3Rgx3QhTgJw5ivctleIzykimqm6HaGd71H5ldxhlR+Fve67nWrA6SV0v9i0urm5TJ8/l5nlJ5oSiiQ2vMJL/hVxPlU+9t7X4r7opD/3iq0OyTartByWV7RZXq3m/4I2nWvQOj2iTy1zt2K8ySZvRZSQmnK6nQ/qnWT/7OuZ7Gi3QJ846dT6lFaFlvlslh9HusZRAnD5qBmCRXtiqsjOxUrUN3hNh2nI3jr+OOmD87xtaNnjxkmdyEDmBYo/TmpFNg4n3FGdv3hdUbklX1XEnTPVyOeMFhKJt74y6mxp5PzxLPaq7s2w5dSZ8/lxkq1ni4bO0LdFI8xq+FbL9EdNf3J+drn79L11Tqu6TszGTqnwIhVfEPJ+f1/dGfaLk4YfG2fjJHu9X0aFXdya1axGB3ZMG+IkAP2+wu0vvzdyhOyoOx7hSSWzoET8F3tblfRia5SBTjVgye5FraGOHFZ1TU+sFGRM07f3tSnno8zrclgi+9E7PRzSMr4bXpgfMokHacNJheS3tX/mx3aJJtQnFUtemm5/kfv/4GOWliPKDXnBWu1NMvGo2CmqjrzKxv7RnqEvQooItzO5VzB1dTKStaP7581+cZL9ZHZJaE9zqQUR98YUB3BFqBmCRXtiujSLD8LKTMy7O4eP9SUrb/rWN04aWvZ4f69qD9f4tZiY8cdJStefvmr2UsL6ppzTFZVb7qszvgElJav2PKq0OmoNLI2cHkBd639SL6wkkmuywhopTurdomEzPCdO6pnV8K120h9/kCdnaDfCwfBWrRtPEvrrTsFnbSXDITWz0x0nHeTtldPdn4fuo75xkkygZiKptYw201VbAlOAOAlA/69wd4DD9tDX9df2N3oksVZpmJZ1WC2saEK0ch9fNXBay8VmlMj9XHnftI6b1Y2UJhRt1Ska+sZJMjBKqaHW6InHlcySPeNkYcdejtn4lNcXFHEz6453KOMkRVEf5CsHpnlQKSyrYiaWd1bb+pyNzghtuVA9tOz3VV4l1JCIrckv7eamHrHX/JWz5vZLL+Nhe8135Bz9cVL1qarMxXNbldpXe53K6UUhbqaNL037PfWtbHxeCd93Cq++cZLdPi+jYkZwtw7g6lEzBIv2xLT5Wk5H7XomElvJFjbLlU+V8mYhuxKLCEWZj2fdmKknThpe9nzJaiFFWylWD5qNWil3Xw13x0lKKBJ/Ua4fmc0vxVRUiKWMG4dcUbnVelXe7na9VP5UqXyUt8pVhRJ54EVIQ0qjxtuEvJvts1L9yLK+1kqrMXt93JuTjBgn9WzRkBmeGyf1zGrYVsv0R1FmY+nNWtNs1t9nYnOK+sgbTmFwq1qVJ7L8y36om9apfOmBqtxwEit/nCTjNkV7VCzvNOzHQ/ZR/zjptFm4J2SVSAd2TB3iJAADvsJtbjlyy717hVl5pWuz9kdTCmuJ7IfWd6K/vrG/M7dzuuZejS+vx489MbyRigbESfY75G0v7NrivVNb7Jcyd+Uo3e771buZ0oEzlRsnaXr6oV08SHIdPnb+3NX8kE0stt43F02uVVqvNSsvEvLmIA4xH0299W7H4Y+TrJ2cXXnIS/Bfye2y9oz0HVlqOu+JxB4V5L1hbQPipNP9fFwo3K0DuHrUDMGiPTGFjuull8l4u0iwv9gXYsnnRq192n8mThpW9tgvvWzVFSISf17KP+gaOylyP52KesMSyTKm1Uvoisoth/kpn7zVKmNsM2p8tVhv3cptSGlkv7X6OhmVFZHDLqjeeBXQqHGSrXuLBs3w/DjJ1jWrwVvtpD/xx+nYfOulx8VaZ3sHt6pZzT/UwqHWS0t6fsdZO3+cdNowVpzSdM69T8vAuQ2Ik5ze94qIr7cPIWBKECcB+BYnZmOvXj8w3W/XIcyDen233ux8kX8b66hhv73xtWs5Mv25maufnFqH9fp+535wPpa5X6/vNU0nIepiOWtuv+vsS20nlnlk+iewvtqr0RhpKw4K8Rnu1gFcA2qGYNGemGJedXE48p9+hpQ9x01Z5/TMyfubU8VeVHPfXtD3VgUBlVvO9tbqe43+MxpSGp2YTfsl+41DqqZvEugM+2y1m/5seRvVu19cg1vVfpM9w/rQA8MyTdO/xJH3kc3c1MOzOh3YMX2IkwBMDC9O8h6NFbOyqgnN680O4CpRMwSL9gS+XydOwtVqx0lj6LiWuyUirSvvgGlCnARgYoxnnFR9Ho3MCiWkegMBALha1AzBoj2B70ecdF3GNE6q5+9GwjOKMpcodO41DEwP4iQAE6P5pVz65B8ZYCxYNSO/li9+kqMzArh61AzBoj2BCzDr26Vya2ggXJ3jRmWrLO+mMmYaH/K5tUJ5jyIR04k4CQAATDBqhmDRngAAYBTESQAAYIJRMwSL9gQAAKMgTgIAABOMmiFYtCcAABgFcRIAAJhg1AzBoj0BAMAoiJMAAMAEo2YIFu0JAABGQZwEAAAmGDVDsGhPAAAwCuIkAAAwwagZgkV7AgCAUYx1nLS2tvYBAABgsGKxSPwRIGowAAAwigvWYJcYJy0uLtprBgAAMNz8/DxxUlCowQAAwIguUoNdbu+kP/mTP/mvAAAAg/3FX/yFXTMQJwWFGgwAAIzigjUYYycBAIDrRM0QLNoTAACM4oI1A3ESAAC4TtQMwaI9AQDAKIiTAADABKNmCBbtCQAARkGcBAAAJhg1Q7BoTwAAMAriJAAAMMGoGYJFewIAgFEQJwEAgAlGzRAs2hMAAIyCOAkAAEwwaoZg0Z4AAGAUxEkAAGCCUTMEi/YEAACjIE4CAAATjJohWLQnAAAYBXESAACYYNQMwaI9AQDAKIiTAADABKNmCNYP2p4nzr8LsI4a9VqtvtcwLe+ZMWfu1+pH3s8ubxP2m9bFmuIHYjXrteaE7HDJPKzXa/XGoek9Hn/nfjDdCc7+62U19+XR3TiaoN0FTADiJAAAMMGoGYIVVHs21+NCJAznvLX8KCyiuVqfczw/s7ZpVLzzXMt4KJTFTLX3LfXcTSHuFprewyBspyMhe4vbRPhGNLFarI16xm01tnLJWxHhvV1RZiKx5Vz50Hv5qgxqMcdhwd4Z+jvfJu0XE4uJ4oH3yPxSSN1RRasdxHxUf1Fu+GbV3CkaX7yfe+3lY0Ik30/TWfrIjXlSz93SklvfczzWXkQVkSh2J3oucyMhRLxw3iFkHVSKW3XvwTms+mYmoYW9HawoYS2ReVf37TP/p6+X9T4pRCy/L39uvLG3PprbdV7wqTxVlRm9FOBRcFJOzXtr6xIzEe1OMrvZWu2TWnbJe+kssdxaF6teeqFH59sfUBG5lcx9DPJXCPAjI04CAAATjJohWJcRJ9XeJJNPjYbz/CDWpu47hb7iOEnEVgvFt0X7X+FNPvckrgolfL84fIUdVnUtHg6JyJ10frNS263Xv1SMV6nYvCIWU+V+ScGl+aY4qWk8iERf1LxHh0V9XgnfTNmbUP1Sq30qFVbjdptoq6144UC+fWBg9LWUWU7md7xHU+EbGtP6mFbtfT0giBliSJxkfcoll7PnHD8yTBGR1Yr3cCjzQ0q1d+jDnPGxWvtSq34oZu+rIhRJbnqfpO5PX69rjJPE7XTB+WAW1wv5lxk9GlaUcOy5e2SatffOS/LVTHxOETdT3sT2v23n43tczd0JK0KNrxZKO7X6bq2ymU/djiihSOKNP00D8J2IkwAAwASjZgjWZcRJozDfXWOcFE5+8B65nFP9WH7PeziI9TmrCUVdKTW719P6ko3OiE5ecxW+JQH5lNFmE8Wv7qPTxmv7xXi+1VPJYVWeqMpMa5r96et/NNw3ZXP13C0RWxuxl1DHkDhpJCdV++AbHCeZ9Y+F9IOU0wHNNB4IZSnb1T3wpJa1l38r76632fXp63WNcVL4Udl76DppFB9GlJCW2ele0kk1s6iIh0b3s1blqaYILfWh+xfGScN4qCqyw6Tz8GMm8ShnfKG/EvA9iJMAAMAEo2YI1mXESbXXSX3V651k7Zdzj+JRTVW1aHw5U/wip2huZRI3ZZeB6D099dY+wx0pTuo7K49ZKz5LxqOqumi/lDV2W6eZh6XMw7TxqZS+o2k3E9lts2+c5Fxt5JwzH5WzD/XMe/+pZsN4oiff2GeiZmkloszpRp9EwCyvpb2rck7qxcd6dqtSfBTTtJj+quo82ai8TiduaeqiFr2bzL1vX79TLz7S0xu+bGInrz/MlJxYRzbjWrm2mdHtN9qb/ChX3m+fPve2WPNTPn0/pi1qsQcZ42POl4CYxsNw+GEn6KuvxdphQcdeqbBeklf87Rvpe1o4pERuJfSnpebZzZFNqru9k6ztnL5SqO6Wsg/tRavabT3z1nfV4HHdeG7vFE1diunPS9WtrD1x/0sgB005do0pNV7HxEK60n63T/N9Rn+QNnra1jGsd5LdjA9bvZO8prCPZC16L+Vt3UmtsBLXZhSxGEvYU3bWxd699bLdGlpYCYW1ezmnG0+zeE8oSxmnsToa24XCu6p9ZJ/59NnM6tuMflvTtGjiSaGyrn9jnOS9XV2wj4FE6pXvwsmTZnU9LV+SOyuV+9Bor1T1ldwj1dd61N61K8W61S9Osn0tJmaVyONy19b0jZOODN2ecqXkbx7PYSEx05rJbiF5MyIUEbmdzNkN0jULAOcgTgIAABOMmiFY57Wn1dyt1fbPnHOdCQX6j51kVTKavDSs8K5U2iyk70SUuUTx8NSqlfIrUSWkJV8Wip/sM9wR4qQBs5KOq1l7shvx9OuisVnI3FPFbCz3xVnl3VxURNTFiHZH1+8lcp/79E4y90rpmyJ8t+CcWDcKd4S4ne9c+ObMIfXBOj2ppOcV8eC8DljyRFdEFtXIUiL5MJ5ct+fUKD6IKDOa/qJgbBZzj2LhUDj+qibXz57ngtCeVd232vwdQ+xmVOYikRvxzFt7k/PJqFAWkobXyairxcyPaU0I9V6msFHMr8Yjs8I+W/YSEHmOLeLrvoBsNx+TwUQi/cqo7J7Zs0dV44WuhkT0Ub6wWTPPbo5v7CQZw82o6oIaX80V1vOy5UOR5HtnuSf1/N2wMhuVu/htLnUzHJ4LK/Op8pkjZ9iU49aYLueQSG/3tpyt/spuGy3bb9ip0cZOkpGlWEhk143SeyP/KBoOqakP9qIblfVMfF4J30nn10tufmbulvJP4qq9K+ej+rOCLx07bW7oziWZqdy7Su2wdz3Pfvqqz6P2jos/yRc3Cpn7WnjG3uJviJMa64mwvUdeFktbpeJLXZuRe8F5pVl+rNlHSOKZvbMM2Zgiklj38r7Sir0LVPVGNLGsxx8bzb69kyT5kVSiPZ2t+sVJH1ORUPee6mgW7vp/w1jNHSO3EpOtdyOWfFGsnmklAH0RJwEAgAlGzRCsYe15WErLsUskedL1vFj+Uq9/NrIPUl6O49M/TvqS1YSa/uRMYTssZVbSReeSE/NbL3YbPCvZ3WYm3rlU7aSev916lzzzV/x9c7yhuEWLMxy1WEgarYu/mvLcPpZrza32XPO6onwtJoTiTyvs1TYPG42D1r9D5yZvzomuspiuHLvTnFof7LPczrA19hPykpxZJws7NwER0aybi9m+Gvqc0J67V+z4W6yevyXEnXy91Xoy1GgnIPb2Ci3z2Xmhpfkppy+19uycFl/O5D+0+vjY/Be7ndmc3jhJEXGZ8jiOy6kbsg+I/aO5lYyE1PTHVsMfVzJLSt84adiU49aYLqucmvvmaxtHipNkpCKiL1sdrE7qxSfJzKbzsOtit6axooqQUAf2rzFr66lYazjq8GJMf5IzfP3GTP+nT3b/EdHn7c5MzeJ9u61Gj5PktXW+K1Kt6utU6mVZPtzJaKGwvtHZWdVnmphPut2HZJwU8u2RgXGSVVoWvUdOvzip+TYhQmpmwKhe5ccRe4WN9mHsOqqVXjl9u0Qk/urbdijwYyJOAgAAE4yaIVjD2nM7rd1J5daN4uts8rbauVWSlj47FHH/OOnIPml3OsKsFctfuk57u05oR4mTBs5K9jsQNzPlWkdpVZOnjvbKyDhJJN76VlfGSSL6OJ9/7fx7lcuu6tF5e6OShrsypgwaoi+dc0t51tpKKL4W4kJR/XGSEzB1zCRL9vo7J7rhlc6oMvLE2z4Z9m98LRsNCX3T6fE0NAERt3KtaMHmnLffcntO+VrsyF4NEX/d6VDlH+7H2S/tdvazmrVy8VUmdT+qzthrL9Rlw7tG6Uyc5N+c3jiptbYOJ4tx7rFVeRJRFjIV3w6VwVy/OGnYlGPWmJ6Tujyq2rcSG81ovZMashPNrKY/zRvb9a4PTFecZE8mE5DYSs7Y6ZcmuU7M+raRf57Sb6vhkOIMR+1047KX6Pv0WVvJcKirR5W1qYdb7dYcoXeSvWkiFImuZAvvq3VfOzmbHM/teJ9KaSMZCUVS2/JVGSf5P/KD4yS5d26k/UeIe2D0xkn2oT4kTnoU7hMnnZi1rXz6rszm/EcOgEGIkwAAwASjZgjWsPY8avrHnDZ3K6WNYvF9tdFzSuboHyfZ79rJyyjK7QQkryspuaOn+E9o7TNG2QGh54zR5o4ffK/odm/oP6tBtw93z4dlnBRObjnvd/UbO8nazcVmlMgTdzwcq/woIpyRjK3ttCq3xJ1Inu52Xex20qxtVyryX7mwbJ9dt+MkoT5tn5o6m9ZqDY/MoUT8TeP8BKT72jqZvHhn4L4ExInMZJ7SdlJKznoJiOxc4yZrQxzXS6tRYTfLpjNdb5zk35yzcVJnkO/T04bsFyZzFrl64qY/vnGCiT5x0tApx6wxW5zNvF8c3qg9RouT7A9kOfswGnFjylk1/ihfcZu3ZyjuE7PeykEiN/Xs20rfT2WbZc/2TliZiRecXnim79MnO/XYP/uHZt/JqDOtOElmNNHsmY47svXsA95tJ6tuPE1oc85Kh8La3XThs2wb2SGoD68xSyuiK+AbGCfJsc97jpC+cZIlL3YLd+27jp6L3ezDpmaspeILwknlssbnwakcAB/iJAAAMMGoGYIVVHsOipNc1tda5V0+80ALh7wrjPwntLbKquzs0Jt6yKuKurvG9JmV04PpfrFpdXOX7sZJ/vCoX5zkZlLiTsHtlGJ9SqvyAjHTPh/2jaMkx7SWQ3F30pOO6jNtQJxkn1SHu85jbU5ek9gwzyYgTrP4EpBWlOawSstheV4tZ+VLQJz7+ife+iY8NvQZ76TduVjJl2KcVDJLEW31zEDS8i2K9txZkwDiJCdK6N7q+sto395Jw6Ycs8ZscQKOnoF7zjNqnOQ6btQ+FHNPEnJwnzvOETjgzm7mbjn/JKHNKsqclnhq1I7tJeXjNyJeMujnHPmpj/JHp2W8JVqb9s/d/Y/kBZJeuzl9lyKpjz3bahbvC2Whe0ecmI2dUuGFk9E4HxP5obb347H3iWzxJh81TrL3yIyi9hyx/eIk+wOanFMiy32H4nbG837kdGs7KOdWYnIs7hux5Euj+rVn0wAMQ5wEAAAmGDVDsC41TrI+5fR7mVLnFNo5D78vu3X4T2ht9kP7rFXvjIkjmR9Tasi78mjwrCyZR7QGZHFY1TU94d4abMQ4aV+esnZyK/vUfUloT3Opha5BrK2djCYU9WHRN86Q46RpLDudNewlnklAnN4fdnN4D21Ojw/n8iLnrNg7y3XIWMqXgHRt17GMS9RWF6pOAmLPRFPCy50sTnaqao1JLOOArrDAGRlnXnfuKO9Ty0bt/eFu7EHe3pf6xeIkU14w5R8ZR+6v3hFwHMOmHLPG9JxU0je622QEI8VJX0uZB4nsp/YWnFafqsps0mmKmn1MRp70xkke9/5uSwm5scdON7o7+Z6j1D8Kkun/9Dk7tDMAlreqXrs5aZ3SaqgWOfKUEvZ6e9WNJwn9dWeXOAmUvOjMXko4pGV8m2N+yCQepA1nYLKR4qSThrEs7/Hf2z3K2ddnEj1nbKaQmuq6M6OcSfFhxJ6Jd9hspbTbydxm1d/1EsCIiJMAAMAEo2YI1qXGSU5MI7QVeeMkyzLrW5nojIityVNI64M859Rflyu7znvkAMzOqDEviqXtSuVT2VhLxeYVZTHl3UB98KxOa86lavdz5X3TOm5WN1KaULwOOP3jJBF7Uiise//ybn+KmdbN4Byyg8yMELP+rMRm1d4kIiElvJRIv3LW82OpuOYM5asIbbno9iLpzV/McnpRiJtp40vTWfOsvEXXfWdir8dTPPuh3jysV96movPC36HG3jXqg3zlwDQPKoVlVczE8l4w5EtATp1ba4UiibVy48hs7hSS9va3R492utvovr4q1pdcbFZ2zUit2ZtQrdpN/TodvyGElnZuM++OH6Roj4rlnYZ1dnNGi5PsppJ530Iiu1GufDRyD5yrFPvFScOmHLfGdMkmDfubtK25lUk+TBtuENNNZjQhLfmqc+DJf28r9pp34iR5daezdbWmdWI1a4Z9KIe9TlVOfnorY2zXOjfbH8DeBHmU3kxm35YqO9XqdqnwTHZ0iiwbbtDS/elrllYiylwss1Vvms3au3R0tnWtqGSWVlQlFI49yhU/2B/MSultLhkNKzPRzI67Hlblieo2u2mdWofVwgNVueEkd86HWmjJwk7DtMzGp7y+oIibWXcAp75xkriVbjdO/kVatxdkL/ple5jwlv5xkjyW8ncjilDjq4XSp1p9t1Z5n0/djjjjRrXitbNHIICREScBAIAJRs0QrMuNk+wz2/fp2I3WgNUzkfiq4Z0MH5Xd28aJ+62eIAfl7INouDWtHITlXqbku/35wFnZS9/O6TLTcYhI7InhnTv2j5O8CV1iXo09yLijvXTs5+NCCfe7cKb5qZB50BrdxibkYDH5j611OZuA2Ce5e0b6Tusd9uo9KnTusrVnpFq3zwsvJQsbGa01bI1MQDQ9/VDmGfJVLZH92O520ZWA2Of8lTVdXvFkm1ETa9lEZ/RoGfFEHneNXm1+KabvOsMzu0Qk+jBXbvUUs98ibxxmPz+XKh9/b5xk+1qR92KfFWJOjT8uFB6r4uzwWK5BU45dY0rmOz08qxv9+hnJmwx2D2vdJuOks2Zlj7ZOnGSvym4xdbN1JIeEei/b3i/1Nwm52aHe+/T1Y9U3M4nWzftsYk5LPCt1+iv1fPqOa4VHUfd4EPPxzIuk2omT5Mzk0Ehug0giHNVz274eQGY1/1BrH07hJT2/02qu/VLmbnsUf6HezZRa3eL6xkkdIWF/MKP3Urmt3r6A0qA4yWY1yi+T0dZd7exfI+rdVH670/cKwEUQJwEAgAlGzRCsq2jPE6u5X6/vNs6Odmsemc7d9X2Om43dWs2euHP+7jN4VjbzwH6p3hw6JvGo5IgtkdSHfotxWaZck71G7/oPZn1tyDXvs3qWXPP93m2SqZwzuI912OfVPiyzsVc/227NjUT4Rqp8drmyqZ1N6Ndilmn2fX5UX+v1g662kQNRtULGLqNP6XNdjWk3Z/F+WO2O5wJn2iu5W28cnVnIsdk8++RgTis529uvMXs+ffYWy4NhULM7H71ard4YMNiQfLu9rMM+TWYdyZcGvfFyOIfBXt8jBMD3I04CAAATjJohWLRnP2ZlVRNa5sw1NlfKS0C8RxdgVTNL4cSGrzvJ5XNvP59uj5tzUNRvnBmCxzH6lBcRWGPu5WNzsbwz+g8A/GiIkwAAwASjZggW7dmj+jwamRVKSE12jwt+9QJLQE5PzQ8pdelq0zF3FJsZNXpX1+/F1FklfDNd7hqIqmX0KS8goMY0S4/U6PPrjRkB4NoQJwEAgAlGzRAs2rOHVTPya/nip3PHO750zS/l0qd+A8d8D7P6Nmf4bwZ/BU7M+sdifi2bfZkvbtWG3Uhr9Cm/VzCNeVwrrhnuSNIA8AMiTgIAABOMmiFYtCcAABgFcRIAAJhg1AzBoj0BAMAoiJMAAMAEo2YI1g/anifOvwuQN6uq1b7pzm5jymrWa9d3ZZ8lb+Q3Dc047qxGrT7CDe3GxsQdGO6vlCG/VdoT9Pw7y2zWd2u1vebAu+wB14c4CQAATDBqhmAF1Z7N9bgQCcO5S7gc9vi8G73b50y1TaPi3VXcMh4KZTFT7X1LPXdTiLuFIMfE3k5HQvYWt4nwjWhitVjrc3/zvqzGVi55KyK8tyvKTCS2nCsfei9flUEt5jgs2DtDfzfKJlmVp1HtqXMbNdky4eQH9/luJ9XMooisVryHgxzXSxvlUXfW10p+JRaZ8VpRNuNKvuIbgds6qBS3BoydPeL6TI+hu/uklouK8OOy97A/e0drUXdHfyurpM8o6tOq99Bv1B3h/7Cf50IHhq8pTirpG4pYKTkv+HwtJoQSfVHzHgah8TrW+YVgC4nwQjTxpNBebWtT75rALxTNtQY1M3cK6TtquP0LalZLPB39VxNwFYiTAADABKNmCNZlxEm1N8nkU6PhPD+IPL8S8YKXwlxxnCRiq4Xi26L9r/Amn3sSV4USvl8cvsIOq7oWD4dE5E46v1mp7dbrXyrGq1RsXhGLqfKRN9GVCCZOsj5nozd0wz3pHRInndaLT5Kpt+fcGK3yJDJCjOg4qedvh5X5WPpNqfK5VvtcKb1ORecUcTPrDXR9UssuDckpRlqfKXLxOOn09Kuh34hmP397oDQkThptR3R/2Ie64IFxjXFSSNVfdn6rZB/L3yrKgl7cd6bYr7gv2f/yK5oSiiReeBMX35bcwKixmdTsX0TRZO6d/N1S+1wuPte1GUVE01f7uwUYhjgJAABMMLdm+Jf/8l/aZcM0+eM//uNr2Sh7uYHHSaMw311jnNQbmtReRBURy+95DwexPmft8z11pdRz6zHrSzY6I4I9QT1PIHFSo3gvrLVjgmFx0kjKj4f1SrO+Vo2XycRzJwj4ktVC4Z41bL7Tw6FI6oMTG5xU7ba+zP5H9cKKnlmvNI69x+MtiDjp1Ko+1cL3it/8aRoWJ43E7Pqw9wrywLjGOOnMLxBzx/61IHPqngZvvk2IUDTbs/yDQmJWCd/N17oPSHsmsRklslxyWmSyDlpMJ+IkAAAwwdyaAcEKNk6qvU7qq17vJGu/nHsUj2qqqkXjy5niFzlFcyuTuBlRQpHoPd3p2jBSnNR3Vh6zVnyWjEdVddF+KWvstrpgHJYyD9PGp1L6jqbdTGS3zb6hibmREMK55OSonH2oZ977TwAbxhM9+cY++TNLKxFlTjf69BQwy2vp7KZzH/qTevGxnt2qFB/FNC2mv6o6TzYqr9OJW5q6qEXvJnPvW3estyd+pKc3fJ07dvL6w0zJ6S4km3GtXNvM6PYb7U1+lCvvt7brTIs1P+XT92PaohZ7kDE+5nxxkll9m9Fva+qCqt1OpF6VG+1G/pKNCi37xXt0Tu+kx3pq3VvP1rLkSumrhapcW6uypscWhDKrxe/r+c/uhC6ruVPMLsciQhHzsaS7sTsZNRTWN7pPtI9rxptiec86PakVVuKyX8ZiLPEwWzZPq69kU1Rf61G7TVeKdaeRvfVxd/GXWvGpHltS1Wg8+dyod863vc3X7ANjJVfeMeTEssNIs/w8rs4oypyWWC2U93zHUl/HdeO5fYBp6lJMf16qbmX1lYIbnJ1Zt+/c3dZ2zp5n5XMxfS8q9+P9dOFTu316d3f7s6DdTma3SvaObMdJ/fZOy5esJgM/71GXvWLqgZ7Z6ok+HMN7J51zYJz9sLcFcGDYBjbFaHHSkN8q1l4pt+K8ZO/0p8Vq+4N/5rdK3zjJnkH1mSZzareDUkvfOKn2wp6yc9Wbj1V5qrZm8o0HLXAJiJMAAMAEc2uGP/7jP7Z/mCazDu/BFfrzP//zoTWY1dyt1fbPjOHbjiRa+o+dZFUymrw0rPCuVNospO9ElLlE8fDUqpXyK1ElpCVfForynHmEOGnArKTjatae7EY8/bpobBYy91QxG8t9cVZ5NxcVEXUxot3R9XuJ3Oc+oYm5V0rfFOG7Bed0tlG4I8TtfOfCN2cOsmeEfXY6r4gH53XAckeTWVQjS4nkw3hy3Z5To/ggosxo+ouCsVnMPYqFQ+H4K+faHXueC0J71jlRt94n5Xmpc/5pN6MyF4nciGfe2pucT0aFspD0LkzrbjHzY1oTQr2XKWwU86vxyKywz9DdOKmxngjbi35ZLG2Vii91bUYuzt2bteeaWEhX2m0+JE7yD5FTy0VnwtFH+eL7krGeTSzI5qqfnNY/FNK3hXIjkXldKLvnz1ajspFN3oyIkFDvpHKbtc5hZFUzSzJ70p8VSjuNM0MONyrrmfi8Er6Tzq+X6tZpacXedlW9EU0s6/HHRtO/Pnv5mAjLXfwgk18v5J7EIiFF9QYJsqovoiIUiT3JFzcK2YdaeC4s/AmaWS+/ySSWwkoorN1L5z/U++/ck3r+bliZjcrD9W0udTNsz0eZT5Wd1e5dt+/d3U6mGYnMq4kX9s4qZh+o9qqmt9016v6AHBr6DUUs6dn1YnEtFZsXYkbxMpQBe8fjrkDfjjk79sdLxN/0u+JzxLGTBiz6zIfdnmFgB8awphglThr8W8Wq5eNzSvhWKrdhGG+z+pIQ0Yw3/NOZ3yoD4iT7M5WKhIS+2d48qV+c1Mjbn52lbP+efZ/SakgkNlrH5ogHLXA57LKBOAkAAEyqaa0Z3DjJe3CFhrXnYSkdDduv2sSNWPJ5sfylXv9sZB+kvBzHp3+cJHtDqOlPzhS2w1JmJV10zqPMb73YbfCs6msxMRPvnMvJ4Vda75Infkr4oS8DkqGJvT0tzqi3YiFpHHivN+VZfSzXmpuXudjng85ZqD8LsFfbPGw0Dlr/Dp2bUMkTbEVZTFdaHWSsD/YpZSS56ZxIS3JQZGXWOWs9N04S0aybi9m+Gvqc0J67p6H+Fqvnbwlxp5Ma1F/FWnGSaTzwXy1oVV+nUi/d0bKd4Ox+T8ucHyc1XsfFbLLU2jpzO5d8nHdPs7sudvuci861ulHsdhbScVDO3tfc9ldmItG7yex6pXOHue5rmmRkY5+Bt5uiN05SIsvtDZGb7J2ZHxYTzkWIrbc5/ctCvjjJYzU+tbrJaCm3r5CfuZWMhNT0x9YSjiuZJaUrTvKt23fvbhknKSL+uhXonDTynWSz6wMi+7zMtUa8sl/byWghL0MZsnccZvG+/3gYzWhx0pBFm/4Pe6AHxpCmGClOGvhbpVm8bx/MWS95tR0W7U9f9KWTOZ/5rTIwTqrloiHfPnX0iZOcXxpi0HWIB/l4n6vzzjlogUtCnAQAACYYcVKwhrXndlq7k8qtG8XX2eRtObCsS2hp9zITv/5x0pGhzyliMZFeK5a/dHVx6jrDHCVOGjirZuGuEDcz5VpHaVVTZnS5MvLETyTe+lZXhiYi+jiff+38e5XLrurReXujkoa7MqZMbaIvnZM352zZO///WrBP6lR/nOScl3bMJEv2+jtnhuGVUnsN5bUq86myf+NrWfskU/ZZOC9OErdyvquDnGzo1pl84cheje5TVt/YSTWne050JVt4X+3qxiAXrait03JptDjJ2pZ9JWSnkrel6oF/q7rjJHsy+5RbS6TflId0n7AOqqW3ucxKPDovm1KOOuyeGJ+Nk/yHh299nDjJ13fj9LT6VHV7XVnv7WOs6wIiazsV8fdOapE3C3uetA+DTpc3n8qTiLKQ6XTjckNGf5zkW7fv3t1O76RE0ZcLNN7ExUyiKK+x6koPc7dEVy+5E3sB3hVeQ/aOq7KqKv4uaaMYLU4asmjT/2EP8sAY1hQjxUmDfqscG/qsoj42vF8oUiV3W4g7BfkxO/NbZWCcJIeCEvE3XTFRvzhJfhjF/WL/9tiXgemZOOmcgxa4JMRJAABgghEnBWtYex41/WNOm7uV0kax+L7adyDY/nGS/a6dvIyi3E5AN2LJFyW3o0HXGaZ9wroslBtnznLlyWHnj/b9ZyXv9CSf6eWepcsTv3Byy3m/q19oYu3m5Hi3T7wrpMqPIsLp3iLPkOWWuBOVUz0Xu500a9uVivxXLiyrvjhJ+M69nU1rhywueULrXFh0bpzUfW2dzDW8TMGXLzgnt10X1JyUkrOtsZOsuvE0oc05uVcorN1NFz47z5+UU7NKq6+TY7Q4yd4Ptbfp+KLbbU1EonrmnTc2UM9Q3NZh1TndFcqMGn+S9+5fNciJWduQd7ZSV529cCZO6krWzsRJ/l1cfeZdxCfjmO6ARiY7XXGS1dguZB5Ew6EhAYdsanHTn+udNu05++Ik37p9/+6WcVJrni7nhmhuSOHb3SeVzII8Vt1pHGbxXnvspIF7x1V7rilzXUs534gXuw1etNn1YQ/uwBjeFG5G89Dwb750IMPW6Jq3x/r/VjmQCU4fmtPr7cxvlUFxkrWVDNufqa2uVRh4sZv9XN/90nOx20gHLXBZiJMAAMAEI04KVlDtOShOcllfa5V3+cwDLRzyLtfqOcOUnSbc/kR+Vjk119XTx3ZmVk4PpvvFptXNXbp74uePSPqGJk4m5XU9sBdhn78JLfPZLD+O+MZRMo2HYf+VNX7yopv+cZIMWVoZUIvsbuCcH57JF5xm8cVJXde/WKXlsMw15Kx8+YJzepx465vw2NBn2kNxO07Mxk6p8CIVXxDeJtiLnu/OCEaNk1yWuVsx3mSTtyJKSE19lLuo/53drGa1PVDO7VRu215Pq/RYjdw6M6V/4Kog4iS3MdvXLUrOnnXiJLO2kU5ozgA099OFj8NOye3DoGcP1l9GB8RJ37+7ZZw0m/Qf685nKl6Qx5s/TpLHaveHQrZbK05y9dk7rqrsPHUpvZNa+iza2czOh91z8QPjnKawfzPYH+r257flc0YLdX9e7AX3/FZxEsDYq7r3y6TFGzPuzG+VQUNxV57Yv9Z6N7z/UNwvo4OG4q4+bY/n/Q0HLXBJiJMAAMAEI04K1qXGSdannH4vU+rcCs25OOW+vKaj5wzTfhgORfTOiDOS+TGltkYeGTwrS57tzyfdO2k7rOqannBvvDVinLRfiM/4zkvtU9YloT3NpRZEfL2zSnJkFqGoD4td/T1sJ01jOTIoTpJnj7I5vIc22VbuCD5yYiXyqHNplIylfHFS13YdyzBCbXWh8uUL1YymhDuDB3mXHTlxUt14ktBfd5btdJdQMzv2j04DLvtOxUeLk2pvkolHxc4punOpnX3ibf8o07dBPSzkbbyM7HJMeyJP9eXoTiE19aGzzyR7AxftDXFWSSYFot3x5PviJBm0zfgvA3TOzL2xk+q5u9HE04K8X9h5zE3dPqB9IzfJpvOPneRft+/e3TJOsnfNp/aLMr5stadvdzu95+TgXO0JnSu23AxlyN5xyM5TXS05itHipCGLNvvGSZ6LHBjDmkK+av9mmIkXnOZtsWrP5bjgbg+1gb9V3HzZH+ae1AsrieSas6jR4qTWPf6Nrl9q7hFyJk5yxmZSwndyte6+n/ZMonIm7q+BbzhogUtCnAQAACYYcVKwLjVOcmIaoa0Uq4eWZZn1rUx0RsScy0ysDzLX0F+XK+5wvHJ4Y+eOTi+Kpe1K5VPZkPdpUpTFVNk92Rs8q9Oac6na/Vx537SOm9WNlCYUzb00pn+cJGJPCoV171/e7bMz07oZnEN2P5kRYrb7Uin7XPRNIhJSwkuJ9CtnPT+WimtOfwFFaMvOubRzgt117m2W04tC3EwbX5rOmmflranuuyfebo+nePZDvXlYr7xNReeFPC9tx0mKoj7IVw5M86BSWFbFTCzv9V/w5wvO7dtCkcRauXFkNncK8tIgbyhup3+EM3/TkhcZFR6oyg03orJf8q7p85xpGeefIW/37ksNmpt6xF7Wq0rDtLemUXkZDwstsyObTvZ8mYvntiq1fh24PO7iTGd3z6iJ1bzxoVLdqZQ3cqlb9sl/O7VxTuxvZYztWsO5s9v3xEn2YlY1MaMl14zydrn4LB6xG6Y9FHd7w89l1eTKLCSyG+XKRyP3wLk2akCc9N272xmKWxFLyeLnpnnUKK/ZR1o4seHmM1272zng7eOtULUPjP1K/r5qHyduhjJk70jdIV2XvWL6YTL7oSf6cDhxUuRupvvAKMiL1EY7MHo/7H1914ExpCkk5zeDWExk1kvlT/an1civxlWhRB60Yq/Bv1Uab+3PVDj+rFQ/sqyvtdJqzP6IeSOs942T7A180Wqc13LUJ1UuujUim0//OMl+fiulzSjhaDL3rlzdrdc+l4vPdfuZzrhRttEPWuByECcBAIAJRpwUrMuNk+wTrffp2I3WMCQzkfiq4Y6ddHpUdm8b17m52EE5+yAabg9ZIm+DnSntt86Eh8zKXvp2TpeZjkNEYk8MrwNR/zjJm9Al5tXYg4w3olDbvrybUtjrFNCl+UkOXCKDCZeQAxLlP7bW5WycZJ9O7xnpO6132Kv3qNAZLmbPSLVunxdeShY2MtqML07S9PRDGQ7JV7VE9mP7bL87X7DPwtd0bdaZzj4VX8smWkNxn5rV/EMt3Nrk8JKe3/GWbX1MRVpZhnSmZSS3K5M/vjltVl4k7FNll5iPpt56t06zdnKxOflc7JV3tj7M10p+Jdaej+Jc8dReN1v9TcJNfzKfvztOsqdslJ7r0RthMSMPJ+N10unw47z0Tb5Wcvbazgoxp8YfFwqPVdEa6qt33b53dztDcceSqwlv0Pu5aPJ1tfW+nt192vyQTSw604WEtpzLdK7wGrh3JHnZXcR/7VvHTkYNiVj3Pcg8Tpx0hhO7jHZg9PmwD/EtB4ZtcFNI5qd88lbnwypHa1ot1n09gAb/VjGrr5PyJnQue3e8ae3GvnGSN51DhCNLcf1ZUUaxZwyKk2zml2L6bufTareh/swYPrQUcMWIkwAAwAQjTgrWVbTnidXcr9d3G123dnOYR6Zzd32f42Zjt1azJ+57EjV4VjbzwH6p3uw3Uvg3k9dJRVIf+i3GZZlyTfYaves/mPW1Ide8z+pZcs33e7dJpnLOSEnWYZ9X+7DMxl69b7vZr9gtUz/sfu2kmlkaLfo5y1mWXKtWwOE5sex92vvkECdOM+7WG0f9tu/YbPZ9fkRWs77XNH0rYw676mqwr/X6Qdd+di7rOzvET5dv3d1OnOT0hrN31ijHlftZ+NpvugF7p/Eq1tUf7TIMOjD6ftiH+KYDY0hTOKwje1/UBrbqkN8q9mrYm2O/8VIbrYf8HSg/rQO3B7g+xEkAAGCCEScFixqsH+ciKS1TvdbzOS9O8h5diuZGIrx0zZt5ib4WEzMi9rLVR8aq5++2RyP6Bs6AU1q6ParRQVG/obQGsQpMJ066JFY1sxTRN/pdzgYAoyFOAgAAE4w4KVjUYD2qz6ORWaGEVG+clOtzBXHS6Uk9f0dNTG3EYFaeR8OhsHo7oT+IRxeEMh/P+S6bGpVVy9+NKDNq9K6u34ups0r4pm84m4BcdpzU3Eiod/LObQEB4DsRJwEAgAlGnBQsarAeVs3Ir+WLn9rjMl2b5pdy6VPvTeSCt1/Kr1emuMtK80up+CqXfZHLb5TrnXt4faMTs/6xmF/LZl/mi1u15mWEMgfV0lb10g67ZmU9X2qPkwUA34U4CQAATDDipGBRgwEAgFEQJwEAgAlGnBQsajAAADAK4iQAADDBiJOCRQ0GAABGQZwEAAAmGHFSsKjBAADAKIiTAADABCNOChY1GAAAGAVxEgAAmGDEScGiBgMAAKMgTgIAABOMOClY1GAAAGAUxEkAAGCCEScFixoMAACMgjgJAABMMOKkYFGDAQCAURAnAQCACUacFCxqMAAAMAriJAAAMMGIk4JFDQYAAEZBnAQAACYYcVKwqMEAAMAoiJMAAMAEI04KFjUYAAAYBXESAACYYMRJwaIGAwAAoyBOAgAAE4w4KVjUYAAAYBTESQAAYIIRJwWLGgwAAIyCOAkAAEww4qRgUYMBAIBRECcBAIAJRpwULGowAAAwCuIkAAAwwYiTgkUNBgAARkGcBAAAJhhxUrCowQAAwCiIkwAAwAQjTgoWNRgAABgFcRIAAJhgxEnBctvzj/7oj+wmBQAAGMSuFoiTAADApCJOCpbbngAAAKMY0zhpAQAAYKgLljJj6xrjJAAAgBF5BcS3u8Q46WcAAIDRXKSaGU/XFScBAABcgcuKkwAAAH5kxEkAAGCKEScBAAAEjzgJAABMMeIkAACA4BEnAQCAKUacBAAAEDziJAAAMMWIkwAAAIJHnAQAAKYYcRIAAEDwiJMAAMAUI04CAAAIHnESAACYYsRJAAAAwSNOAgAAU4w4CQAAIHjESQAAYIoRJwEAAASPOAkAAEwx4iQAAIDgEScBAIApRpwEAAAQPOIkAAAwxYiTAAAAgkecBAAAphhxEgAAQPCIkwAAwBQjTgIAAAgecRIAAJhixEkAAADBI04CAABTjDgJAAAgeMRJAABgihEnAQAABI84CQAATDHiJAAAgOARJwEAgClGnAQAABA84iQAADDFiJMAAACCR5wEAACmGHESAABA8IiTAADAFCNOAgAACB5xEgAAmGLESQAAAMEjTgIAAFOMOAkAACB4xEkAAGCKEScBAAAEjzgJAABMMeIkAACA4BEnAQCAKUacBAAAEDziJAAAMMWIkwAAAIJHnAQAAKYYcRIAAEDwiJMAAMAUI04CAAAIHnESAACYYsRJAAAAwSNOAgAAU4w4CQAAIHjESQAAYIoRJwEAAASPOAkAAEwx4iQAAIDgEScBAIApRpwEAAAQPOIkAAAwxYiTAAAAgkecBAAAphhxEgAAQPCIkwAAwBQjTgIAAAgecRIAAJhixEkAAADBI04CAABTjDgJAAAgeMRJAABgihEnAQAABI84CQAATDHiJAAAgOARJwEAgClGnAQAABA84iQAADDFiJMAAACCR5wEAACmGHESAABA8IiTAADAFCNOAgAACB5xEgAAmGLESQAAAMEjTgIAAFOMOAkAACB4xEkAAGCKEScBAAAEjzgJAABMMeIkAACA4BEnAQCAKUacBAAAEDziJAAAMMWIkwAAAIJHnAQAAKYYcRIAAEDwiJMAAMAUI04CAAAIHnESAACYYsRJAAAAwSNOAgAAU4w4CQAAIHjESQAAYIoRJwEAAASPOAkAAEwx4iQAAIDgEScBAIApRpwEAAAQPOIkAAAwxYiTAAAAgkecBAAAphhxEgAAQPCIkwAAwBQjTgIAAAgecRIAAJhixEkAAADBI04CAABTjDgJAAAgeMRJAABgihEnAQAABI84CQAATDHiJAAAgOARJwEAgClGnAQAABA84iQAADDFiJMAAACCR5wEAACmGHESAABA8IiTAADAFCNOAgAACB5xEgAAmGLESQAAAMEjTgIAAFOMOAkAACB4xEkAAGCKEScBAAAEjzgJAABMMeIkAACA4BEnAQCAKUacBAAAEDziJAAAMMWIkwAAAIJHnAQAAKYYcRIAAEDwiJMAAMAUI04CAAAIHnESAACYYsRJAAAAwSNOAgAAU4w4CQAAIHjESQAAYIoRJwEAAASPOAkAAEwx4iQAAIDgEScBAIApRpwEAAAQPOIkAAAwxYiTAAAAgkecBAAAphhxEgAAQPCIkwAAwBQjTgIAAAgecRIAAJhixEkAAADBI04CAABTjDgJAAAgeMRJAABgihEnAQAABI84CQAATDHiJAAAgOARJwEAgClGnAQAABA84iQAADDFiJMAAACCR5wEAACmGHESAABA8IiTAADAFCNOAgAACB5xEgAAmGLESQAAAMEjTgIAAFOMOAkAACB4xEkAAGCKEScBAAAEjzgJAABMMeIkAACA4BEnAQCAKUacBAAAEDziJAAAMMWIkwAAAIJHnAQAAKYYcRIAAEDwiJMAAMAUI04CAAAIHnESAACYYsRJAAAAwSNOAgAAU4w4CQAAIHjESQAAYIoRJwEAAASPOAkAAEwx4iQAAIDgEScBAIApRpwEAAAQPOIkAAAwxYiTAAAAgkecBAAAphhxEgAAQPCIkwAAwBQjTgIAAAgecRIAAJhixEkAAADBI04CAABTjDgJAAAgeMRJAABgihEnAQAABI84CQAATDHiJAAAgOARJwEAgClGnAQAABA84iQAADDFiJMAAACCR5wEAACmGHESAABA8IiTAADAFCNOAgAACB5xEgAAmGLESQAAAMH4sz/7s3/R8tcc3oN/8S/sl7yJAAAAJh9xEgAAQDD+x//4H3/lr/wV5Qz7SfslbyIAAIDJR5wEAAAQGFVV/9pf+2t/5mM//Ft/6295LwMAAEwF4iQAAIDAPHv2TFGUP/mTP3Ef2j/YD+0n3YcAAADTgTgJAAAgMCcnJ4qi3Llzx31o/2A//O///b+7DwEAAKYDcRIAAECQ3Ovd3J/tH+yH7s8AAABTgzgJAAAgSP/0n/5TRVFKDq50AwAAU4k4CQAAIEjt693cK93sh94LAAAA04I4CQAAIGDu9W5c6QYAAKYVcRIAAEDA3OvdbPYP3lMAAABThDgJAAAgYP/tv/03N07iSjcAADCViJMAAACCt+DwHgAAAEwX4iQAuKiffvrJPW8EAAAY7re//a1XQADAJCNOAoCLsutCuzr8GQAAYCjiJABTgzgJAC7KrgspDQEAwLmoGQBMDeIkALgoSkMAADAKagYAU4M4CQAuitIQAACMgpoBwNQgTgKAi6I0BAAAo6BmADA1iJMA4KIoDQEAwCioGQBMDeIkALios6Xhq4Jx7j9vUgAA8MM4WzMAwIQiTgKAizpbGr4qGLX/tDfkH3ESAAA/oLM1AwBMKOIkALios6WhGyeZpvl/tfh//sv/VCdOAgDgB3S2ZgCACUWcBAAXdbY0dOMkLz06g95JAAD8mM7WDAAwoYiTAOCizpaGrwrGv//L//x/SP/n2f9++ctd4iQAAH5AZ2sGAJhQxEkAcFFnS8NXBaP6F7X/aYB/+xc14iTgx2F9rddq9caR5T0G8AM7WzMAwIQiTgKAizpbGr4qGL/8+Zc/+IN7ff/9svPviZOA67eXjwmRfH9+ymMdVIpbde/Bt7Fqa/FISLGFV8rkSQDO1gwAMKGIkwDgos6Whq8Kxvan6u7uf9n9z/+l81/333/+L9uVKnEScP2+ljLLyfyO92igk1p2SURWK97Db2KVU3NK5H6+ultvfCVNAkCcBGB6ECcBwEWdLQ1fFYzy//5vvnypef/+Q+sH5+fy//ZviJOAS2PWPxbSD1LFA+9xl+NG5W0muZyvnXhPnO+kmtW+N04yDV2I+Jum9zBg9cKKnlmvNI69x12+Gun76fxW3Rx9SwFcvrM1AwBMKOIkALios6Xhq4Lxv/7pn+38+b/78z//i7P//V/+9M+Ik4DgmfXy63RCCyuhsHYvVzG9p13WfqXwTI/OKcqMGn9akgHPYSnzUHd7J1nbOX2lUN0tZR/GtEVVu61n3tbkDE5qhZW4NqOIxVjiYbbsztOsFZ8l41FVXYzGl7PGbqvbkZxh2vhUSt/RtJuJ7Ov/p34vGgkpkWhCf5gpfbXn1qy8yeh3ovYiVC0aX8mW9n1dlo6qzmw1d7alvdZLJ83qelq/bT+vRe+mch8arRea5edxdUZR5rTEaqG8173Bx9X8fS0cstc8nnpVqh15TwO4XmdrBgCYUMRJAHBRZ0vDVwXj/da/HvKPOAkIkLlbyj+RwYqYj+rPCmV/RnNqNT4WMk6wEtYS6delejtY8Y2dZG4kxIyqLqjx1VxhPZ+5p4pQJPnePD1tVNYz8XklfCedXy/V7WmPq9mbQtyIp18Xjc2CnHI2lvviLHE3FxURdTGi3dH1e4nc+3JhLRkNKdqyPc9SzTQrq5qYiSZfFo33RvFVOjavKEvZqtt7yKykl4RYTGTWDeNdPnUzrMzrxqH9QrP82H6XmnhWMDaN/Go8IiKJdd9ATma9/CaTWHJDtHT+Q92fKslRn54no/NChmiPcqUv3ZETgCt3tmYAgAlFnAQAF3W2NHxVMM79500K4EKaxooqQkK9ncy9qzb9OZLNLKeXwoqIRB9mitvtTj0tPXGSIuLrDfeV0+Ny6oYSeVyWP3df7FZfi4mZeH7PfWS/Ws/fFuJuQXZ3knGSEn5odDIb00gIe7bOxW7H9spE4mudJKj5Ni5ELO9clFd/Zc821pntYTExG46/aZzuZLRQWN9oXy5nVZ9pYj5Z6s2FrManYnY5FrE3Q0vJnlB+VrO6mUvdcRrqQbG1kQCuwdmaAQAmFHESAFwUpSFwfRqFuzIwiq3kjJ3eNOn0yEjOK8pcVH9WrBz0vtgbJ4lYft99wVbP3xJiuSRf64qTmoW7QtzMlGsdpVVNmdFlhiTjJJF460t6/HGSj2U26jvl4mN78lhORkjN4j0h7hS6gh6n11LtRVQR8dyOtyxpIxkJRVLbzjQ+rY5I9vYmirJbU5fmZyP3yAmbbue/7x51AAJBzQBgahAnAcBFURoC1+nErG/l03dl15vITT37tnto6mN5tZp3Ldj9TOGj71qw3jgpUex06mnIPkdn4yR5lzd51/9ebhQl46RwcktO6OmOk6yakXkQU+eEfMusGouqiojmdu1X6rmbQjw0ziRep+XHEWcBPYT+rr0dVmO7kHkQ9a7me1PuvtqtWd3IJm9FZL+kO6nc+xojcwPXi5oBwNQgTgKAi6I0BMaBuVvOP0los87Q1E+NWtf9ztzMxR1BKZ5er8rI5TviJDf3uV9sWt3cjMaNkz44P7v8cdKhoc8r4Vup/PtKbd+052y904UXJzXyd4S4V/QHQebXpj1RZVVV5lPlY285Ld4ktY3W0OP3011Jmc2ql57p3qhJj/MlZ2BxANeOmgHA1CBOAoCLojQExoh7f7elhO/KtQ5rv1J8pkdvZ2sno8dJteySiDxx4yRLdhfqGrrIqq7piZWCnOHQOMna1EVIy3x2X5CqzzQl5MZJ7djIecF2Us1ocqFf3+lh+12fvADJZn7IJB6kDXmJXD13N5p4Wii37wHn97Woa9zTDRg71AwApgZxEgBcFKUhMGHczkQjxkmn9dwtIW5ljO2aHM27lovNKJH7ufK+aR03qxspTSjaakVOObx30qeMGhKx55WmvXSrWX2bis4oSkjLugHTbj4+K7TlQvXQso7qpaexsIhmv1inx5XMkhBasrDTMC2z8SmvLyjiZrbmJkjuhgCYHNQMAKYGcRIAXBSlITCRRo2TTutvEhEhox+3b1FzO6dr4dYoRpHYE6PuTjc8Tjptlp/JwbAVIZyRjNLFj/n4TGdkJXu2Cc0ZVsmeZD6Wft8amHu/lLmrei8oQr2bKTk3gwMwiagZAEwN4iQAuChKQ2D6HZvNIzc08pgH9fpuvdk1QtMIzIb9rsbXrln5WOZ+vb7XPDtgtnU0/I0AJgM1A4CpQZwEABdFaQgAAEZBzQBgahAnAcBFURoCAIBRUDMAmBrESQBwUZSGAABgFNQMAKYGcRIAXBSlIQAAGAU1A4CpQZwEABdFaQgAAEZBzQBgahAnAcBFURoCAIBRUDMAmBrESQBwUZSGwKU7cf5dpSGLu+I1uQi33c7+A3BNqBkATA3iJAC4KEpD4BJtpyMhxUeEb0QTq8Wa6b0evJNSckYuSXta9Z5pO6lll+Q6xF43vGfG1kEhLuRW9CPi601vMgBXi5oBwNQgTgKAi6I0BC6RjJNEbLVQfFu0/xXe5HNP4qpQwveLl5XouHFSSFG0TLWnI8/nrCazrUmIk47r5Q3ZYrLRXupqSNGWc+5D+195z/ImA3C1qBkATA3iJAC4KEpD4BLJOCmc/OA9ctVeRBURy+95DwPmxEnqnbgqtMyO95yr+kwT0agmxjdOsr5WjZfJxPOK99i1m4sKEX/Tvc4fM4lHOeML3ZSAK0XNAGBqECcBwEVRGgKXqF+cZG4khIjmdr2Hp0fV4rNk/JamLqhaNK4/K9aOvVes/XLuUTyqqfKF5Uzxi+8aObMm3xVV1UX7payx2+qw48RJ2rNCRhOq/3q3k2pGCyfWcnF/nDRw0fXiYz3zvlp+mYwtyZeSz416e622c/pKofK5mL4X1Ra12P104ZMv1jlpVtfT+m1NXdSid1O5Dw1vzU7kPLNbleKjmKbF9FdVXxcjq7lTzC7HIkIR87HkRt172tU3TtotJG/KySO3k7l31SbdlYArQc0AYGoQJwHARVEaApfoTJxk7pXSN0X4bsGLTKxa9qYQi4nsulHaLOafJlShRB6XZTxiVTKaiNxJF96VSpuF9J2IMpcoHjrvOq7Kd92Ip18Xjc1C5p4qZmO5L06m4sZJz6uyL9Ki73q3nYw6pxu1QqIdJw1Z9Ek1syjC85HIrVT+fbn0Jh2bU8L3CnVnbk4cFonMq4kXxdJWMftAFUJLb7tRV7P8WBMzauJZwdg08qvxiIgk1p1tdeYZWVQjS4nkw3hy3V2HRmUjK4OhkFDvpHKbtT7BUN84SbKaO0ZuJabOKOJGLPmiWD0kVQIuFzUDgKlBnAQAF0VpCFwidyhu0eIMyy0WksaB9/rp51xsIZr51M5BrNJyWFnK1k5OT79kNaGmP3kvnB6WMivpYk3+WF+LiZl453K5k3r+thB3C7KPkBcn1Szn7a3r3azKqhp+aJhfi504aciiZfSjKIupcqs7lPkxpYYiqY9yYhknKSLe7uJ00sjfEeJ2Xj7eyWihsL7R7qxkyVRrPlmy5+PNM11p9XKyVyA6pyhzWmK1UN4dPDj5wDip5ahWepVOaGFFROKvnAYCcDmoGQBMDeIkALgoSkPgEjlDcUcf5/OvnX+vctlVPTqvCC1puP2MfMzDevWjkbkTVtxeRUeGPqeIxUR6rVj+4u+10yzcFeJmplzrKK1qyoxuyNTGi5Oc+7i1rnezKumFcPK9eeqPk3x6F+30JOq+Vq6SmhfaM/mM0zspUfzqviA13sTFTKJ45A4LFc/teGslbSQjoUhq24uTwiulzoZsp+Wo5Foi/aZcH5wmnR8nnZi1rXz6ripC3hoCuCTUDACmBnESAFwUpSFwifqNnWTt5mIzSuRJxQlWrMZWNnlbizh39xcL0eii8DKd01NzJ5+8rXp9muT1XCU5EJF3v/8zRCy/b7/aipPkmN/e9W7Wdlp1uwh1xUmDF+3ESV2pk7PQ8ErZ/lHGSfOpsrOGLmtTt+ea3zstP444q9JD6O/MPhGV/cbDavF5MjovlBk1/iRfqvVLlYbESV9rxloqviDHUIqtZI3PjKEEXC5qBgBTgzgJAC6K0hC4RP3iJDeaEXcKjVP3IjKhLeeM7Wr9qwxDZCLTipNc1tda5V0+80AL21PKnKieuynE/WLT6ua+xRcnndayUXm9m1l5rEbcbkG+OGnYop3oJ7rmGxL7pJJeUNRVec81GSfNJn29jE6b63Eh4oWvp5VVVZlPlY+9NWpxJuoXJ3msZrU9gtLtVG67+35tfeOkg3JuxRm6+0Ys+dKoOusP4LJRMwCYGsRJAHBRlIbAJeobJ+0X4jPeZV+VJxFlLuUMf+1q5G8JZSFdOTm1PuX0e5nSkfeCTJFuyRTJPLVk7uP2NvJY1TU9sVJwhj3yxUknTp70JJtaiKQ+OMvwxUlDFu1emCbuFTu5jpxTWN+Ui5RxUkj1DbpkGg/DIioHXTLf6eGQ5nvp1PyQSTxIG3tD4ySPHFo7uxzTnsg+UB1946StlHY7mdusNt0QDcCVoGYAMDWIkwDgoigNgUvkjJ0Ue1IorHv/8i+ci7NmvBux1deiIqSlt5y76R/VjKexcEiRKc+JmzoJbUXesMyyzPpWJjojYm6PoZpzudz9XHnftI6b1Y2UJhRt1bl6zh8n2RO+jMohwG+0YiNfnDRs0U6cpIQi8Rfl+pHZ/FJM2bNZyrj39neG4lbEUrL4uWkeNcpriUgonNhw4p7jSmZJCC1Z2GmYltn4lNcXFHEzW7PfeH6c1NKTEPWNk0iRgOtAzQBgahAnAcBFURoCl0jGSd4AQi4xr8YeZAqfWz2LzGrunirkC84AQI8K5XU9LKK5Xfli4306dkO+KM1E4quGk/1Ize2croW9l+w3PjHq7kvdcZLMYkLtcZq6x04asmgn+oncT6ei7iKEejdT2nfm4MZJIpZcTThvVpS5aPJ1tdNTar+Uueu94r3RvY3d6HFSjyFjJwG4WtQMAKYGcRIAXBSlIXDtrMN6fbfRbN9B3+/Eau47r7aCJD/zwH6p3v+No+m/aC/6qcgL0PbrjcOuZTtxknNnN7NR32uY/VbMOmrYK9ZgSCNgulAzAJgaxEkAcFGUhgB6deKkPjpxEoAfDDUDgKlBnAQAF0VpCKAXcRKAfqgZAEwN4iQAuChKQwBnmPXtUrnWGRCpy0G1tFVtj+IE4MdBzQBgahAnAcBFURoCAIBRUDMAmBrESQBwUZSGAABgFNQMAKYGcRIAXBSlIQAAGAU1A4CpQZwEABdFaQgAAEZBzQBgahAnAcBFURoCAIBRUDMAmBrESQBwUZSGAABgFNQMAKYGcRIAXBSlIQAAGAU1A4CpQZwEABf1B3/wB3/9r//1vwEAADDUX/2rf/UP//APvQICACYZcRIAXNRvf/vbhYWFfwYAADCUXTDQOwnAdCBOAoCLcvqtUxoCAIBzUDMAmBrESQBwUZSGAABgFNQMAKYGcRIAXBSlIQAAGAU1A4CpQZwEABdFaQgAAEZBzQBgahAnAcBFURoCAIBRUDMAmBrESQBwUZSGAABgFNQMAKYGcRIAXBSlIQAAGAU1A4CpQZwEABdFaQgAAEZBzQBgahAnAcBFURoCAIBRUDMAmBrESQBwUZSGAABgFNQMAKYGcRIAXNT0lIZWs15rWO7PJwP+jQ1zv1Y/8n4GAGAiTE/NAOCHR5wEABcVTGm4l48JkXzvhTmXz6xtGhXTe+CwKk+j2tOKdVCIC2UAEV9vepNfmHVQKW7V3Z/NjYQQ8cKh9+jMuvVhbiW127nadzTYyE3tX0MAAC4umJoBAMYAcRIAXFQwpeHXUmY5md/xHl02a1P3xTeS9TkbvaEbX09Pj+vljWLxrfxXeKmrIUVbzrkP7X/lvYACr5NadklEVivuI+tTLrmcLTu9jc6u2wCN/J1I/PW3xz0jNnX3GgIAcHHB1AwAMAaIkwDgoiaxNDTf9UQ2jeK9sPa06j1q281F7eneNLyHATqpZrX+Yc2ZdRvI3EpGbiRL5/Vj+k6D1xAAgO8ziTUDAPRFnAQAFxVMaXhYyjzU3S4z1nZOXylUd0vZhzFtUdVu65m3tXZmYu2Xc4/iUU1VtWh8OVP80klTrL1SbsV5aSmmPy1W20MLyZmnjU+l9B1Nu5n4v/38PyduRpRQJHpPT711evd8yUaFlv3iTOw3WpzU+JhP3XNW9VYi/brSbA2xNHBDTmqFlbg2o4jFWOJhtmw6U9o/HJ02tzK+dds2VnX9Zdd1b7X1pP7E8FbIKqduiPh6v9U7qeaXdX2t0qcz1ShNfWYNAQC4uGBqBgAYA8RJAHBR55SGR41ard7oySPOhhy+AX3kQEIzqrqgxldzhfV85p4qQpHke2cWViWjiciddOFdqbRZSN+JKHOJotORx6rl43NK+FYqt2EYb7P6khDRjJfEyFQooi5GtDu6fi/xz/5fpfxKVAlpyZeF4ic5FlLtuSYW0pWzI22PECc1NvRIKKwtZwvvjOJaKjon1JWSO8DS4A1pVNYz8XklfCedXy/Vrc7YSVata91qLzRlVjfauZhVSS8I7Vm7F5VVWg6LO4U+63dSTs4p4qHRJ04aqal71xAAgIs7p2YAgMlBnAQAFzW4NLRqrxKqO6x1KKzdS+c3q/W9WmU9lXh+5hKqnoxDDnrdCkmOy6kbSuRxWf78JasJNf3Jed52WMqspIs1+6dm8X5YRLPVdvBxWNTnRPSl0/lIpkJK+KHRDrW6LyhrFO4Icb/zase5cZJZSs4r6uNO9x3zQ0qVa3jehnRfStaOk+TP/nXby9nNknjrjf9tfUxFRDQnt9fTeBUTs7px7D0cyYhNzcVuAICgDa4ZAGDCECcBwEUNLg0bhXtR/Vm++K6Ye5LQ5pxcyRYKx9+cGUC6J+MQsfy++4Ktnr8lxHJJvnZk6HOKWEyk14rlL812dnR6bOizivrYqHVUcreF13PHSYUSbzt5UVdkc1JJLyhq39zk3DhpOx0JhfV1b5HS53xiVtGey8hn2IaMGCfZbXhXiLsFJ08ySysRcTvvXxvrfVKIaG7XeziSEZuaOAkAELTBNQMATBjiJAC4qMGlodX82gl8To8b1Q9GccMod8ZB8unNOBLFr+4Ltkb+divjsF/dySdvqyIkgylxI5Z8UWrYLxzYb3eyqh5atnbipkLh5Jbzfkd3nFROtQKgXufFSXI+3pK6hJ0OPsM2ZNQ46bS5kQiLuEx8ZJQm4uteTyXPx1Q4pGU+e49GMmJTEycBAII2uGYAgAlDnAQAFxVMaThynOSyvtYq7/KZB1o4JGQS9LVovyf2qm51Oz1xpnbjpA/Oz47uOKmSnlfUs7d1s50XJ1lbSRHSMjve4lrsecpXA4mT5PV0c3LTmu/08Kx/bpK9AuFQNNsvChuIOAkAcE2CqRkAYAwQJwHARQVTGo6WcVifcvq9TKk9NPVpPXdLiPtF86SWXVLEvWKn685JvbCSSLq3NhseJ7kz6Y6rPOfFSaf7crVja75r9w6N9H09syVXZGhYY6+wiDwZIU46tcqPI+JONvcgHF4u9fTsaq7H5SI6DTKCUeOkrjUEAODigqkZAGAMECcBwEUFUxqOmHHsF+IzQlspVg8tyzLrW5nojJfmNN4mwqFw/FmpfmRZX2ul1Vg4FEluOvnSmTjJ+pAMh1T9dbmya9qPKk8iYsm5LK7HuXGSHM9IVWaiqY1a89gy98rZuxFlNl5wRiMatiFuhnUrY2zXGr47u9m618155lNaFULMRFIfnLd2WJXHERHtt+YntfyK7qVpPUbtCNa1hgAAXFwwNQMAjAHiJAC4qGBKw1EzjtPG+3TsRmvAoplIfNVohR1m9XUy2h7wey6afNMapelMnHR6VE5Hw/ZU7g3dnDum+Uekbjk/Tjo9Pa4XH8cirTUKa3ruk9dHaviG1N8k5LuckY/8cVLPuklO3ytlId0bDjkdiPqP+nRSSs4q4kG/29WN3NT+NQQA4OKCqRkAYAwQJwHARV1DaXhiNffr9d2G79ZuLSdmc69e32uYZzvsnGEemaY7h5NqZknEXg2NjYY7bjZ26/UDb36jOjabR/3f0Vk3mxsbPTszutPnjDbjjNJ9eQavIQAA3+oaagYAuBzESQBwUdNRGsobqC1lqmOZnDQ3k+pMLL/nPWwxy49U9XG5T/8jAADG0nTUDABgI04CgIuaktLwpJ6/oyY2um/Df92sDyl1LiwUoa1WemOjvXxsQS92RuwGAGDcTUnNAADESQBwcdNTGu6X8uuV8cqTjqrFtVz+XbV55tq9xod8YXu8VhYAgOGmp2YA8MMjTgKAi6I0BAAAo6BmADA1iJMA4KIoDQEAwCioGQBMDeIkALgoSkMAADAKagYAU4M4CQAuajpLwxPn36WzmrV60387uROruV+v7dabJrfnH4m5X6sfeT8DAMbcdNYMAH5IxEkAcFGXVBpWViNCy1bPy3Sa63EhEsYId8tv7hSNL97Pw2ynIyHFR4RvRBOrxdooN+SvZaMhkXjbf4Tss1vUfJ/Ubufq7jMnjfILPTonvMWGwuqdVOHLKEs9Yy8fEyL5/rxA6qSSXhDas6r8ecS3DHJSzSwK9WnFe9ht9H3kV34UFtFcrd8BYL1PChHL78ufzS3ZhrXvWPGRN9k6qBS36t4DAMAFXFLNAABXjzgJAC7qkkrDgOOkg4I93UhxiYyTRGy1UHxbtP8V3uRzT+KqUML3iw1visG+KU4yy6lFNb3trpJVfRYVQk08K5Z3arUv1fK7nL4klLl4wQlNvs3XUmY5md/xHg3kj5NGfMsglxAn1d4kk0+Nvm3uj5NOTxv5O5H462+Pe0ZtpVp2SURW+28aAOCbXFLNAABXjzgJAC7qkkrDgOOk/ZF738g4KZz84D1y1V5EFRHL73kPB/qWOKm+FhO3cl4KclJOzSuRx+Wu9dsvxGcU1Y17LoM/TrqgS4iThuiOk2QHpciNZCm4+Xc5qWY14iQACMYl1QwAcPWIkwDgogIrDY/rxvNkPKqp0XjqVdl43BW+WHul3Ip8UV2K6U+L1dZwOT1RRf/J9o30PS0cUiK3EvrTkhv2DJph3zjJ3EgIEc3t2j82jFVdf1nxZxe19aT+xOlH0xMnDdkiS0Y58detzjdWKTmrRB51x0mnzepGobjd6aDT+JhP3Ytpi6p2K5F+XWm2Gqf6Kqmvlauv9aimxVaK9YNS5qHe7ndj7Rq5R4nYkqouqNptPb1e9VbeHycdtt5yVM4+1PUH3f8e5qrumh1Vi8+S8VuanFU0rj8r1o6d59046YlRfpmM2wuKxpMvSnX3pRH30Rm110l9td07yay+zei3NU2LJp4UKuu6P046tcqpGyK+3q8n00k1v6zra5U+OWJ7k+0ZbOf0lUJ1t5R96DTvbT3z1rm68aRWWIlrM4pYjCUeZsv+vQ4A+HaB1QwAcN2IkwDgos4pDY8atVq90XMefvbk/qSevxtW5qLJtWJxPZeMhsWMUFrhi1XLx+eU8K1UbsMw3mb1JSGiGTfR8UcVAyc7qhovdDUkoo/yhU0ZEwyZ4dk4ydwrpW+K8N2C25Oo9kJTZnWjHYI4wZAXyvjjpOFb9DEV8fIpl1l+pCqhcHQlW/xQ620uR2NDt1dMW84W3hnFtVR0TqgrXjRWWhHKgqreiCaW9fhjo+kfFWi/YG9p5G4mv2GU3hWyDzURCuvv3DX0rXn7Lcc1Yy2Xe+n8s394mlBDSvhOXg7wZNWyN4VYTGTXjdJmMW+/JFo9qmScpNgbGL6ZzL01ii+T0Vkl0ro8cKR9dIZv7CSr+jwqQpH4k3xxo5C5r4XtlvTHSadWaTks7hT65Ekn5eScIh4afeIkXyvJuHBGxm3x1VxhPZ+5p9qLS763V6tRWc/E5+0WSOfXS/U+cwEAfINzagYAmBzESQBwUYNLQ6v2SiYO7sDS2r10frNa36tV1lOJ572XDlkfUpGQmvrYyhWOyqkFpRW+NIv3wyKa9TrI2A6L+pyIvpTxji+qGDZZ98VuQ6d0h+IWLc6w3GIhaRw4U9r2cvas2l2QvGCo5jzwxUlDt0hmUmIu1dUZyaobq3F1xmsu9WYi9bJY/eq9eGqWkvOK+rjTP8b8kFKFmv4kZyHjpFA0+6U1O19QUn+TULVU50IwGSHJDKj185k4yc+q5e6Ehf12dzU+52IL0YyzRIcMcZSlrEx8nDhJWUy11898n7Q33x0ZatR91K0TJ30tJmZF9Hn7TXIm3XHSaeNVTMzqRqs/1Eh64iTF17/puJy60W4lLnYDgMAMrhkAYMIQJwHARQ0uDRuFe1H9Wb74rph7ktDmnKDEFgrH3/TGB9WnqjKfKjtRi6vypHVp2LGhzyrqY6PWUcndFm5vlE5UMXSyrjhp+JTOUNzRx/n8a+ffq1x2VY/OK0JLGofy3XK77gpxt+DkSWZpJSJu570cwhcnDdsiGcQIcbN1Tzc/s1F9X8g90eNaWAZxc7HsjpPQOH2m9HVvdaXP+cSsoj2XOZaMkxYzblAl9c2GTqzmfq2ymUvcUMRKyXlmaJx00jCWVTEXz+92z8dhHtarH43MnbC3XG/sJGdWLqucmhPu6o26j7q14yRrKxkOaVnfXfmsTT3cHSc5oyn5e3uNoCdO6pphPX9LiOWSfI04CQCCM7hmAIAJQ5wEABc1uDS0ml99ScRxo/rBKG4Y5X633JeBiNvPpUWOVO2GLwf2ab8bRHXT5PSdqGLoZF1x0vAp+42dZO3mYjNK5Ik3BE9zIxEWcZk+HBn6nIivez2V/HHSsC06NYv3RSeEGqC5k08sKEpUzsR8p/dd5bDTg8ZeVmdUb5s/GzppVl6l4ksR2c0qJCJLUW1ulDjJrMg7zWnpdu8qyWpsZZO3tYjThUosRKOLrRjLiZNir3wbdFLLasJdvVH3Ubd2nNR8mxAiXmj3DrPtZNSZrjjp9GMqHNIyn71HI+mNkxLFdl+w00b+NnESAARvcM0AABOGOAkALiqQ0rDyJKIsZCq+TEFeDuaGL1+LsuvIq7rV7dSZuBNVDJ2sK04aPmW/OMm5W7zS6URjlpJzcg7Nd3p41hdD+OKkYVt0ahkPuwKg5ltdnU90JSYO545yur111lZShLTMjreqLfaKyckGx0nOqENCTbwolj/Xm3YruRtyTpxk1dcTkVAksd7Vicz8mFJDQlvOGdvVuhMUlh9H/HFS9KV7yZ/DnvkNr7/SqPuoW6d30qbe2/PI3kc9vZNkD6Zo1rf88xEnAcCVC6RmAIBxQJwEABcVSGnYlOfzUW8EIkleUOaNNOQmIPeKrS5A9jP1wkoi6dyuqxNVDJ3s9CBvT6e7ccnwKfvGSc49+8MrTr4gWeXHEXEnm3sQDi/77lDvi5OGbZFzKZxYSHfCps8ZLSSizzpjCjlMYzmiuJM5cVhszZfvHBrp+3pmSy5rYJxkb2lUEfeLnTX8WkzMKK2gpH+c1PyQ0uxVf9o7QLYMyLrGe2rkbwlv9dyhuP1N+kV2TnJGsx55H3XrjJ3krJv/xm1OytYVJ7mLKA64SVx/o8ZJ9jqLyBPiJAAIQCA1AwCMA+IkALioYErD40paZhip4pemeVQvPY/L8bBb4UvjbSIcCseflepHlvW1VlqNhUOR5KaT2rSjiqGTnR4VE0LRHhXLOw1r+JQyThKxJ4XCuvcv/yIVXxDKTCzXHuv69NT6lFaFEDOR1AdfEuKLk4ZvkSlH//FfwNUsrcg7u2kPMoXNcmWnWtkqZpejciW9caZMOcFMNLVRax5b5l45ezeizMYLTqQyuHdSs3hPKAt6cU+upP2u3L2IoijigdNg/eIkq5aLzSrhWxnjU6XS+Vetm6f1tagIaekt2YCnRzXjqd1oigyYWnGSEook1ioN02x+LqbkLdu8IbdH3UfdOnGSbJyIMhfLbNWbZrP2Lh2dtbfBHydZlccRe3Fnr5g7PanlV/S+cdWocdJpPXfLbt6MsV1zthwA8P2CqRkAYAwQJwHARQVVGlp7Rvp2xB1aJ3wznXscbV0aZjOrr5PR9mDec9HkG28EJn9UMWSy09OGseLcZc7rXzN4ShkneU+7xLwae5ApfG7NyeV0tJF9c/wRgz9OGr5FR4Y+G9bf+eZ50ii/1KPznbGFwlo8/dY30NRxvfg45s1OvqrnPnkLGjJ2krVbSGryPcL+z1xUXysbT1Sx6Kx2vzhJtqe7AL9QJLUt2yx3z2lDe14iEntUKK/rMvLZdeMkEX2SS90MO28QkTuZUissG3kfdfHFSfa21wqPojK9krsjnnmRVP1xktOByB32u9dJKTnbis96jBonybvjyWb/1rGZAABnBFUzAMC1I04CgIsKtjQ0D+v1/aY/ouk4MZt79fpewzzbCcVv8GSWaZr+e8mPOMO+3AjDzWKGGrBFVvlRJHzfd9mXxzIP6vVavXHYN2M5PT1uNnbr9QOzfxP1ZzX37c1sfs9mnmHZm7PbaA68Jb+zrEEr3/ZdLW+Zjf5v+ZzRZpyR0S/Psdk8+pYmBwD0E2zNAADXiDgJAC7qxywNm5tJeXOxPe/h99jLx2YvNgdIZvmRqj4un5dgAQCu349ZMwCYSsRJAHBRP1ppaH1IqXNhoQhttXew6m9kVZ9F1UfkIBezl48t6MVD7xEAYJz9aDUDgClGnAQAF/XDlYZH1eJaLv+u2rz4tWNWzVgr1gZeOIbzNT7kC9t9RvIGAIyhH65mADC9iJMA4KIoDQEAwCioGQBMDeIkALgoSkMAADAKagYAU4M4CQAu6ocpDa1mre7doe1kwL8JNblrfpZ/d/j/TbcJ2sCjem2f4cKAH9cPUzMAmH7ESQBwUeNVGp7UclERflz2Hg5j1jaN0QfTbr5PardzdauWXVIGEculwG4mf1wvbZS9MYH28jEhku+9eTd3isYX98dvtGu3jYi/aXgPJau8ErbXXH1a9Z5wVJ6qymzSmKyz/oNCXLj74SwRX7+e8ZUqqxGhZasjxD0j7dYp2IMHxcRiorjvPfoGJ9XMooisVryHw3zbRxvAVRqvmgEALoA4CQAuarxKw5HjJGtTt0/MCyPeEcwspxbV9LYlz1TfF4tvnX/rmficIm6mCu5D+9+2/zz/QipPIiKaq7kxxNdSZjmZ33F+lqFJJ1r6NvKEXAn7M6+TSnpBhOfDIpr1liXVczeFuFecsAGuj+vlDW9HFF7qakjRlnPefnlbLO8FFvR9k1HjpBF361TswdrzaOSB8e3rVi8+Sabe1r1Hg33bRxvA1RqvmgEALoA4CQAuarxKw5HjJPPdN5xz1tdi4lau90TWObcXD43LCCrKj8OdOMlvv6un0jeyyo8iykKm0p7tl6w2E8u+SkZELN/uMPK1mJgRsVeBRWOXyqyV8o8T6ffdfVH69OI5Pf2YSTzKGV+uNGMZNU4adbdOxR48LCZmtczOZXxupG/6aAO4YuNVMwDABRAnAcBFBVMaHhiZh8mC72Kf+npKf1J0T4hrr5P6Wrm2mdFvaaoWjT/Klfc756LWfjn3KB61X7mdzG6Vsv446ahafJaM2+9akO/Tn3l35W9uZRI3I0ooEr2ne/0dTprV9bR+W1MXtejdVO5Dw7cA2QEk/vrMyfmIcZJZk+sQVdXFaHw5a+y2Jj8sZR6mjS+14lM9tqSq0XjyuVGXq2dV1vTYglBmtfh9Pf/ZnVKXvZP2jfQ9LRxSIrcS+tPS/2430Uq+6lu89SmXfJgpf/UenuWcacfye97D+lpUaJnqkaHPivhbL2exPqTCQsvW7A2sFx/r2a1K8VFM02L6K2dRA5pUdh55rGfeV8svk/bm2C+1NkcavgcHNn7fFXCdmLX3udQdVShKeEnPf/HNzdY3TtotJG9GhCIit5O5d1VvGKy+7OU+0tMbvvxwJ68/zJSchrW2c/pKofK5mL4X1Ra12P104ZMvojquG8/t3a3ZOzT1qmw89sVJJ83Km4x+x36XKhthJVtyG6F7t7rzanzMp+7F7Cm1W4n060qzlR9dfA9au0buUUIecvYevK2n16utKO4Ce3DQQd5/D5rGg3B4udTvcjSz8kK3m7dPkOqsXmrd2SkDPzv9PtoAxkkwNQMAjAHiJAC4qHNKw6NGrVZv9Jw4+s5DPfL8P5z66D2y+bt1lB+FlblI5EY887ZU2swno0JZSBpuaHJo6DcUsaRn14vFtVRsXogZxYuTrFr2phCLiey6Udos5p8mVKFEHpflGXWtlF+JKiEt+bJQlFlAs/xYEzNq4lnB2DTyq/GIiCTcE1d74o8peeHZrvvIZ5Q46bgq1+FGPP26aGwWMvdUMRvLudmHHBEprC5GtAeZ/Hoh9yQWCSnq04r9Wv1DIX1bKDcSmdeF8r5v7KSjqvFCV0Mi+ihf2Kx93U6roUjqY3v5Zmk5LG7nh3VKOZQXVenv3P3RKNwRkSf2EpvFeyL80Btpp/pMEwtp2f9FbqCILKqRpUTyYTy53hjSpO7E4flI5FYq/75cepOOzSnhe4X6uXtwSOOfXQHb16rxMinjNhGJrWSLn3zBX1vfOEmymjtGbiWmzijiRiz5olg97PNu9woy7VlnNCLrfVKGOE73H3MjIUQkMq8mXhRLW8XsA1UILb3tNN5JPX/X3tJocq1YXM8lo2ExIxTvMDYrq/ZmRpMvi8Z7o/gqHZtXlCXnpe7das+osaFHQmFtOVt4Z9hHdXROqCtezHTRPbhfiM8pkbuZ/IZRelfIPtREKKy/c+b93XtwyEHedw/au3w9Lmb1fkM7mcX7QsynOt2v2txZuWMnDf7snPloAxgv59QMADA5iJMA4KIGl4ZW7ZWMGyT73PheOr9Zre/VKuupxPMz4+meGyeJaLbdA+Wroc8J7XnN/tE+c1bm9FYwcWrtZLRQK076nIstRDOf2nmBVVoO2yfwbscH039FjHxXWN9on3xa8oR8Pul2n6i90MRcyolMusnz23PiJHmV3Ey83ZdExg23hbhbkEuSp8RKZLl9Tm0aD0R79boudvMPxe2/KspeAU2JrLRG0nG7qAwfc/pEjqoTeeK0/1ExMRNObsl3N17FxFyyJPt3NOw1jDxqJ0SKspiutLqoDGtSb+JUub09H1PttGvIHhzW+GdWoP4mERFKeDGeelWqtXZ6HwPjpJajWulVOqHZaxWJv3JWw+/cOEnx9VY7aeTvCDfFsz6kIiE19bHVBEfl1ILixUnH5fRSJL7W6S/TfBuX8zxwHvh3q1lKzivq43ZDnpofUqpQ026zX2wP2g2oaqlOvyC5pTIQdH7+zj047CA/ewi5Pmc0EUlve49GImflj5MGfnZM/0cbwJgZXDMAwIQhTgKAixpcGjYK96L6s3zxXTH3JKHNObmSLRSOvzlzEcp5cVL30EXy7FHcsk/g67lbQjzw9XI4qXVd7NZiHtarH43MnbCymHHn6T/nrL2IKiKe26l1bCQj9om0PN21SstC3My5fTS6OKfKQ+OkZuGu/d5M2ZupVFrVlBmnX4YTEiU2Outefap6nUpGjJOcNZchgjOP5tuEmE0Uh4QsDrmUqNwc630ybK/JkfPsl6wmAwvZtPpM2Ov84mxguB1XdettUudsv+v+YieV1LwXygzeg0Mb/8wK1F5GRUiod1L59zXz7B5pOzdOOjFrW/n0XdWemz828pzfO6mrnRtv4mImUTySbavMp8q+FZNDqrcO4zbLbNR3ysXH9jrGcm4K49+t2+lIKKyve40hfc4nZhUvfQtqD55Yzf1aZTOXuKGIlZLzzPftwaEH+aAVcPpYJVpX543EWT1fnDTws2MSJwFjbHDNAAAThjgJAC5qcGloNb/6ziKPG9UPRnHDKMurec44N07yZ0bOWbpMMaxKZkHxemp4THnVjxcnWY2tbPK2FpmRKZZYiEYXRd84qfw44gRdPdxLipyrb/peQeacKg+Lk05q2SVvXl3cYMINiba8aW2da5RGjpOcl9zsQF73NGA8mi6yB81MovjVqjyOeF1IbE6AEn1Zs7btV1un4mfzhSFN6kwc848w5Wx+eEXui4F78GRo4/dZgdPmFyP3yLlabSGWfGn0v1ptSJz0tWaspeKta+WMz/3GUDo3TurOjJxbicnxjEornT4yLtlzp3UYWzUj8yCmzjkd9mbVWFRV7H3sXkTp262mfWQ6TdCjHZJeaA+eNCuvUvGliAgpSkhElqLaXFec9M170Bp6kPfbg5JpyCb7psHCnVn546RBnx3ZgMRJwLgaXDMAwIQhTgKAiwqmNHTjpA/eI5t9+toadMY5le2667m8xkr2GHJOZbv7PjipinPi7VyqI7TlnLFdrTvBlkwu+sVJlVWnU8mx1U2+ZC/LeCj63NbNJs9vh/dOcu7Xfr/Y9GbY4qxAMHGS0zckbC9CPh9JfRi8Lm3ymjh7ykpGE9HOtVfylmHiXqH8PNrZ2DNZwLAmdSb2zdB+Rl5IpTrn/wP34MnQxh8URth8qVB0OVtygp6OvnHSQTm3EpNjcd9wcih/1tnjTJzkHC2+OGk26T/m5EhA9rH01UlY/Lddc6+UdA/jQ0OfV8JyWKJKbd+0323JefaJk6ytpAjJG591s9fKmdL2/XvQqtqvCjnqU/lzvWnaE8hPkD9O+vY9OPQgH7QHj4qJQXnfIM6siJOASRdMzQAAY4A4CQAuKpjS0Dk/9F29Us/fao9h7ERLrZGMpGN5tq/KEYid+6YvpuUYvC77THvO68chz+27xjxqyHn2O+e0fw7bJ/CfOpOaHzKJB2nDuRDJfx1NF3l+OzxOsmTa4l9z+3x+TU+4N646J06KiGirn4s/TjrIy5GYO3GSs/Kzeu5FXL538Kr4yMQtupKMzWjZz95TNnNTD9/Q9Tu+GOVMFjCsSd3W8CcOznWH+qbc+MF7cGjjDwoj2rz7u2lJ99qutr5x0lZKu53MbVbbd0kbyNkWb/ghh71rvO429uptJERI9a2waTwMuzurKa+Di+Y6YzE1Cne9w1j2YLI309fgcp6hVpzk361OtBTzxzqHRvq+ntlqN+337kF5Kagi7hc7jfW1mJhRxLITjn3nHhx6kA/agzUZH7ujPo3KmRVxEjDpgqkZAGAMECcBwEUFUxpaldQNRdxMG7VGc79qPI1HOrfEck5lFUV9kK8cmOZBpbCsiplY3j0Pr+ViM0JbLlTtl/Yr+fuqPaUbJ8l7qIe09JZz56+jmvE0Fg4pMg1x5ml9SIZDqv66XNk17XPjzJIQWrKw0zAts/Epry/YK5OtOWe78izdPjt1h0z2c0+/hw7F7ayeErmfK++b1nGzupHS7M1adWKfoafEchSeuXhuqyIHnPbHSbJbh6I9KpZ3Wnc0kyM3C2E3QjtE2C2mHiaz7QGhz5AjENnsZflX/bAQn7GfjaS3W8+eyQKGNanTGkooEn9Rrh+ZzS/FlL2QpYx7Z/hhe3BI4w8KI85yGq2jb5zUM80wMiGy2z/7od48rFfepqJ2C/vjJEURS8ni56Z51CivJSKhcGLDWdZxJa0JEU0Vv9gv1UvP4xG7fdzD+FNGDYnYc+eW/1azas9zxm6uVh7UtVvN0oqqzERTG7XmsWXulbN3I8psvODrgfW9e1DeAE5Z0It7cgJ7zrl78kpD7yq2796DQw7yAXvQ/kwNSHzMysuk/siJono4sxolTur6aAMYM8HUDAAwBoiTAOCigioNm1uZ2Lw7aIxQH+SMl3H/2EmKpqcf2mepUlhLZD92ulA0P2QTi84rznVYmdbFbqdmNXfPubOccAbKeVQor+vyEjL3HPionI7KM2Rx3zmX3i9l7nq3oZMrcDdTaudH8tqi1tjGfs7p9zlxkr162zldkwtyZhyJPTHq7huGnxLv5GJy8HJnfBl/nHTaMFac9ez0EnK6h4SinU4xciznobd428moobMDJDs9wry7gznOZgFDmtQ927+fTjmt6rVhKwEZvgcHNv6AMOJ8Q8ZOGtGe0doQJbyULGxktBlfnCRiydXWXQvnosnX1fbBYe0Z6duR/3979wsT5x3HcRxRcWJiJBUVM8iKioqJ4jZJMrFLpshEQyqayqUKM0EQS1WDWkjFEiQVS25iCXOYCgTiQZAcoskZxAnEIxDs/lHgdtDf0+/t4fjxerlLeu3B7y553ye950Y/5rev1l48PX8ad1qv+x+16/3qBlcTf7X515vvv/p0TFeP9aTYfDH4wwPzj5trY995/6UnWO5vLA8OoXeAvUfeXG9tvVxoDP9/X+AEr32STz7B/jO28d2k65ENrn02djnzkeHDS5iTxl/awCyZVjMA3DpzEkDUNNPwtNs5KIYX5bms91Z2eJ2d8mNRHE68dnLZOZxwx57+XfbbnbHvKT/XPe72L2NzrjxuF/tFe/zv6X+krn99otHNL9E96j2M4rqHMdlp2Xt4o2vQXFV2u92Lv6rcebkwdrHwYn1xwv41JZN/paPhoPduv38W7atXyP78CfbuNvmXf4vK/qn959EO5qTBN7t128VB+/Lz55PudT9m7y7X/4xXj/Xs7KTT3i+Ko4n/QsTgxXLQGf9qvPAJpj7JT1or38w3/4i8nj5v7KUNzIhpNgPArTInAUTVkIajt7KjW7fh4M3i1/2v7ppB5cHG0sP5pXeX3px/3F551tys+doxF2PEBLd/gtNzMSdlpq4T7Lxbmn+yOvwMHXDf1NAMAPUwJwFE1ZCGMzBGlLuvny48b83WZ2eON5uP5hsP5hrP1oaXeRop28VR7W/WzUl3XT0nWO7+8mRh5U+fQoN7qoZmAKiHOQkgqoY07Hxobf8zuhjLrSn3ttY39yp9Wu1/19l5u7b2dntvJt6bd4u/t1vXPJSZOMFpOdrdfr97fiH0nNRygvtba79fXGoKuG9qaAaAepiTAKKkIQCQQjMA2TAnAURJQwAghWYAsmFOAoiShgBACs0AZMOcBBAlDQGAFJoByIY5CSBKGgIAKTQDkA1zEkCUNAQAUmgGIBvmJIAoaQgApNAMQDbMSQBR0hAASKEZgGyYkwCipCEAkEIzANkwJwFESUMAIIVmALJhTgKIkoYAQArNAGTDnAQQJQ0BgBSaAciGOQkgShoCACk0A5ANcxJAlDQEAFJoBiAb5iSAqJvS8HRv4+fm8vpOObjVeb+6/NOrrcPBjbNyZ325+Xxj73R4EwDI3E3NAHCnmJMAom5Kw9PWysO5xo9b3cGt9m+LjQePVz8Mbpx1N39ozD1aaZmTAOB+uKkZAO4UcxJAlDQEAFJoBiAb5iSAKGkIAKTQDEA2zEkAUdIQAEihGYBsmJMAoqQhAJBCMwDZMCcBRElDACCFZgCyYU4CiJKGAEAKzQBkw5wEECUNAYAUmgHIhjkJIEoaAgApNAOQDXMSQJQ0BABSaAYgG+YkgChpCACk0AxANsxJAFHSEABIoRmAbJiTAKKkIQCQQjMA2TAnAURJQwAghWYAsmFOAoiShgBACs0AZMOcBBAlDQGAFJoByIY5CSBKGgIAKTQDkA1zEkCUNAQAUmgGIBvmJIAoaQgApNAMQDbMSQBR0hAASKEZgGyYkwCipCEAkEIzANkwJwFESUMAIIVmALJhTgKIkoYAQArNAGTDnAQQJQ0BgBSaAciGOQkgShoCACk0A5ANcxJAlDQEAFJoBiAb5iSAKGkIAKTQDEA2zEkAUdIQAEihGYBsmJMAoqQhAJBCMwDZMCcBRPW6cA4AIIE5CciDOQkg6lcAgGSjgAC4y8xJAAAAAFRgTgIAAACgAnMSAAAAABWYkwAAAACowJwEAAAAQAXmJAAAAAAqMCcBAAAAUIE5CQAAAIAKzEkAAAAAVGBOAgAAAKACcxIAAAAAFZiTAAAAAKjAnAQAAABABeYkAAAAACowJwEAAACQ7OzsX8lmHPxqUIl3AAAAAElFTkSuQmCC;" vertex="1" parent="WIyWlLk6GJQsqaUBKTNV-1">
          <mxGeometry width="1562" height="1149" as="geometry" />
        </mxCell>
        <mxCell id="_YYQAjemEUzrbPqEmsPf-27" value="" style="rounded=0;whiteSpace=wrap;html=1;strokeColor=none;" vertex="1" parent="WIyWlLk6GJQsqaUBKTNV-1">
          <mxGeometry x="900" y="130" width="450" height="20" as="geometry" />
        </mxCell>
        <mxCell id="_YYQAjemEUzrbPqEmsPf-29" value="&lt;font style=&quot;font-size: 15px;&quot;&gt;(String groupId, String userId, String role, HttpServletRequest request):Result&lt;/font&gt;" style="rounded=0;whiteSpace=wrap;whiteSpace=wrap;html=1;strokeColor=none;align=left;" vertex="1" parent="WIyWlLk6GJQsqaUBKTNV-1">
          <mxGeometry x="952" y="480" width="518" height="20" as="geometry" />
        </mxCell>
        <mxCell id="_YYQAjemEUzrbPqEmsPf-30" value="&lt;font style=&quot;font-size: 15px;&quot;&gt;(String groupId, String userId, String role, HttpServletRequest request):Result&lt;/font&gt;" style="rounded=0;whiteSpace=wrap;whiteSpace=wrap;html=1;strokeColor=none;align=left;" vertex="1" parent="WIyWlLk6GJQsqaUBKTNV-1">
          <mxGeometry x="900" y="127" width="518" height="20" as="geometry" />
        </mxCell>
      </root>
    </mxGraphModel>
  </diagram>
</mxfile>
